<svg width="1366" height="101" viewBox="0 0 1366 101" fill="none" xmlns="http://www.w3.org/2000/svg">
<path d="M115.439 22.692V25.296C115.439 26.8827 115.047 28.1053 114.263 28.964C113.498 29.804 112.359 30.224 110.847 30.224C109.335 30.224 108.187 29.804 107.403 28.964C106.638 28.1053 106.255 26.8827 106.255 25.296V15.104C106.255 13.5173 106.638 12.304 107.403 11.464C108.187 10.6053 109.335 10.176 110.847 10.176C112.359 10.176 113.498 10.6053 114.263 11.464C115.047 12.304 115.439 13.5173 115.439 15.104V17.008H112.527V14.908C112.527 14.1987 112.378 13.704 112.079 13.424C111.799 13.1253 111.416 12.976 110.931 12.976C110.446 12.976 110.054 13.1253 109.755 13.424C109.475 13.704 109.335 14.1987 109.335 14.908V25.492C109.335 26.2013 109.475 26.696 109.755 26.976C110.054 27.256 110.446 27.396 110.931 27.396C111.416 27.396 111.799 27.256 112.079 26.976C112.378 26.696 112.527 26.2013 112.527 25.492V22.692H115.439ZM121.62 22.188L120.668 23.98V30H117.588V10.4H120.668V18.94L124.7 10.4H127.78L123.496 19.136L127.78 30H124.616L121.62 22.188ZM132.626 30H129.462V10.4H132.206V22.804L133.326 18.492L135.846 10.4H139.234V30H136.462V16.196L135.202 21.012L132.626 30ZM150.595 32.632V30H144.015V32.632H141.019V27.256H142.223C142.484 26.92 142.661 26.556 142.755 26.164C142.867 25.772 142.941 25.2867 142.979 24.708L143.679 10.4H152.303V27.256H153.647V32.632H150.595ZM146.003 24.652C145.965 25.3987 145.872 25.9587 145.723 26.332C145.592 26.7053 145.396 27.0133 145.135 27.256H149.167V13.2H146.563L146.003 24.652ZM159.675 22.188L158.723 23.98V30H155.643V10.4H158.723V18.94L162.755 10.4H165.835L161.551 19.136L165.835 30H162.671L159.675 22.188ZM177.484 30H174.376L173.844 26.444H170.064L169.532 30H166.704L169.84 10.4H174.348L177.484 30ZM170.456 23.784H173.424L171.94 13.872L170.456 23.784ZM192.73 32.632V30H186.15V32.632H183.154V27.256H184.358C184.62 26.92 184.797 26.556 184.89 26.164C185.002 25.772 185.077 25.2867 185.114 24.708L185.814 10.4H194.438V27.256H195.782V32.632H192.73ZM188.138 24.652C188.101 25.3987 188.008 25.9587 187.858 26.332C187.728 26.7053 187.532 27.0133 187.27 27.256H191.302V13.2H188.698L188.138 24.652ZM200.606 25.492C200.606 26.2013 200.746 26.7053 201.026 27.004C201.325 27.284 201.717 27.424 202.202 27.424C202.688 27.424 203.07 27.284 203.35 27.004C203.649 26.7053 203.798 26.2013 203.798 25.492V14.908C203.798 14.1987 203.649 13.704 203.35 13.424C203.07 13.1253 202.688 12.976 202.202 12.976C201.717 12.976 201.325 13.1253 201.026 13.424C200.746 13.704 200.606 14.1987 200.606 14.908V25.492ZM197.526 15.104C197.526 13.5173 197.928 12.304 198.73 11.464C199.533 10.6053 200.69 10.176 202.202 10.176C203.714 10.176 204.872 10.6053 205.674 11.464C206.477 12.304 206.878 13.5173 206.878 15.104V25.296C206.878 26.8827 206.477 28.1053 205.674 28.964C204.872 29.804 203.714 30.224 202.202 30.224C200.69 30.224 199.533 29.804 198.73 28.964C197.928 28.1053 197.526 26.8827 197.526 25.296V15.104ZM216.56 23.672V25.492C216.56 26.2013 216.7 26.696 216.98 26.976C217.278 27.256 217.67 27.396 218.156 27.396C218.641 27.396 219.024 27.256 219.304 26.976C219.602 26.696 219.752 26.2013 219.752 25.492V21.18C219.752 20.4707 219.602 19.976 219.304 19.696C219.024 19.3973 218.641 19.248 218.156 19.248C217.67 19.248 217.278 19.3973 216.98 19.696C216.7 19.976 216.56 20.4707 216.56 21.18V21.768H213.648L214.208 10.4H222.328V13.2H216.98L216.728 17.876C217.306 16.924 218.202 16.448 219.416 16.448C220.554 16.448 221.404 16.8307 221.964 17.596C222.542 18.3613 222.832 19.472 222.832 20.928V25.296C222.832 26.8827 222.44 28.1053 221.656 28.964C220.89 29.804 219.752 30.224 218.24 30.224C216.728 30.224 215.58 29.804 214.796 28.964C214.03 28.1053 213.648 26.8827 213.648 25.296V23.672H216.56ZM227.997 25.492C227.997 26.2013 228.137 26.7053 228.417 27.004C228.716 27.284 229.108 27.424 229.593 27.424C230.078 27.424 230.461 27.284 230.741 27.004C231.04 26.7053 231.189 26.2013 231.189 25.492V14.908C231.189 14.1987 231.04 13.704 230.741 13.424C230.461 13.1253 230.078 12.976 229.593 12.976C229.108 12.976 228.716 13.1253 228.417 13.424C228.137 13.704 227.997 14.1987 227.997 14.908V25.492ZM224.917 15.104C224.917 13.5173 225.318 12.304 226.121 11.464C226.924 10.6053 228.081 10.176 229.593 10.176C231.105 10.176 232.262 10.6053 233.065 11.464C233.868 12.304 234.269 13.5173 234.269 15.104V25.296C234.269 26.8827 233.868 28.1053 233.065 28.964C232.262 29.804 231.105 30.224 229.593 30.224C228.081 30.224 226.924 29.804 226.121 28.964C225.318 28.1053 224.917 26.8827 224.917 25.296V15.104ZM242.97 19.976C242.97 20.7973 243.306 21.208 243.978 21.208C244.296 21.208 244.538 21.1147 244.706 20.928C244.893 20.7227 244.986 20.4053 244.986 19.976V13.256C244.986 12.8267 244.893 12.5187 244.706 12.332C244.538 12.1267 244.296 12.024 243.978 12.024C243.306 12.024 242.97 12.4347 242.97 13.256V19.976ZM241.01 13.396C241.01 12.388 241.262 11.6133 241.766 11.072C242.27 10.5307 243.008 10.26 243.978 10.26C244.949 10.26 245.686 10.5307 246.19 11.072C246.694 11.6133 246.946 12.388 246.946 13.396V19.836C246.946 20.844 246.694 21.6187 246.19 22.16C245.686 22.7013 244.949 22.972 243.978 22.972C243.008 22.972 242.27 22.7013 241.766 22.16C241.262 21.6187 241.01 20.844 241.01 19.836V13.396ZM251.706 10.4H253.526L245.798 30H243.978L251.706 10.4ZM252.686 27.144C252.686 27.9653 253.022 28.376 253.694 28.376C254.012 28.376 254.254 28.2827 254.422 28.096C254.609 27.8907 254.702 27.5733 254.702 27.144V20.424C254.702 19.9947 254.609 19.6867 254.422 19.5C254.254 19.2947 254.012 19.192 253.694 19.192C253.022 19.192 252.686 19.6027 252.686 20.424V27.144ZM250.726 20.564C250.726 19.556 250.978 18.7813 251.482 18.24C251.986 17.6987 252.724 17.428 253.694 17.428C254.665 17.428 255.402 17.6987 255.906 18.24C256.41 18.7813 256.662 19.556 256.662 20.564V27.004C256.662 28.012 256.41 28.7867 255.906 29.328C255.402 29.8693 254.665 30.14 253.694 30.14C252.724 30.14 251.986 29.8693 251.482 29.328C250.978 28.7867 250.726 28.012 250.726 27.004V20.564Z" fill="#EA4C14"/>
<path d="M73.5901 60H70.5101V40.4H80.2261V60H77.0901V43.2H73.5901V60ZM87.2753 40.4C88.8246 40.4 89.9726 40.8107 90.7193 41.632C91.4846 42.4533 91.8673 43.6573 91.8673 45.244V47.792C91.8673 49.3787 91.4846 50.5827 90.7193 51.404C89.9726 52.2253 88.8246 52.636 87.2753 52.636H85.8193V60H82.7393V40.4H87.2753ZM85.8193 43.2V49.836H87.2753C87.7606 49.836 88.134 49.7053 88.3953 49.444C88.6566 49.1827 88.7873 48.6973 88.7873 47.988V45.048C88.7873 44.3387 88.6566 43.8533 88.3953 43.592C88.134 43.3307 87.7606 43.2 87.2753 43.2H85.8193ZM96.738 60H93.574V40.4H96.318V52.804L97.438 48.492L99.958 40.4H103.346V60H100.574V46.196L99.314 51.012L96.738 60ZM116.367 45.216C116.367 44.3387 116.218 43.7507 115.919 43.452C115.639 43.1347 115.256 42.976 114.771 42.976C114.286 42.976 113.894 43.1253 113.595 43.424C113.296 43.704 113.147 44.1987 113.147 44.908V46.504H110.319V45.048C110.319 43.4613 110.692 42.2573 111.439 41.436C112.204 40.596 113.343 40.176 114.855 40.176C116.367 40.176 117.506 40.6053 118.271 41.464C119.055 42.304 119.447 43.5173 119.447 45.104V45.608C119.447 47.6987 118.728 49.0427 117.291 49.64C118.075 49.976 118.626 50.4987 118.943 51.208C119.279 51.8987 119.447 52.748 119.447 53.756V55.296C119.447 56.8827 119.055 58.1053 118.271 58.964C117.506 59.804 116.367 60.224 114.855 60.224C113.343 60.224 112.195 59.804 111.411 58.964C110.646 58.1053 110.263 56.8827 110.263 55.296V53.14H113.175V55.492C113.175 56.2013 113.315 56.7053 113.595 57.004C113.894 57.284 114.286 57.424 114.771 57.424C115.256 57.424 115.639 57.2747 115.919 56.976C116.218 56.6773 116.367 56.0893 116.367 55.212V53.672C116.367 52.7573 116.208 52.1133 115.891 51.74C115.574 51.3667 115.06 51.18 114.351 51.18H113.595V48.38H114.519C115.098 48.38 115.546 48.2307 115.863 47.932C116.199 47.6333 116.367 47.092 116.367 46.308V45.216ZM131.78 60H128.672L128.14 56.444H124.36L123.828 60H121L124.136 40.4H128.644L131.78 60ZM124.752 53.784H127.72L126.236 43.872L124.752 53.784ZM137.527 52.188L136.575 53.98V60H133.495V40.4H136.575V48.94L140.607 40.4H143.687L139.403 49.136L143.687 60H140.523L137.527 52.188ZM155.337 60H152.229L151.697 56.444H147.917L147.385 60H144.557L147.693 40.4H152.201L155.337 60ZM148.309 53.784H151.277L149.793 43.872L148.309 53.784ZM162.987 45.216C162.987 44.3387 162.838 43.7507 162.539 43.452C162.259 43.1347 161.876 42.976 161.391 42.976C160.906 42.976 160.514 43.1253 160.215 43.424C159.916 43.704 159.767 44.1987 159.767 44.908V46.504H156.939V45.048C156.939 43.4613 157.312 42.2573 158.059 41.436C158.824 40.596 159.963 40.176 161.475 40.176C162.987 40.176 164.126 40.6053 164.891 41.464C165.675 42.304 166.067 43.5173 166.067 45.104V45.608C166.067 47.6987 165.348 49.0427 163.911 49.64C164.695 49.976 165.246 50.4987 165.563 51.208C165.899 51.8987 166.067 52.748 166.067 53.756V55.296C166.067 56.8827 165.675 58.1053 164.891 58.964C164.126 59.804 162.987 60.224 161.475 60.224C159.963 60.224 158.815 59.804 158.031 58.964C157.266 58.1053 156.883 56.8827 156.883 55.296V53.14H159.795V55.492C159.795 56.2013 159.935 56.7053 160.215 57.004C160.514 57.284 160.906 57.424 161.391 57.424C161.876 57.424 162.259 57.2747 162.539 56.976C162.838 56.6773 162.987 56.0893 162.987 55.212V53.672C162.987 52.7573 162.828 52.1133 162.511 51.74C162.194 51.3667 161.68 51.18 160.971 51.18H160.215V48.38H161.139C161.718 48.38 162.166 48.2307 162.483 47.932C162.819 47.6333 162.987 47.092 162.987 46.308V45.216ZM171.512 48.66H175.74V51.46H171.512V57.2H176.832V60H168.432V40.4H176.832V43.2H171.512V48.66ZM186.477 55.492C186.477 56.2013 186.617 56.7053 186.897 57.004C187.195 57.284 187.587 57.424 188.073 57.424C188.558 57.424 188.941 57.284 189.221 57.004C189.519 56.7053 189.669 56.2013 189.669 55.492V44.908C189.669 44.1987 189.519 43.704 189.221 43.424C188.941 43.1253 188.558 42.976 188.073 42.976C187.587 42.976 187.195 43.1253 186.897 43.424C186.617 43.704 186.477 44.1987 186.477 44.908V55.492ZM183.397 45.104C183.397 43.5173 183.798 42.304 184.601 41.464C185.403 40.6053 186.561 40.176 188.073 40.176C189.585 40.176 190.742 40.6053 191.545 41.464C192.347 42.304 192.749 43.5173 192.749 45.104V55.296C192.749 56.8827 192.347 58.1053 191.545 58.964C190.742 59.804 189.585 60.224 188.073 60.224C186.561 60.224 185.403 59.804 184.601 58.964C183.798 58.1053 183.397 56.8827 183.397 55.296V45.104ZM194.134 40.4H203.654V43.2H200.434V60H197.354V43.2H194.134V40.4ZM216.022 45.216C216.022 44.3387 215.873 43.7507 215.574 43.452C215.294 43.1347 214.912 42.976 214.426 42.976C213.941 42.976 213.549 43.1253 213.25 43.424C212.97 43.704 212.83 44.1987 212.83 44.908V47.008H209.918V45.104C209.918 43.5173 210.301 42.304 211.066 41.464C211.85 40.6053 212.998 40.176 214.51 40.176C216.022 40.176 217.161 40.6053 217.926 41.464C218.71 42.304 219.102 43.5173 219.102 45.104C219.102 46.1307 218.953 47.064 218.654 47.904C218.356 48.7253 217.973 49.4813 217.506 50.172C217.058 50.844 216.564 51.4693 216.022 52.048C215.5 52.6267 215.005 53.1773 214.538 53.7C214.09 54.2227 213.717 54.736 213.418 55.24C213.12 55.7253 212.97 56.2387 212.97 56.78C212.97 56.9667 212.98 57.1067 212.998 57.2H218.822V60H209.918V57.592C209.918 56.64 210.068 55.8 210.366 55.072C210.665 54.344 211.038 53.6813 211.486 53.084C211.953 52.468 212.448 51.8987 212.97 51.376C213.493 50.8347 213.978 50.2653 214.426 49.668C214.893 49.0707 215.276 48.4173 215.574 47.708C215.873 46.9987 216.022 46.168 216.022 45.216ZM224.128 55.492C224.128 56.2013 224.268 56.7053 224.548 57.004C224.847 57.284 225.239 57.424 225.724 57.424C226.209 57.424 226.592 57.284 226.872 57.004C227.171 56.7053 227.32 56.2013 227.32 55.492V44.908C227.32 44.1987 227.171 43.704 226.872 43.424C226.592 43.1253 226.209 42.976 225.724 42.976C225.239 42.976 224.847 43.1253 224.548 43.424C224.268 43.704 224.128 44.1987 224.128 44.908V55.492ZM221.048 45.104C221.048 43.5173 221.449 42.304 222.252 41.464C223.055 40.6053 224.212 40.176 225.724 40.176C227.236 40.176 228.393 40.6053 229.196 41.464C229.999 42.304 230.4 43.5173 230.4 45.104V55.296C230.4 56.8827 229.999 58.1053 229.196 58.964C228.393 59.804 227.236 60.224 225.724 60.224C224.212 60.224 223.055 59.804 222.252 58.964C221.449 58.1053 221.048 56.8827 221.048 55.296V45.104ZM240.137 55.492C240.137 56.2013 240.277 56.7053 240.557 57.004C240.856 57.284 241.248 57.424 241.733 57.424C242.218 57.424 242.601 57.284 242.881 57.004C243.18 56.7053 243.329 56.2013 243.329 55.492V44.908C243.329 44.1987 243.18 43.704 242.881 43.424C242.601 43.1253 242.218 42.976 241.733 42.976C241.248 42.976 240.856 43.1253 240.557 43.424C240.277 43.704 240.137 44.1987 240.137 44.908V55.492ZM237.057 45.104C237.057 43.5173 237.458 42.304 238.261 41.464C239.064 40.6053 240.221 40.176 241.733 40.176C243.245 40.176 244.402 40.6053 245.205 41.464C246.008 42.304 246.409 43.5173 246.409 45.104V55.296C246.409 56.8827 246.008 58.1053 245.205 58.964C244.402 59.804 243.245 60.224 241.733 60.224C240.221 60.224 239.064 59.804 238.261 58.964C237.458 58.1053 237.057 56.8827 237.057 55.296V45.104ZM251.519 55.492C251.519 56.2013 251.659 56.7053 251.939 57.004C252.237 57.284 252.629 57.424 253.115 57.424C253.6 57.424 253.983 57.284 254.263 57.004C254.561 56.7053 254.711 56.2013 254.711 55.492V44.908C254.711 44.1987 254.561 43.704 254.263 43.424C253.983 43.1253 253.6 42.976 253.115 42.976C252.629 42.976 252.237 43.1253 251.939 43.424C251.659 43.704 251.519 44.1987 251.519 44.908V55.492ZM248.439 45.104C248.439 43.5173 248.84 42.304 249.643 41.464C250.445 40.6053 251.603 40.176 253.115 40.176C254.627 40.176 255.784 40.6053 256.587 41.464C257.389 42.304 257.791 43.5173 257.791 45.104V55.296C257.791 56.8827 257.389 58.1053 256.587 58.964C255.784 59.804 254.627 60.224 253.115 60.224C251.603 60.224 250.445 59.804 249.643 58.964C248.84 58.1053 248.439 56.8827 248.439 55.296V45.104ZM262.9 55.492C262.9 56.2013 263.04 56.7053 263.32 57.004C263.619 57.284 264.011 57.424 264.496 57.424C264.982 57.424 265.364 57.284 265.644 57.004C265.943 56.7053 266.092 56.2013 266.092 55.492V44.908C266.092 44.1987 265.943 43.704 265.644 43.424C265.364 43.1253 264.982 42.976 264.496 42.976C264.011 42.976 263.619 43.1253 263.32 43.424C263.04 43.704 262.9 44.1987 262.9 44.908V55.492ZM259.82 45.104C259.82 43.5173 260.222 42.304 261.024 41.464C261.827 40.6053 262.984 40.176 264.496 40.176C266.008 40.176 267.166 40.6053 267.968 41.464C268.771 42.304 269.172 43.5173 269.172 45.104V55.296C269.172 56.8827 268.771 58.1053 267.968 58.964C267.166 59.804 266.008 60.224 264.496 60.224C262.984 60.224 261.827 59.804 261.024 58.964C260.222 58.1053 259.82 56.8827 259.82 55.296V45.104ZM277.978 54.316L280.078 40.4H284.362V60H281.45V45.944L279.322 60H276.41L274.114 46.14V60H271.426V40.4H275.71L277.978 54.316ZM290.802 40.736C290.802 40.1947 290.709 39.8307 290.522 39.644C290.354 39.4387 290.112 39.336 289.794 39.336C289.477 39.336 289.225 39.4293 289.038 39.616C288.87 39.8027 288.786 40.12 288.786 40.568V41.884H286.938V40.68C286.938 39.672 287.181 38.9067 287.666 38.384C288.152 37.8427 288.88 37.572 289.85 37.572C290.821 37.572 291.549 37.8427 292.034 38.384C292.52 38.9067 292.762 39.672 292.762 40.68C292.762 41.3707 292.66 41.9867 292.454 42.528C292.249 43.0693 291.988 43.564 291.67 44.012C291.372 44.46 291.045 44.88 290.69 45.272C290.336 45.6453 290.009 46.0093 289.71 46.364C289.43 46.7 289.206 47.036 289.038 47.372C288.87 47.708 288.824 48.0533 288.898 48.408H292.594V50.172H286.938V48.66C286.938 48.0627 287.032 47.5307 287.218 47.064C287.405 46.5973 287.638 46.1773 287.918 45.804C288.217 45.412 288.534 45.0387 288.87 44.684C289.206 44.3293 289.514 43.9653 289.794 43.592C290.093 43.2 290.336 42.78 290.522 42.332C290.709 41.8653 290.802 41.3333 290.802 40.736Z" fill="#EFEFEF"/>
<path d="M472.424 22.692V25.296C472.424 26.8827 472.032 28.1053 471.248 28.964C470.483 29.804 469.344 30.224 467.832 30.224C466.32 30.224 465.172 29.804 464.388 28.964C463.623 28.1053 463.24 26.8827 463.24 25.296V15.104C463.24 13.5173 463.623 12.304 464.388 11.464C465.172 10.6053 466.32 10.176 467.832 10.176C469.344 10.176 470.483 10.6053 471.248 11.464C472.032 12.304 472.424 13.5173 472.424 15.104V17.008H469.512V14.908C469.512 14.1987 469.363 13.704 469.064 13.424C468.784 13.1253 468.402 12.976 467.916 12.976C467.431 12.976 467.039 13.1253 466.74 13.424C466.46 13.704 466.32 14.1987 466.32 14.908V25.492C466.32 26.2013 466.46 26.696 466.74 26.976C467.039 27.256 467.431 27.396 467.916 27.396C468.402 27.396 468.784 27.256 469.064 26.976C469.363 26.696 469.512 26.2013 469.512 25.492V22.692H472.424ZM478.605 22.188L477.653 23.98V30H474.573V10.4H477.653V18.94L481.685 10.4H484.765L480.481 19.136L484.765 30H481.601L478.605 22.188ZM489.611 30H486.447V10.4H489.191V22.804L490.311 18.492L492.831 10.4H496.219V30H493.447V16.196L492.187 21.012L489.611 30ZM507.58 32.632V30H501V32.632H498.004V27.256H499.208C499.469 26.92 499.647 26.556 499.74 26.164C499.852 25.772 499.927 25.2867 499.964 24.708L500.664 10.4H509.288V27.256H510.632V32.632H507.58ZM502.988 24.652C502.951 25.3987 502.857 25.9587 502.708 26.332C502.577 26.7053 502.381 27.0133 502.12 27.256H506.152V13.2H503.548L502.988 24.652ZM516.66 22.188L515.708 23.98V30H512.628V10.4H515.708V18.94L519.74 10.4H522.82L518.536 19.136L522.82 30H519.656L516.66 22.188ZM534.47 30H531.362L530.83 26.444H527.05L526.518 30H523.69L526.826 10.4H531.334L534.47 30ZM527.442 23.784H530.41L528.926 13.872L527.442 23.784ZM543.584 23.672V25.492C543.584 26.2013 543.724 26.696 544.004 26.976C544.302 27.256 544.694 27.396 545.18 27.396C545.665 27.396 546.048 27.256 546.328 26.976C546.626 26.696 546.776 26.2013 546.776 25.492V21.18C546.776 20.4707 546.626 19.976 546.328 19.696C546.048 19.3973 545.665 19.248 545.18 19.248C544.694 19.248 544.302 19.3973 544.004 19.696C543.724 19.976 543.584 20.4707 543.584 21.18V21.768H540.672L541.232 10.4H549.352V13.2H544.004L543.752 17.876C544.33 16.924 545.226 16.448 546.44 16.448C547.578 16.448 548.428 16.8307 548.988 17.596C549.566 18.3613 549.856 19.472 549.856 20.928V25.296C549.856 26.8827 549.464 28.1053 548.68 28.964C547.914 29.804 546.776 30.224 545.264 30.224C543.752 30.224 542.604 29.804 541.82 28.964C541.054 28.1053 540.672 26.8827 540.672 25.296V23.672H543.584ZM553.985 19.976C553.985 20.7973 554.321 21.208 554.993 21.208C555.31 21.208 555.553 21.1147 555.721 20.928C555.908 20.7227 556.001 20.4053 556.001 19.976V13.256C556.001 12.8267 555.908 12.5187 555.721 12.332C555.553 12.1267 555.31 12.024 554.993 12.024C554.321 12.024 553.985 12.4347 553.985 13.256V19.976ZM552.025 13.396C552.025 12.388 552.277 11.6133 552.781 11.072C553.285 10.5307 554.022 10.26 554.993 10.26C555.964 10.26 556.701 10.5307 557.205 11.072C557.709 11.6133 557.961 12.388 557.961 13.396V19.836C557.961 20.844 557.709 21.6187 557.205 22.16C556.701 22.7013 555.964 22.972 554.993 22.972C554.022 22.972 553.285 22.7013 552.781 22.16C552.277 21.6187 552.025 20.844 552.025 19.836V13.396ZM562.721 10.4H564.541L556.813 30H554.993L562.721 10.4ZM563.701 27.144C563.701 27.9653 564.037 28.376 564.709 28.376C565.026 28.376 565.269 28.2827 565.437 28.096C565.624 27.8907 565.717 27.5733 565.717 27.144V20.424C565.717 19.9947 565.624 19.6867 565.437 19.5C565.269 19.2947 565.026 19.192 564.709 19.192C564.037 19.192 563.701 19.6027 563.701 20.424V27.144ZM561.741 20.564C561.741 19.556 561.993 18.7813 562.497 18.24C563.001 17.6987 563.738 17.428 564.709 17.428C565.68 17.428 566.417 17.6987 566.921 18.24C567.425 18.7813 567.677 19.556 567.677 20.564V27.004C567.677 28.012 567.425 28.7867 566.921 29.328C566.417 29.8693 565.68 30.14 564.709 30.14C563.738 30.14 563.001 29.8693 562.497 29.328C561.993 28.7867 561.741 28.012 561.741 27.004V20.564Z" fill="#EA4C14"/>
<path d="M395.22 60H392.14V40.4H395.22V48.8H398.72V40.4H401.856V60H398.72V51.6H395.22V60ZM414.338 60H411.23L410.698 56.444H406.918L406.386 60H403.558L406.694 40.4H411.202L414.338 60ZM407.31 53.784H410.278L408.794 43.872L407.31 53.784ZM423.76 60H420.68V40.4H430.396V60H427.26V43.2H423.76V60ZM435.737 55.492C435.737 56.2013 435.877 56.7053 436.157 57.004C436.455 57.284 436.847 57.424 437.333 57.424C437.818 57.424 438.201 57.284 438.481 57.004C438.779 56.7053 438.929 56.2013 438.929 55.492V44.908C438.929 44.1987 438.779 43.704 438.481 43.424C438.201 43.1253 437.818 42.976 437.333 42.976C436.847 42.976 436.455 43.1253 436.157 43.424C435.877 43.704 435.737 44.1987 435.737 44.908V55.492ZM432.657 45.104C432.657 43.5173 433.058 42.304 433.861 41.464C434.663 40.6053 435.821 40.176 437.333 40.176C438.845 40.176 440.002 40.6053 440.805 41.464C441.607 42.304 442.009 43.5173 442.009 45.104V55.296C442.009 56.8827 441.607 58.1053 440.805 58.964C440.002 59.804 438.845 60.224 437.333 60.224C435.821 60.224 434.663 59.804 433.861 58.964C433.058 58.1053 432.657 56.8827 432.657 55.296V45.104ZM453.222 52.692V55.296C453.222 56.8827 452.83 58.1053 452.046 58.964C451.281 59.804 450.142 60.224 448.63 60.224C447.118 60.224 445.97 59.804 445.186 58.964C444.421 58.1053 444.038 56.8827 444.038 55.296V45.104C444.038 43.5173 444.421 42.304 445.186 41.464C445.97 40.6053 447.118 40.176 448.63 40.176C450.142 40.176 451.281 40.6053 452.046 41.464C452.83 42.304 453.222 43.5173 453.222 45.104V47.008H450.31V44.908C450.31 44.1987 450.161 43.704 449.862 43.424C449.582 43.1253 449.2 42.976 448.714 42.976C448.229 42.976 447.837 43.1253 447.538 43.424C447.258 43.704 447.118 44.1987 447.118 44.908V55.492C447.118 56.2013 447.258 56.696 447.538 56.976C447.837 57.256 448.229 57.396 448.714 57.396C449.2 57.396 449.582 57.256 449.862 56.976C450.161 56.696 450.31 56.2013 450.31 55.492V52.692H453.222ZM454.503 57.228C454.858 57.228 455.147 57.2093 455.371 57.172C455.614 57.1347 455.81 57.0507 455.959 56.92C456.108 56.7707 456.211 56.5653 456.267 56.304C456.342 56.024 456.388 55.66 456.407 55.212L456.911 40.4H465.619V60H462.483V43.2H459.795L459.459 55.044C459.403 56.836 459.02 58.1147 458.311 58.88C457.62 59.6453 456.51 60.028 454.979 60.028H454.503V57.228ZM471.337 48.66H475.565V51.46H471.337V57.2H476.657V60H468.257V40.4H476.657V43.2H471.337V48.66ZM487.749 62.632V60H481.169V62.632H478.173V57.256H479.377C479.638 56.92 479.816 56.556 479.909 56.164C480.021 55.772 480.096 55.2867 480.133 54.708L480.833 40.4H489.457V57.256H490.801V62.632H487.749ZM483.157 54.652C483.12 55.3987 483.026 55.9587 482.877 56.332C482.746 56.7053 482.55 57.0133 482.289 57.256H486.321V43.2H483.717L483.157 54.652ZM499.629 55.016C499.442 55.8933 499.209 56.668 498.929 57.34C498.668 57.9933 498.304 58.5347 497.837 58.964C497.389 59.3747 496.801 59.6733 496.073 59.86C495.364 60.0467 494.477 60.1027 493.413 60.028V57.284C494.197 57.34 494.813 57.2653 495.261 57.06C495.709 56.8547 495.998 56.3973 496.129 55.688L496.157 55.52L491.901 40.4H494.953L496.633 47.092L497.585 51.684L498.313 47.12L499.713 40.4H502.933L499.629 55.016ZM509.883 51.6H507.587V60H504.507V40.4H507.587V48.8H509.883V45.104C509.883 43.5173 510.284 42.304 511.087 41.464C511.889 40.6053 513.047 40.176 514.559 40.176C516.071 40.176 517.228 40.6053 518.031 41.464C518.833 42.304 519.235 43.5173 519.235 45.104V55.296C519.235 56.8827 518.833 58.1053 518.031 58.964C517.228 59.804 516.071 60.224 514.559 60.224C513.047 60.224 511.889 59.804 511.087 58.964C510.284 58.1053 509.883 56.8827 509.883 55.296V51.6ZM512.963 55.492C512.963 56.2013 513.103 56.7053 513.383 57.004C513.681 57.284 514.073 57.424 514.559 57.424C515.044 57.424 515.427 57.284 515.707 57.004C516.005 56.7053 516.155 56.2013 516.155 55.492V44.908C516.155 44.1987 516.005 43.704 515.707 43.424C515.427 43.1253 515.044 42.976 514.559 42.976C514.073 42.976 513.681 43.1253 513.383 43.424C513.103 43.704 512.963 44.1987 512.963 44.908V55.492ZM536.108 57.256H537.48V62.632H534.484V60H521.548V40.4H524.628V57.2H527.288V40.4H530.368V57.2H533.028V40.4H536.108V57.256ZM542.602 60H539.438V40.4H542.182V52.804L543.302 48.492L545.822 40.4H549.21V60H546.438V46.196L545.178 51.012L542.602 60ZM554.747 48.66H558.975V51.46H554.747V57.2H560.067V60H551.667V40.4H560.067V43.2H554.747V48.66ZM572.819 45.216C572.819 44.3387 572.67 43.7507 572.371 43.452C572.091 43.1347 571.709 42.976 571.223 42.976C570.738 42.976 570.346 43.1253 570.047 43.424C569.749 43.704 569.599 44.1987 569.599 44.908V46.504H566.771V45.048C566.771 43.4613 567.145 42.2573 567.891 41.436C568.657 40.596 569.795 40.176 571.307 40.176C572.819 40.176 573.958 40.6053 574.723 41.464C575.507 42.304 575.899 43.5173 575.899 45.104V45.608C575.899 47.6987 575.181 49.0427 573.743 49.64C574.527 49.976 575.078 50.4987 575.395 51.208C575.731 51.8987 575.899 52.748 575.899 53.756V55.296C575.899 56.8827 575.507 58.1053 574.723 58.964C573.958 59.804 572.819 60.224 571.307 60.224C569.795 60.224 568.647 59.804 567.863 58.964C567.098 58.1053 566.715 56.8827 566.715 55.296V53.14H569.627V55.492C569.627 56.2013 569.767 56.7053 570.047 57.004C570.346 57.284 570.738 57.424 571.223 57.424C571.709 57.424 572.091 57.2747 572.371 56.976C572.67 56.6773 572.819 56.0893 572.819 55.212V53.672C572.819 52.7573 572.661 52.1133 572.343 51.74C572.026 51.3667 571.513 51.18 570.803 51.18H570.047V48.38H570.971C571.55 48.38 571.998 48.2307 572.315 47.932C572.651 47.6333 572.819 47.092 572.819 46.308V45.216ZM588.233 60H585.125L584.593 56.444H580.813L580.281 60H577.453L580.589 40.4H585.097L588.233 60ZM581.205 53.784H584.173L582.689 43.872L581.205 53.784ZM593.979 52.188L593.027 53.98V60H589.947V40.4H593.027V48.94L597.059 40.4H600.139L595.855 49.136L600.139 60H596.975L593.979 52.188ZM611.789 60H608.681L608.149 56.444H604.369L603.837 60H601.009L604.145 40.4H608.653L611.789 60ZM604.761 53.784H607.729L606.245 43.872L604.761 53.784ZM619.439 45.216C619.439 44.3387 619.29 43.7507 618.991 43.452C618.711 43.1347 618.329 42.976 617.843 42.976C617.358 42.976 616.966 43.1253 616.667 43.424C616.369 43.704 616.219 44.1987 616.219 44.908V46.504H613.391V45.048C613.391 43.4613 613.765 42.2573 614.511 41.436C615.277 40.596 616.415 40.176 617.927 40.176C619.439 40.176 620.578 40.6053 621.343 41.464C622.127 42.304 622.519 43.5173 622.519 45.104V45.608C622.519 47.6987 621.801 49.0427 620.363 49.64C621.147 49.976 621.698 50.4987 622.015 51.208C622.351 51.8987 622.519 52.748 622.519 53.756V55.296C622.519 56.8827 622.127 58.1053 621.343 58.964C620.578 59.804 619.439 60.224 617.927 60.224C616.415 60.224 615.267 59.804 614.483 58.964C613.718 58.1053 613.335 56.8827 613.335 55.296V53.14H616.247V55.492C616.247 56.2013 616.387 56.7053 616.667 57.004C616.966 57.284 617.358 57.424 617.843 57.424C618.329 57.424 618.711 57.2747 618.991 56.976C619.29 56.6773 619.439 56.0893 619.439 55.212V53.672C619.439 52.7573 619.281 52.1133 618.963 51.74C618.646 51.3667 618.133 51.18 617.423 51.18H616.667V48.38H617.591C618.17 48.38 618.618 48.2307 618.935 47.932C619.271 47.6333 619.439 47.092 619.439 46.308V45.216ZM624.885 60V40.4H627.965V47.764H629.421C630.97 47.764 632.118 48.1747 632.865 48.996C633.63 49.8173 634.013 51.0213 634.013 52.608V55.156C634.013 56.7427 633.63 57.9467 632.865 58.768C632.118 59.5893 630.97 60 629.421 60H624.885ZM629.421 57.2C629.906 57.2 630.28 57.0693 630.541 56.808C630.802 56.5467 630.933 56.0613 630.933 55.352V52.412C630.933 51.7027 630.802 51.2173 630.541 50.956C630.28 50.6947 629.906 50.564 629.421 50.564H627.965V57.2H629.421ZM635.777 60V40.4H638.857V60H635.777Z" fill="#EFEFEF"/>
<path d="M775.066 23.672V25.492C775.066 26.2013 775.206 26.696 775.486 26.976C775.785 27.256 776.177 27.396 776.662 27.396C777.147 27.396 777.53 27.256 777.81 26.976C778.109 26.696 778.258 26.2013 778.258 25.492V21.18C778.258 20.4707 778.109 19.976 777.81 19.696C777.53 19.3973 777.147 19.248 776.662 19.248C776.177 19.248 775.785 19.3973 775.486 19.696C775.206 19.976 775.066 20.4707 775.066 21.18V21.768H772.154L772.714 10.4H780.834V13.2H775.486L775.234 17.876C775.813 16.924 776.709 16.448 777.922 16.448C779.061 16.448 779.91 16.8307 780.47 17.596C781.049 18.3613 781.338 19.472 781.338 20.928V25.296C781.338 26.8827 780.946 28.1053 780.162 28.964C779.397 29.804 778.258 30.224 776.746 30.224C775.234 30.224 774.086 29.804 773.302 28.964C772.537 28.1053 772.154 26.8827 772.154 25.296V23.672H775.066ZM792.839 10.4C794.389 10.4 795.537 10.8107 796.283 11.632C797.049 12.4533 797.431 13.6573 797.431 15.244V17.792C797.431 19.3787 797.049 20.5827 796.283 21.404C795.537 22.2253 794.389 22.636 792.839 22.636H791.383V30H788.303V10.4H792.839ZM791.383 13.2V19.836H792.839C793.325 19.836 793.698 19.7053 793.959 19.444C794.221 19.1827 794.351 18.6973 794.351 17.988V15.048C794.351 14.3387 794.221 13.8533 793.959 13.592C793.698 13.3307 793.325 13.2 792.839 13.2H791.383ZM809.106 30H805.998L805.466 26.444H801.686L801.154 30H798.326L801.462 10.4H805.97L809.106 30ZM802.078 23.784H805.046L803.562 13.872L802.078 23.784ZM810.848 30V10.4H819.472V13.2H813.928V18.212H815.72C817.27 18.212 818.427 18.6227 819.192 19.444C819.976 20.2653 820.368 21.4693 820.368 23.056V25.156C820.368 26.7427 819.976 27.9467 819.192 28.768C818.427 29.5893 817.27 30 815.72 30H810.848ZM815.72 27.2C816.206 27.2 816.588 27.0693 816.868 26.808C817.148 26.5467 817.288 26.0613 817.288 25.352V22.86C817.288 22.1507 817.148 21.6653 816.868 21.404C816.588 21.1427 816.206 21.012 815.72 21.012H813.928V27.2H815.72ZM825.549 25.492C825.549 26.2013 825.689 26.7053 825.969 27.004C826.268 27.284 826.66 27.424 827.145 27.424C827.631 27.424 828.013 27.284 828.293 27.004C828.592 26.7053 828.741 26.2013 828.741 25.492V14.908C828.741 14.1987 828.592 13.704 828.293 13.424C828.013 13.1253 827.631 12.976 827.145 12.976C826.66 12.976 826.268 13.1253 825.969 13.424C825.689 13.704 825.549 14.1987 825.549 14.908V25.492ZM822.469 15.104C822.469 13.5173 822.871 12.304 823.673 11.464C824.476 10.6053 825.633 10.176 827.145 10.176C828.657 10.176 829.815 10.6053 830.617 11.464C831.42 12.304 831.821 13.5173 831.821 15.104V25.296C831.821 26.8827 831.42 28.1053 830.617 28.964C829.815 29.804 828.657 30.224 827.145 30.224C825.633 30.224 824.476 29.804 823.673 28.964C822.871 28.1053 822.469 26.8827 822.469 25.296V15.104ZM843.455 10.4V30H840.375V22.104C840.039 22.4773 839.619 22.7573 839.115 22.944C838.63 23.112 838.172 23.196 837.743 23.196C836.474 23.196 835.512 22.7853 834.859 21.964C834.224 21.124 833.907 20.032 833.907 18.688V10.4H836.987V18.436C836.987 19.0893 837.164 19.5747 837.519 19.892C837.874 20.2093 838.294 20.368 838.779 20.368C839.264 20.368 839.647 20.2 839.927 19.864C840.226 19.5093 840.375 19.0053 840.375 18.352V10.4H843.455ZM849.168 30H846.004V10.4H848.748V22.804L849.868 18.492L852.388 10.4H855.776V30H853.004V16.196L851.744 21.012L849.168 30ZM868.509 10.4L865.289 19.92L868.733 30H865.485L862.965 22.244L860.417 30H857.533L860.977 19.92L857.757 10.4H860.949L863.273 17.624L865.653 10.4H868.509ZM884.076 32.632V30H877.496V32.632H874.5V27.256H875.704C875.966 26.92 876.143 26.556 876.236 26.164C876.348 25.772 876.423 25.2867 876.46 24.708L877.16 10.4H885.784V27.256H887.128V32.632H884.076ZM879.484 24.652C879.447 25.3987 879.354 25.9587 879.204 26.332C879.074 26.7053 878.878 27.0133 878.616 27.256H882.648V13.2H880.044L879.484 24.652ZM892.204 30H889.124V10.4H892.204V18.8H895.704V10.4H898.84V30H895.704V21.6H892.204V30ZM904.433 18.66H908.661V21.46H904.433V27.2H909.753V30H901.353V10.4H909.753V13.2H904.433V18.66ZM915.106 30H911.942V10.4H914.686V22.804L915.806 18.492L918.326 10.4H921.714V30H918.942V16.196L917.682 21.012L915.106 30ZM920.146 6.032C920.146 6.984 919.875 7.74 919.334 8.3C918.793 8.86 917.971 9.14 916.87 9.14C915.787 9.14 914.985 8.86 914.462 8.3C913.958 7.74 913.687 6.984 913.65 6.032H915.554C915.591 6.55466 915.713 6.9 915.918 7.068C916.142 7.236 916.459 7.32 916.87 7.32C917.299 7.32 917.626 7.236 917.85 7.068C918.093 6.9 918.233 6.55466 918.27 6.032H920.146Z" fill="#EA4C14"/>
<path d="M729.066 52.692V55.296C729.066 56.8827 728.674 58.1053 727.89 58.964C727.124 59.804 725.986 60.224 724.474 60.224C722.962 60.224 721.814 59.804 721.03 58.964C720.264 58.1053 719.882 56.8827 719.882 55.296V45.104C719.882 43.5173 720.264 42.304 721.03 41.464C721.814 40.6053 722.962 40.176 724.474 40.176C725.986 40.176 727.124 40.6053 727.89 41.464C728.674 42.304 729.066 43.5173 729.066 45.104V47.008H726.154V44.908C726.154 44.1987 726.004 43.704 725.706 43.424C725.426 43.1253 725.043 42.976 724.558 42.976C724.072 42.976 723.68 43.1253 723.382 43.424C723.102 43.704 722.962 44.1987 722.962 44.908V55.492C722.962 56.2013 723.102 56.696 723.382 56.976C723.68 57.256 724.072 57.396 724.558 57.396C725.043 57.396 725.426 57.256 725.706 56.976C726.004 56.696 726.154 56.2013 726.154 55.492V52.692H729.066ZM735.751 40.4C737.3 40.4 738.448 40.8107 739.195 41.632C739.96 42.4533 740.343 43.6573 740.343 45.244V47.792C740.343 49.3787 739.96 50.5827 739.195 51.404C738.448 52.2253 737.3 52.636 735.751 52.636H734.295V60H731.215V40.4H735.751ZM734.295 43.2V49.836H735.751C736.236 49.836 736.609 49.7053 736.871 49.444C737.132 49.1827 737.263 48.6973 737.263 47.988V45.048C737.263 44.3387 737.132 43.8533 736.871 43.592C736.609 43.3307 736.236 43.2 735.751 43.2H734.295ZM745.129 48.66H749.357V51.46H745.129V57.2H750.449V60H742.049V40.4H750.449V43.2H745.129V48.66ZM761.542 62.632V60H754.962V62.632H751.966V57.256H753.17C753.431 56.92 753.608 56.556 753.702 56.164C753.814 55.772 753.888 55.2867 753.926 54.708L754.626 40.4H763.25V57.256H764.594V62.632H761.542ZM756.95 54.652C756.912 55.3987 756.819 55.9587 756.67 56.332C756.539 56.7053 756.343 57.0133 756.082 57.256H760.114V43.2H757.51L756.95 54.652ZM769.67 60H766.59V40.4H769.67V48.8H773.17V40.4H776.306V60H773.17V51.6H769.67V60ZM781.983 60H778.819V40.4H781.563V52.804L782.683 48.492L785.203 40.4H788.591V60H785.819V46.196L784.559 51.012L781.983 60ZM794.212 60H791.048V40.4H793.792V52.804L794.912 48.492L797.432 40.4H800.82V60H798.048V46.196L796.788 51.012L794.212 60ZM799.252 36.032C799.252 36.984 798.981 37.74 798.44 38.3C797.899 38.86 797.077 39.14 795.976 39.14C794.893 39.14 794.091 38.86 793.568 38.3C793.064 37.74 792.793 36.984 792.756 36.032H794.66C794.697 36.5547 794.819 36.9 795.024 37.068C795.248 37.236 795.565 37.32 795.976 37.32C796.405 37.32 796.732 37.236 796.956 37.068C797.199 36.9 797.339 36.5547 797.376 36.032H799.252ZM816.892 52.692V55.296C816.892 56.8827 816.5 58.1053 815.716 58.964C814.95 59.804 813.812 60.224 812.3 60.224C810.788 60.224 809.64 59.804 808.856 58.964C808.09 58.1053 807.708 56.8827 807.708 55.296V45.104C807.708 43.5173 808.09 42.304 808.856 41.464C809.64 40.6053 810.788 40.176 812.3 40.176C813.812 40.176 814.95 40.6053 815.716 41.464C816.5 42.304 816.892 43.5173 816.892 45.104V47.008H813.98V44.908C813.98 44.1987 813.83 43.704 813.532 43.424C813.252 43.1253 812.869 42.976 812.384 42.976C811.898 42.976 811.506 43.1253 811.208 43.424C810.928 43.704 810.788 44.1987 810.788 44.908V55.492C810.788 56.2013 810.928 56.696 811.208 56.976C811.506 57.256 811.898 57.396 812.384 57.396C812.869 57.396 813.252 57.256 813.532 56.976C813.83 56.696 813.98 56.2013 813.98 55.492V52.692H816.892ZM823.576 40.4C825.126 40.4 826.274 40.8107 827.02 41.632C827.786 42.4533 828.168 43.6573 828.168 45.244V47.792C828.168 49.3787 827.786 50.5827 827.02 51.404C826.274 52.2253 825.126 52.636 823.576 52.636H822.12V60H819.04V40.4H823.576ZM822.12 43.2V49.836H823.576C824.062 49.836 824.435 49.7053 824.696 49.444C824.958 49.1827 825.088 48.6973 825.088 47.988V45.048C825.088 44.3387 824.958 43.8533 824.696 43.592C824.435 43.3307 824.062 43.2 823.576 43.2H822.12ZM832.703 55.492C832.703 56.2013 832.843 56.7053 833.123 57.004C833.422 57.284 833.814 57.424 834.299 57.424C834.784 57.424 835.167 57.284 835.447 57.004C835.746 56.7053 835.895 56.2013 835.895 55.492V44.908C835.895 44.1987 835.746 43.704 835.447 43.424C835.167 43.1253 834.784 42.976 834.299 42.976C833.814 42.976 833.422 43.1253 833.123 43.424C832.843 43.704 832.703 44.1987 832.703 44.908V55.492ZM829.623 45.104C829.623 43.5173 830.024 42.304 830.827 41.464C831.63 40.6053 832.787 40.176 834.299 40.176C835.811 40.176 836.968 40.6053 837.771 41.464C838.574 42.304 838.975 43.5173 838.975 45.104V55.296C838.975 56.8827 838.574 58.1053 837.771 58.964C836.968 59.804 835.811 60.224 834.299 60.224C832.787 60.224 831.63 59.804 830.827 58.964C830.024 58.1053 829.623 56.8827 829.623 55.296V45.104ZM845.289 52.188L844.337 53.98V60H841.257V40.4H844.337V48.94L848.369 40.4H851.449L847.165 49.136L851.449 60H848.285L845.289 52.188ZM860.922 60H857.758V40.4H860.502V52.804L861.622 48.492L864.142 40.4H867.53V60H864.758V46.196L863.498 51.012L860.922 60ZM878.919 52.692V55.296C878.919 56.8827 878.527 58.1053 877.743 58.964C876.978 59.804 875.839 60.224 874.327 60.224C872.815 60.224 871.667 59.804 870.883 58.964C870.118 58.1053 869.735 56.8827 869.735 55.296V45.104C869.735 43.5173 870.118 42.304 870.883 41.464C871.667 40.6053 872.815 40.176 874.327 40.176C875.839 40.176 876.978 40.6053 877.743 41.464C878.527 42.304 878.919 43.5173 878.919 45.104V47.008H876.007V44.908C876.007 44.1987 875.858 43.704 875.559 43.424C875.279 43.1253 874.897 42.976 874.411 42.976C873.926 42.976 873.534 43.1253 873.235 43.424C872.955 43.704 872.815 44.1987 872.815 44.908V55.492C872.815 56.2013 872.955 56.696 873.235 56.976C873.534 57.256 873.926 57.396 874.411 57.396C874.897 57.396 875.279 57.256 875.559 56.976C875.858 56.696 876.007 56.2013 876.007 55.492V52.692H878.919ZM884.148 60H881.068V40.4H890.784V60H887.648V43.2H884.148V60ZM896.125 55.492C896.125 56.2013 896.265 56.7053 896.545 57.004C896.844 57.284 897.236 57.424 897.721 57.424C898.207 57.424 898.589 57.284 898.869 57.004C899.168 56.7053 899.317 56.2013 899.317 55.492V44.908C899.317 44.1987 899.168 43.704 898.869 43.424C898.589 43.1253 898.207 42.976 897.721 42.976C897.236 42.976 896.844 43.1253 896.545 43.424C896.265 43.704 896.125 44.1987 896.125 44.908V55.492ZM893.045 45.104C893.045 43.5173 893.447 42.304 894.249 41.464C895.052 40.6053 896.209 40.176 897.721 40.176C899.233 40.176 900.391 40.6053 901.193 41.464C901.996 42.304 902.397 43.5173 902.397 45.104V55.296C902.397 56.8827 901.996 58.1053 901.193 58.964C900.391 59.804 899.233 60.224 897.721 60.224C896.209 60.224 895.052 59.804 894.249 58.964C893.447 58.1053 893.045 56.8827 893.045 55.296V45.104ZM903.811 57.228C904.166 57.228 904.455 57.2093 904.679 57.172C904.922 57.1347 905.118 57.0507 905.267 56.92C905.416 56.7707 905.519 56.5653 905.575 56.304C905.65 56.024 905.696 55.66 905.715 55.212L906.219 40.4H914.927V60H911.791V43.2H909.103L908.767 55.044C908.711 56.836 908.328 58.1147 907.619 58.88C906.928 59.6453 905.818 60.028 904.287 60.028H903.811V57.228ZM920.644 60H917.564V40.4H920.644V48.8H924.144V40.4H927.28V60H924.144V51.6H920.644V60ZM932.874 48.66H937.102V51.46H932.874V57.2H938.194V60H929.794V40.4H938.194V43.2H932.874V48.66ZM943.462 60H940.382V40.4H943.462V48.8H946.962V40.4H950.098V60H946.962V51.6H943.462V60ZM955.775 60H952.611V40.4H955.355V52.804L956.475 48.492L958.995 40.4H962.383V60H959.611V46.196L958.351 51.012L955.775 60ZM964.281 60C964.43 59.6267 964.523 59.2627 964.561 58.908C964.598 58.5347 964.617 58.1053 964.617 57.62V54.596C964.617 53.5693 964.757 52.7013 965.037 51.992C965.335 51.264 965.877 50.7413 966.661 50.424C965.317 49.7893 964.645 48.464 964.645 46.448V44.908C964.645 43.396 964.999 42.2667 965.709 41.52C966.437 40.7733 967.603 40.4 969.209 40.4H973.857V60H970.777V52.02H969.713C969.003 52.02 968.49 52.2067 968.173 52.58C967.855 52.9533 967.697 53.5973 967.697 54.512V57.592C967.697 57.984 967.687 58.3107 967.669 58.572C967.669 58.8333 967.65 59.048 967.613 59.216C967.594 59.384 967.566 59.524 967.529 59.636C967.491 59.748 967.454 59.8693 967.417 60H964.281ZM969.293 43.2C968.751 43.2 968.35 43.3587 968.089 43.676C967.846 43.9933 967.725 44.5067 967.725 45.216V47.148C967.725 47.932 967.883 48.4733 968.201 48.772C968.537 49.0707 968.994 49.22 969.573 49.22H970.777V43.2H969.293Z" fill="#EFEFEF"/>
<path d="M1050.36 30V10.4H1058.98V13.2H1053.44V18.212H1055.23C1056.78 18.212 1057.94 18.6227 1058.7 19.444C1059.49 20.2653 1059.88 21.4693 1059.88 23.056V25.156C1059.88 26.7427 1059.49 27.9467 1058.7 28.768C1057.94 29.5893 1056.78 30 1055.23 30H1050.36ZM1055.23 27.2C1055.72 27.2 1056.1 27.0693 1056.38 26.808C1056.66 26.5467 1056.8 26.0613 1056.8 25.352V22.86C1056.8 22.1507 1056.66 21.6653 1056.38 21.404C1056.1 21.1427 1055.72 21.012 1055.23 21.012H1053.44V27.2H1055.23ZM1065.31 18.66H1069.54V21.46H1065.31V27.2H1070.63V30H1062.23V10.4H1070.63V13.2H1065.31V18.66ZM1081.75 22.692V25.296C1081.75 26.8827 1081.36 28.1053 1080.58 28.964C1079.81 29.804 1078.67 30.224 1077.16 30.224C1075.65 30.224 1074.5 29.804 1073.72 28.964C1072.95 28.1053 1072.57 26.8827 1072.57 25.296V15.104C1072.57 13.5173 1072.95 12.304 1073.72 11.464C1074.5 10.6053 1075.65 10.176 1077.16 10.176C1078.67 10.176 1079.81 10.6053 1080.58 11.464C1081.36 12.304 1081.75 13.5173 1081.75 15.104V17.008H1078.84V14.908C1078.84 14.1987 1078.69 13.704 1078.39 13.424C1078.11 13.1253 1077.73 12.976 1077.24 12.976C1076.76 12.976 1076.37 13.1253 1076.07 13.424C1075.79 13.704 1075.65 14.1987 1075.65 14.908V25.492C1075.65 26.2013 1075.79 26.696 1076.07 26.976C1076.37 27.256 1076.76 27.396 1077.24 27.396C1077.73 27.396 1078.11 27.256 1078.39 26.976C1078.69 26.696 1078.84 26.2013 1078.84 25.492V22.692H1081.75ZM1086.98 30H1083.9V10.4H1093.62V30H1090.48V13.2H1086.98V30ZM1095.26 27.228C1095.62 27.228 1095.91 27.2093 1096.13 27.172C1096.37 27.1347 1096.57 27.0507 1096.72 26.92C1096.87 26.7707 1096.97 26.5653 1097.03 26.304C1097.1 26.024 1097.15 25.66 1097.17 25.212L1097.67 10.4H1106.38V30H1103.24V13.2H1100.55L1100.22 25.044C1100.16 26.836 1099.78 28.1147 1099.07 28.88C1098.38 29.6453 1097.27 30.028 1095.74 30.028H1095.26V27.228ZM1118.98 30H1115.88L1115.34 26.444H1111.56L1111.03 30H1108.2L1111.34 10.4H1115.85L1118.98 30ZM1111.96 23.784H1114.92L1113.44 13.872L1111.96 23.784ZM1119.8 10.4H1129.32V13.2H1126.1V30H1123.02V13.2H1119.8V10.4ZM1134.04 30H1130.96V10.4H1134.04V18.8H1137.54V10.4H1140.67V30H1137.54V21.6H1134.04V30ZM1153.16 30H1150.05L1149.52 26.444H1145.74L1145.2 30H1142.38L1145.51 10.4H1150.02L1153.16 30ZM1146.13 23.784H1149.1L1147.61 13.872L1146.13 23.784ZM1154.31 30C1154.46 29.6267 1154.55 29.2627 1154.59 28.908C1154.63 28.5347 1154.65 28.1053 1154.65 27.62V24.596C1154.65 23.5693 1154.79 22.7013 1155.07 21.992C1155.37 21.264 1155.91 20.7413 1156.69 20.424C1155.35 19.7893 1154.67 18.464 1154.67 16.448V14.908C1154.67 13.396 1155.03 12.2667 1155.74 11.52C1156.47 10.7733 1157.63 10.4 1159.24 10.4H1163.89V30H1160.81V22.02H1159.74C1159.03 22.02 1158.52 22.2067 1158.2 22.58C1157.89 22.9533 1157.73 23.5973 1157.73 24.512V27.592C1157.73 27.984 1157.72 28.3107 1157.7 28.572C1157.7 28.8333 1157.68 29.048 1157.64 29.216C1157.62 29.384 1157.6 29.524 1157.56 29.636C1157.52 29.748 1157.48 29.8693 1157.45 30H1154.31ZM1159.32 13.2C1158.78 13.2 1158.38 13.3587 1158.12 13.676C1157.88 13.9933 1157.75 14.5067 1157.75 15.216V17.148C1157.75 17.932 1157.91 18.4733 1158.23 18.772C1158.57 19.0707 1159.02 19.22 1159.6 19.22H1160.81V13.2H1159.32ZM1175.08 22.188L1174.12 23.98V30H1171.04V10.4H1174.12V18.94L1178.16 10.4H1181.24L1176.95 19.136L1181.24 30H1178.07L1175.08 22.188ZM1185.75 25.492C1185.75 26.2013 1185.89 26.7053 1186.17 27.004C1186.46 27.284 1186.86 27.424 1187.34 27.424C1187.83 27.424 1188.21 27.284 1188.49 27.004C1188.79 26.7053 1188.94 26.2013 1188.94 25.492V14.908C1188.94 14.1987 1188.79 13.704 1188.49 13.424C1188.21 13.1253 1187.83 12.976 1187.34 12.976C1186.86 12.976 1186.46 13.1253 1186.17 13.424C1185.89 13.704 1185.75 14.1987 1185.75 14.908V25.492ZM1182.67 15.104C1182.67 13.5173 1183.07 12.304 1183.87 11.464C1184.67 10.6053 1185.83 10.176 1187.34 10.176C1188.85 10.176 1190.01 10.6053 1190.81 11.464C1191.62 12.304 1192.02 13.5173 1192.02 15.104V25.296C1192.02 26.8827 1191.62 28.1053 1190.81 28.964C1190.01 29.804 1188.85 30.224 1187.34 30.224C1185.83 30.224 1184.67 29.804 1183.87 28.964C1183.07 28.1053 1182.67 26.8827 1182.67 25.296V15.104ZM1197.38 30H1194.3V10.4H1197.38V18.8H1200.88V10.4H1204.02V30H1200.88V21.6H1197.38V30ZM1215.46 22.692V25.296C1215.46 26.8827 1215.07 28.1053 1214.28 28.964C1213.52 29.804 1212.38 30.224 1210.87 30.224C1209.36 30.224 1208.21 29.804 1207.42 28.964C1206.66 28.1053 1206.28 26.8827 1206.28 25.296V15.104C1206.28 13.5173 1206.66 12.304 1207.42 11.464C1208.21 10.6053 1209.36 10.176 1210.87 10.176C1212.38 10.176 1213.52 10.6053 1214.28 11.464C1215.07 12.304 1215.46 13.5173 1215.46 15.104V17.008H1212.55V14.908C1212.55 14.1987 1212.4 13.704 1212.1 13.424C1211.82 13.1253 1211.44 12.976 1210.95 12.976C1210.47 12.976 1210.08 13.1253 1209.78 13.424C1209.5 13.704 1209.36 14.1987 1209.36 14.908V25.492C1209.36 26.2013 1209.5 26.696 1209.78 26.976C1210.08 27.256 1210.47 27.396 1210.95 27.396C1211.44 27.396 1211.82 27.256 1212.1 26.976C1212.4 26.696 1212.55 26.2013 1212.55 25.492V22.692H1215.46ZM1224.44 25.016C1224.25 25.8933 1224.02 26.668 1223.74 27.34C1223.48 27.9933 1223.12 28.5347 1222.65 28.964C1222.2 29.3747 1221.61 29.6733 1220.89 29.86C1220.18 30.0467 1219.29 30.1027 1218.23 30.028V27.284C1219.01 27.34 1219.63 27.2653 1220.07 27.06C1220.52 26.8547 1220.81 26.3973 1220.94 25.688L1220.97 25.52L1216.71 10.4H1219.77L1221.45 17.092L1222.4 21.684L1223.13 17.12L1224.53 10.4H1227.75L1224.44 25.016ZM1228.45 27.228C1228.81 27.228 1229.09 27.2093 1229.32 27.172C1229.56 27.1347 1229.76 27.0507 1229.91 26.92C1230.06 26.7707 1230.16 26.5653 1230.21 26.304C1230.29 26.024 1230.34 25.66 1230.35 25.212L1230.86 10.4H1239.57V30H1236.43V13.2H1233.74L1233.41 25.044C1233.35 26.836 1232.97 28.1147 1232.26 28.88C1231.57 29.6453 1230.46 30.028 1228.93 30.028H1228.45V27.228ZM1242.2 30V10.4H1245.28V17.764H1246.74C1248.29 17.764 1249.44 18.1747 1250.18 18.996C1250.95 19.8173 1251.33 21.0213 1251.33 22.608V25.156C1251.33 26.7427 1250.95 27.9467 1250.18 28.768C1249.44 29.5893 1248.29 30 1246.74 30H1242.2ZM1246.74 27.2C1247.23 27.2 1247.6 27.0693 1247.86 26.808C1248.12 26.5467 1248.25 26.0613 1248.25 25.352V22.412C1248.25 21.7027 1248.12 21.2173 1247.86 20.956C1247.6 20.6947 1247.23 20.564 1246.74 20.564H1245.28V27.2H1246.74ZM1252.55 10.4H1262.07V13.2H1258.85V30H1255.77V13.2H1252.55V10.4ZM1273.68 30H1270.57L1270.04 26.444H1266.26L1265.73 30H1262.9L1266.03 10.4H1270.54L1273.68 30ZM1266.65 23.784H1269.62L1268.13 13.872L1266.65 23.784ZM1275.39 10.4H1278.47V27.2H1281.97V10.4H1285.11V27.256H1286.45V32.632H1283.46V30H1275.39V10.4ZM1291.58 30H1288.41V10.4H1291.16V22.804L1292.28 18.492L1294.8 10.4H1298.19V30H1295.41V16.196L1294.15 21.012L1291.58 30ZM1300.08 30C1300.23 29.6267 1300.33 29.2627 1300.36 28.908C1300.4 28.5347 1300.42 28.1053 1300.42 27.62V24.596C1300.42 23.5693 1300.56 22.7013 1300.84 21.992C1301.14 21.264 1301.68 20.7413 1302.46 20.424C1301.12 19.7893 1300.45 18.464 1300.45 16.448V14.908C1300.45 13.396 1300.8 12.2667 1301.51 11.52C1302.24 10.7733 1303.41 10.4 1305.01 10.4H1309.66V30H1306.58V22.02H1305.52C1304.81 22.02 1304.29 22.2067 1303.98 22.58C1303.66 22.9533 1303.5 23.5973 1303.5 24.512V27.592C1303.5 27.984 1303.49 28.3107 1303.47 28.572C1303.47 28.8333 1303.45 29.048 1303.42 29.216C1303.4 29.384 1303.37 29.524 1303.33 29.636C1303.29 29.748 1303.26 29.8693 1303.22 30H1300.08ZM1305.1 13.2C1304.55 13.2 1304.15 13.3587 1303.89 13.676C1303.65 13.9933 1303.53 14.5067 1303.53 15.216V17.148C1303.53 17.932 1303.69 18.4733 1304 18.772C1304.34 19.0707 1304.8 19.22 1305.38 19.22H1306.58V13.2H1305.1Z" fill="#EA4C14"/>
<path d="M1083.19 60H1080.11V40.4H1089.83V60H1086.69V43.2H1083.19V60ZM1095.17 55.492C1095.17 56.2013 1095.31 56.7053 1095.59 57.004C1095.89 57.284 1096.28 57.424 1096.77 57.424C1097.25 57.424 1097.64 57.284 1097.92 57.004C1098.21 56.7053 1098.36 56.2013 1098.36 55.492V44.908C1098.36 44.1987 1098.21 43.704 1097.92 43.424C1097.64 43.1253 1097.25 42.976 1096.77 42.976C1096.28 42.976 1095.89 43.1253 1095.59 43.424C1095.31 43.704 1095.17 44.1987 1095.17 44.908V55.492ZM1092.09 45.104C1092.09 43.5173 1092.49 42.304 1093.3 41.464C1094.1 40.6053 1095.26 40.176 1096.77 40.176C1098.28 40.176 1099.44 40.6053 1100.24 41.464C1101.04 42.304 1101.44 43.5173 1101.44 45.104V55.296C1101.44 56.8827 1101.04 58.1053 1100.24 58.964C1099.44 59.804 1098.28 60.224 1096.77 60.224C1095.26 60.224 1094.1 59.804 1093.3 58.964C1092.49 58.1053 1092.09 56.8827 1092.09 55.296V45.104ZM1107.48 57.228C1107.84 57.228 1108.13 57.2093 1108.35 57.172C1108.6 57.1347 1108.79 57.0507 1108.94 56.92C1109.09 56.7707 1109.19 56.5653 1109.25 56.304C1109.32 56.024 1109.37 55.66 1109.39 55.212L1109.89 40.4H1118.6V60H1115.46V43.2H1112.78L1112.44 55.044C1112.38 56.836 1112 58.1147 1111.29 58.88C1110.6 59.6453 1109.49 60.028 1107.96 60.028H1107.48V57.228ZM1126.61 51.6H1124.32V60H1121.24V40.4H1124.32V48.8H1126.61V45.104C1126.61 43.5173 1127.02 42.304 1127.82 41.464C1128.62 40.6053 1129.78 40.176 1131.29 40.176C1132.8 40.176 1133.96 40.6053 1134.76 41.464C1135.56 42.304 1135.97 43.5173 1135.97 45.104V55.296C1135.97 56.8827 1135.56 58.1053 1134.76 58.964C1133.96 59.804 1132.8 60.224 1131.29 60.224C1129.78 60.224 1128.62 59.804 1127.82 58.964C1127.02 58.1053 1126.61 56.8827 1126.61 55.296V51.6ZM1129.69 55.492C1129.69 56.2013 1129.83 56.7053 1130.11 57.004C1130.41 57.284 1130.8 57.424 1131.29 57.424C1131.78 57.424 1132.16 57.284 1132.44 57.004C1132.74 56.7053 1132.89 56.2013 1132.89 55.492V44.908C1132.89 44.1987 1132.74 43.704 1132.44 43.424C1132.16 43.1253 1131.78 42.976 1131.29 42.976C1130.8 42.976 1130.41 43.1253 1130.11 43.424C1129.83 43.704 1129.69 44.1987 1129.69 44.908V55.492ZM1138.31 60V40.4H1146.93V43.2H1141.39V48.212H1143.18C1144.73 48.212 1145.89 48.6227 1146.65 49.444C1147.44 50.2653 1147.83 51.4693 1147.83 53.056V55.156C1147.83 56.7427 1147.44 57.9467 1146.65 58.768C1145.89 59.5893 1144.73 60 1143.18 60H1138.31ZM1143.18 57.2C1143.67 57.2 1144.05 57.0693 1144.33 56.808C1144.61 56.5467 1144.75 56.0613 1144.75 55.352V52.86C1144.75 52.1507 1144.61 51.6653 1144.33 51.404C1144.05 51.1427 1143.67 51.012 1143.18 51.012H1141.39V57.2H1143.18ZM1150.18 60V40.4H1153.26V47.764H1154.72C1156.27 47.764 1157.41 48.1747 1158.16 48.996C1158.93 49.8173 1159.31 51.0213 1159.31 52.608V55.156C1159.31 56.7427 1158.93 57.9467 1158.16 58.768C1157.41 59.5893 1156.27 60 1154.72 60H1150.18ZM1154.72 57.2C1155.2 57.2 1155.58 57.0693 1155.84 56.808C1156.1 56.5467 1156.23 56.0613 1156.23 55.352V52.412C1156.23 51.7027 1156.1 51.2173 1155.84 50.956C1155.58 50.6947 1155.2 50.564 1154.72 50.564H1153.26V57.2H1154.72ZM1161.07 60V40.4H1164.15V60H1161.07ZM1173.2 54.316L1175.3 40.4H1179.58V60H1176.67V45.944L1174.54 60H1171.63L1169.34 46.14V60H1166.65V40.4H1170.93L1173.2 54.316ZM1191.38 40.4C1192.99 40.4 1194.14 40.7733 1194.85 41.52C1195.58 42.2667 1195.94 43.396 1195.94 44.908V45.608C1195.94 46.616 1195.79 47.4467 1195.47 48.1C1195.15 48.7533 1194.65 49.2387 1193.96 49.556C1194.8 49.8733 1195.38 50.396 1195.72 51.124C1196.07 51.8333 1196.25 52.7107 1196.25 53.756V55.352C1196.25 56.864 1195.86 58.0213 1195.08 58.824C1194.29 59.608 1193.13 60 1191.58 60H1186.73V40.4H1191.38ZM1189.81 51.18V57.2H1191.58C1192.1 57.2 1192.49 57.06 1192.75 56.78C1193.03 56.5 1193.17 55.996 1193.17 55.268V53.56C1193.17 52.6453 1193.01 52.02 1192.7 51.684C1192.4 51.348 1191.89 51.18 1191.18 51.18H1189.81ZM1189.81 43.2V48.38H1191.02C1191.59 48.38 1192.04 48.2307 1192.36 47.932C1192.7 47.6333 1192.86 47.092 1192.86 46.308V45.216C1192.86 44.5067 1192.73 43.9933 1192.47 43.676C1192.23 43.3587 1191.84 43.2 1191.3 43.2H1189.81ZM1201.22 55.492C1201.22 56.2013 1201.36 56.7053 1201.64 57.004C1201.93 57.284 1202.33 57.424 1202.81 57.424C1203.3 57.424 1203.68 57.284 1203.96 57.004C1204.26 56.7053 1204.41 56.2013 1204.41 55.492V44.908C1204.41 44.1987 1204.26 43.704 1203.96 43.424C1203.68 43.1253 1203.3 42.976 1202.81 42.976C1202.33 42.976 1201.93 43.1253 1201.64 43.424C1201.36 43.704 1201.22 44.1987 1201.22 44.908V55.492ZM1198.14 45.104C1198.14 43.5173 1198.54 42.304 1199.34 41.464C1200.14 40.6053 1201.3 40.176 1202.81 40.176C1204.32 40.176 1205.48 40.6053 1206.28 41.464C1207.09 42.304 1207.49 43.5173 1207.49 45.104V55.296C1207.49 56.8827 1207.09 58.1053 1206.28 58.964C1205.48 59.804 1204.32 60.224 1202.81 60.224C1201.3 60.224 1200.14 59.804 1199.34 58.964C1198.54 58.1053 1198.14 56.8827 1198.14 55.296V45.104ZM1212.85 60H1209.77V40.4H1219.48V60H1216.35V43.2H1212.85V60ZM1226.53 40.4C1228.08 40.4 1229.23 40.8107 1229.98 41.632C1230.74 42.4533 1231.13 43.6573 1231.13 45.244V47.792C1231.13 49.3787 1230.74 50.5827 1229.98 51.404C1229.23 52.2253 1228.08 52.636 1226.53 52.636H1225.08V60H1222V40.4H1226.53ZM1225.08 43.2V49.836H1226.53C1227.02 49.836 1227.39 49.7053 1227.65 49.444C1227.92 49.1827 1228.05 48.6973 1228.05 47.988V45.048C1228.05 44.3387 1227.92 43.8533 1227.65 43.592C1227.39 43.3307 1227.02 43.2 1226.53 43.2H1225.08ZM1235.66 55.492C1235.66 56.2013 1235.8 56.7053 1236.08 57.004C1236.38 57.284 1236.77 57.424 1237.26 57.424C1237.74 57.424 1238.12 57.284 1238.4 57.004C1238.7 56.7053 1238.85 56.2013 1238.85 55.492V44.908C1238.85 44.1987 1238.7 43.704 1238.4 43.424C1238.12 43.1253 1237.74 42.976 1237.26 42.976C1236.77 42.976 1236.38 43.1253 1236.08 43.424C1235.8 43.704 1235.66 44.1987 1235.66 44.908V55.492ZM1232.58 45.104C1232.58 43.5173 1232.98 42.304 1233.78 41.464C1234.59 40.6053 1235.74 40.176 1237.26 40.176C1238.77 40.176 1239.93 40.6053 1240.73 41.464C1241.53 42.304 1241.93 43.5173 1241.93 45.104V55.296C1241.93 56.8827 1241.53 58.1053 1240.73 58.964C1239.93 59.804 1238.77 60.224 1237.26 60.224C1235.74 60.224 1234.59 59.804 1233.78 58.964C1232.98 58.1053 1232.58 56.8827 1232.58 55.296V45.104ZM1253.15 52.692V55.296C1253.15 56.8827 1252.75 58.1053 1251.97 58.964C1251.2 59.804 1250.07 60.224 1248.55 60.224C1247.04 60.224 1245.89 59.804 1245.11 58.964C1244.34 58.1053 1243.96 56.8827 1243.96 55.296V45.104C1243.96 43.5173 1244.34 42.304 1245.11 41.464C1245.89 40.6053 1247.04 40.176 1248.55 40.176C1250.07 40.176 1251.2 40.6053 1251.97 41.464C1252.75 42.304 1253.15 43.5173 1253.15 45.104V47.008H1250.23V44.908C1250.23 44.1987 1250.08 43.704 1249.79 43.424C1249.51 43.1253 1249.12 42.976 1248.64 42.976C1248.15 42.976 1247.76 43.1253 1247.46 43.424C1247.18 43.704 1247.04 44.1987 1247.04 44.908V55.492C1247.04 56.2013 1247.18 56.696 1247.46 56.976C1247.76 57.256 1248.15 57.396 1248.64 57.396C1249.12 57.396 1249.51 57.256 1249.79 56.976C1250.08 56.696 1250.23 56.2013 1250.23 55.492V52.692H1253.15ZM1265.26 60H1262.15L1261.62 56.444H1257.84L1257.31 60H1254.48L1257.62 40.4H1262.13L1265.26 60ZM1258.23 53.784H1261.2L1259.72 43.872L1258.23 53.784ZM1273.5 54.316L1275.6 40.4H1279.89V60H1276.97V45.944L1274.85 60H1271.93L1269.64 46.14V60H1266.95V40.4H1271.23L1273.5 54.316Z" fill="#EFEFEF"/>
<line y1="86.5" x2="1366" y2="86.5" stroke="#9B9B9B"/>
<line x1="15.5" y1="1.68506e-08" x2="15.5" y2="101" stroke="#515151"/>
<line x1="24.0607" y1="78.0607" x2="7.06066" y2="95.0607" stroke="#515151" stroke-width="3"/>
<line x1="348.5" y1="1.68506e-08" x2="348.5" y2="101" stroke="#515151"/>
<line x1="357.061" y1="78.0607" x2="340.061" y2="95.0607" stroke="#515151" stroke-width="3"/>
<line x1="681.5" y1="1.68506e-08" x2="681.5" y2="101" stroke="#515151"/>
<line x1="690.061" y1="78.0607" x2="673.061" y2="95.0607" stroke="#515151" stroke-width="3"/>
<line x1="1014.5" y1="1.68506e-08" x2="1014.5" y2="101" stroke="#515151"/>
<line x1="1023.06" y1="78.0607" x2="1006.06" y2="95.0607" stroke="#515151" stroke-width="3"/>
<line x1="1347.5" y1="1.68506e-08" x2="1347.5" y2="101" stroke="#515151"/>
<line x1="1356.06" y1="78.0607" x2="1339.06" y2="95.0607" stroke="#515151" stroke-width="3"/>
</svg>
