<svg xmlns="http://www.w3.org/2000/svg" width="296" height="256" fill="none"><g opacity=".8"><path stroke="#F5F5F5" stroke-width="9" d="M50.917 28.593a2.5 2.5 0 0 1 2.5-2.5h197.591a2.5 2.5 0 0 1 2.5 2.5v89.721a2.5 2.5 0 0 1-2.5 2.5h-66.254c-.786 0-1.527-.37-2-1L162.45 92.741c-4.6-6.133-13.8-6.133-18.4 0l-20.305 27.073c-.472.63-1.213 1-2 1H53.417a2.5 2.5 0 0 1-2.5-2.5v-89.72ZM54.723 25.642V15c0-5.523 4.477-10 10-10h174.996c5.522 0 10 4.477 10 10v10.642"/><circle cx="103.463" cy="72.419" r="17.282" stroke="#F5F5F5" stroke-width="9"/><circle cx="200.963" cy="72.419" r="17.282" stroke="#F5F5F5" stroke-width="9"/><path stroke="#F5F5F5" stroke-linecap="round" stroke-linejoin="round" stroke-width="9" d="m5 128.276 19.694-2.958 3.975 17.73m56.213 42.096c-47.53-7.544-70.019-22.827-70.019-42.096 0-6.265 3.49-12.248 9.833-17.73m201.213 59.826c43.375-8.05 65.091-23.882 65.091-42.096 0-6.265-3.49-12.248-9.833-17.73"/><path fill="#F5F5F5" d="M122.831 204.116c-2.334 0-4.35-.283-6.05-.85-1.7-.566-3.117-1.3-4.25-2.2-1.1-.933-1.934-1.933-2.5-3-.567-1.1-.867-2.183-.9-3.25 0-.3.1-.533.3-.7.233-.2.5-.3.8-.3h4.5c.333 0 .616.067.85.2.233.134.433.4.6.8.3.9.783 1.617 1.45 2.15.7.534 1.5.917 2.4 1.15.9.2 1.85.3 2.85.3 2 0 3.583-.466 4.75-1.4 1.2-.966 1.8-2.333 1.8-4.1 0-1.766-.55-3.033-1.65-3.8-1.1-.8-2.634-1.2-4.6-1.2h-5.15c-.367 0-.667-.1-.9-.3-.234-.233-.35-.533-.35-.9v-2.1c0-.333.066-.616.2-.85.166-.266.333-.483.5-.65l8.95-8.75h-14.3c-.367 0-.667-.116-.9-.35a1.26 1.26 0 0 1-.3-.85v-3.3c0-.366.1-.666.3-.9.233-.233.533-.35.9-.35h21.45c.366 0 .666.117.9.35.233.234.35.534.35.9v3c0 .3-.067.567-.2.8a2.833 2.833 0 0 1-.45.6l-8.65 8.9.6.05c2.033.167 3.833.634 5.4 1.4 1.6.734 2.833 1.817 3.7 3.25.9 1.434 1.35 3.234 1.35 5.4 0 2.267-.6 4.217-1.8 5.85-1.167 1.6-2.784 2.834-4.85 3.7-2.067.867-4.434 1.3-7.1 1.3Zm32.394 0c-2.867 0-5.334-.533-7.4-1.6-2.067-1.1-3.667-2.566-4.8-4.4-1.134-1.866-1.7-3.95-1.7-6.25 0-1.033.133-2.033.4-3 .266-.966.616-1.883 1.05-2.75.433-.866.85-1.633 1.25-2.3.433-.7.816-1.25 1.15-1.65l9.15-12.55a5.07 5.07 0 0 1 .6-.6c.266-.266.633-.4 1.1-.4h4.65c.3 0 .55.117.75.35.2.2.3.45.3.75a.893.893 0 0 1-.1.4.638.638 0 0 1-.15.25l-7 9.7c.3-.1.65-.166 1.05-.2.4-.033.766-.05 1.1-.05 1.666.034 3.25.367 4.75 1 1.5.6 2.816 1.434 3.95 2.5a11.475 11.475 0 0 1 2.65 3.75c.666 1.434 1 3 1 4.7 0 2.2-.55 4.25-1.65 6.15-1.1 1.867-2.684 3.367-4.75 4.5-2.034 1.134-4.484 1.7-7.35 1.7Zm-.05-5.75c1.2 0 2.3-.25 3.3-.75a6.134 6.134 0 0 0 2.5-2.2c.633-.966.95-2.166.95-3.6 0-1.4-.317-2.583-.95-3.55a6.141 6.141 0 0 0-2.5-2.2c-1-.5-2.1-.75-3.3-.75-1.2 0-2.317.25-3.35.75-1 .5-1.817 1.234-2.45 2.2-.634.967-.95 2.15-.95 3.55 0 1.434.316 2.634.95 3.6.633.967 1.45 1.7 2.45 2.2 1.033.5 2.15.75 3.35.75Zm32.347 5.75c-2.366 0-4.383-.35-6.05-1.05-1.666-.7-3.033-1.666-4.1-2.9a12.456 12.456 0 0 1-2.4-4.25 20.238 20.238 0 0 1-.95-5.2c-.033-.9-.066-1.883-.1-2.95v-3.3c.034-1.1.067-2.116.1-3.05.067-1.833.384-3.55.95-5.15.567-1.633 1.384-3.05 2.45-4.25 1.1-1.2 2.484-2.15 4.15-2.85 1.667-.7 3.65-1.05 5.95-1.05 2.334 0 4.334.35 6 1.05 1.667.7 3.034 1.65 4.1 2.85 1.1 1.2 1.917 2.617 2.45 4.25.567 1.6.884 3.317.95 5.15.067.934.1 1.95.1 3.05v3.3c0 1.067-.033 2.05-.1 2.95-.066 1.834-.366 3.567-.9 5.2a12.423 12.423 0 0 1-2.4 4.25c-1.066 1.234-2.45 2.2-4.15 2.9-1.666.7-3.683 1.05-6.05 1.05Zm0-5.75c2.167 0 3.75-.7 4.75-2.1 1.034-1.433 1.567-3.366 1.6-5.8.067-.966.1-1.933.1-2.9v-3c0-1-.033-1.95-.1-2.85-.033-2.366-.566-4.266-1.6-5.7-1-1.466-2.583-2.2-4.75-2.2-2.133 0-3.716.734-4.75 2.2-1 1.434-1.533 3.334-1.6 5.7 0 .9-.016 1.85-.05 2.85v3c.034.967.05 1.934.05 2.9.067 2.434.617 4.367 1.65 5.8 1.034 1.4 2.6 2.1 4.7 2.1Zm26.962-14.7c-1.467 0-2.817-.333-4.05-1a8.327 8.327 0 0 1-2.9-2.8c-.734-1.2-1.1-2.533-1.1-4 0-1.466.366-2.783 1.1-3.95a7.919 7.919 0 0 1 2.9-2.75c1.233-.7 2.583-1.05 4.05-1.05 1.466 0 2.8.35 4 1.05a7.926 7.926 0 0 1 2.9 2.75c.733 1.167 1.1 2.484 1.1 3.95 0 1.467-.367 2.8-1.1 4a8.335 8.335 0 0 1-2.9 2.8c-1.2.667-2.534 1-4 1Zm0-4c1.133 0 2.05-.35 2.75-1.05.7-.7 1.05-1.616 1.05-2.75 0-1.133-.35-2.05-1.05-2.75-.7-.7-1.617-1.05-2.75-1.05-1.134 0-2.05.35-2.75 1.05-.7.7-1.05 1.617-1.05 2.75 0 1.134.35 2.05 1.05 2.75.7.7 1.616 1.05 2.75 1.05Z"/></g></svg>