<svg width="48" height="36" viewBox="0 0 48 36" fill="none" xmlns="http://www.w3.org/2000/svg">
<path d="M26.5155 15.3155L23.4769 17.0698L23.4769 13.5612L26.5155 15.3155Z" fill="#A5A5A5"/>
<path fill-rule="evenodd" clip-rule="evenodd" d="M27.2655 15.3155C27.2655 15.5834 27.1226 15.831 26.8905 15.965L23.8519 17.7194C23.6199 17.8533 23.334 17.8533 23.1019 17.7194C22.8699 17.5854 22.7269 17.3378 22.7269 17.0698L22.7269 13.5612C22.7269 13.2932 22.8699 13.0456 23.1019 12.9116C23.334 12.7777 23.6199 12.7777 23.8519 12.9116L26.8905 14.666C27.1226 14.8 27.2655 15.0475 27.2655 15.3155ZM24.2269 14.8602L24.2269 15.7708L25.0155 15.3155L24.2269 14.8602Z" fill="#F5F5F5"/>
<path fill-rule="evenodd" clip-rule="evenodd" d="M24.4896 18.9581C26.5011 18.9581 28.1318 17.3274 28.1318 15.3158C28.1318 13.3043 26.5011 11.6736 24.4896 11.6736C22.478 11.6736 20.8473 13.3043 20.8473 15.3158C20.8473 17.3274 22.478 18.9581 24.4896 18.9581ZM24.4896 20.4581C27.3295 20.4581 29.6318 18.1558 29.6318 15.3158C29.6318 12.4759 27.3295 10.1736 24.4896 10.1736C21.6496 10.1736 19.3473 12.4759 19.3473 15.3158C19.3473 18.1558 21.6496 20.4581 24.4896 20.4581Z" fill="#F5F5F5"/>
<path fill-rule="evenodd" clip-rule="evenodd" d="M10.724 31.8394C10.0236 31.8394 9.45584 32.4071 9.45584 33.1076C9.45584 33.808 10.0236 34.3758 10.724 34.3758C11.4244 34.3758 11.9922 33.808 11.9922 33.1076C11.9922 32.4071 11.4244 31.8394 10.724 31.8394ZM7.95584 33.1076C7.95584 31.5787 9.19521 30.3394 10.724 30.3394C12.2529 30.3394 13.4922 31.5787 13.4922 33.1076C13.4922 34.6364 12.2529 35.8758 10.724 35.8758C9.19521 35.8758 7.95584 34.6364 7.95584 33.1076Z" fill="#F5F5F5"/>
<path fill-rule="evenodd" clip-rule="evenodd" d="M0.98407 0.999878C0.98407 0.585664 1.31986 0.249878 1.73407 0.249878H46.8683C47.2826 0.249878 47.6183 0.585664 47.6183 0.999878V28.8877C47.6183 29.3019 47.2826 29.6377 46.8683 29.6377H1.73407C1.31986 29.6377 0.98407 29.3019 0.98407 28.8877V0.999878ZM2.48407 1.74988V28.1377H46.1183V1.74988H2.48407Z" fill="#F5F5F5"/>
<path fill-rule="evenodd" clip-rule="evenodd" d="M8.70584 33.3071C8.70584 33.7213 8.37005 34.0571 7.95584 34.0571H1.74999C1.33578 34.0571 0.999989 33.7213 0.999989 33.3071C0.999989 32.8929 1.33578 32.5571 1.74999 32.5571H7.95584C8.37005 32.5571 8.70584 32.8929 8.70584 33.3071Z" fill="#F5F5F5"/>
<path fill-rule="evenodd" clip-rule="evenodd" d="M47.9854 33.2908C47.9854 33.705 47.6496 34.0408 47.2354 34.0408L13.4764 34.0408C13.0622 34.0408 12.7264 33.705 12.7264 33.2908C12.7264 32.8766 13.0622 32.5408 13.4764 32.5408L47.2354 32.5408C47.6496 32.5408 47.9854 32.8766 47.9854 33.2908Z" fill="#F5F5F5"/>
</svg>
