<svg width="48" height="34" viewBox="0 0 48 34" fill="none" xmlns="http://www.w3.org/2000/svg">
<path d="M33.0593 29.6872C32.7953 29.6872 32.5523 29.6272 32.3303 29.5072C32.1143 29.3812 31.9403 29.2132 31.8083 29.0032C31.6763 28.7872 31.6103 28.5472 31.6103 28.2832C31.6103 28.0192 31.6763 27.7822 31.8083 27.5722C31.9403 27.3622 32.1143 27.1972 32.3303 27.0772C32.5523 26.9512 32.7953 26.8882 33.0593 26.8882C33.3233 26.8882 33.5633 26.9512 33.7793 27.0772C33.9953 27.1972 34.1693 27.3622 34.3013 27.5722C34.4333 27.7822 34.4993 28.0192 34.4993 28.2832C34.4993 28.5472 34.4333 28.7872 34.3013 29.0032C34.1693 29.2132 33.9953 29.3812 33.7793 29.5072C33.5633 29.6272 33.3233 29.6872 33.0593 29.6872ZM33.0593 28.9672C33.2633 28.9672 33.4283 28.9042 33.5543 28.7782C33.6803 28.6522 33.7433 28.4872 33.7433 28.2832C33.7433 28.0792 33.6803 27.9142 33.5543 27.7882C33.4283 27.6622 33.2633 27.5992 33.0593 27.5992C32.8553 27.5992 32.6903 27.6622 32.5643 27.7882C32.4383 27.9142 32.3753 28.0792 32.3753 28.2832C32.3753 28.4872 32.4383 28.6522 32.5643 28.7782C32.6903 28.9042 32.8553 28.9672 33.0593 28.9672Z" fill="#F5F5F5"/>
<path d="M28.2062 33.3682C27.7802 33.3682 27.4172 33.3052 27.1172 33.1792C26.8172 33.0532 26.5712 32.8792 26.3792 32.6572C26.1872 32.4352 26.0432 32.1802 25.9472 31.8922C25.8512 31.5982 25.7942 31.2862 25.7762 30.9562C25.7702 30.7942 25.7642 30.6172 25.7582 30.4252C25.7582 30.2272 25.7582 30.0292 25.7582 29.8312C25.7642 29.6332 25.7702 29.4502 25.7762 29.2822C25.7882 28.9522 25.8452 28.6432 25.9472 28.3552C26.0492 28.0612 26.1962 27.8062 26.3882 27.5902C26.5862 27.3742 26.8352 27.2032 27.1352 27.0772C27.4352 26.9512 27.7922 26.8882 28.2062 26.8882C28.6262 26.8882 28.9862 26.9512 29.2862 27.0772C29.5862 27.2032 29.8322 27.3742 30.0242 27.5902C30.2222 27.8062 30.3692 28.0612 30.4652 28.3552C30.5672 28.6432 30.6242 28.9522 30.6362 29.2822C30.6482 29.4502 30.6542 29.6332 30.6542 29.8312C30.6542 30.0292 30.6542 30.2272 30.6542 30.4252C30.6542 30.6172 30.6482 30.7942 30.6362 30.9562C30.6242 31.2862 30.5702 31.5982 30.4742 31.8922C30.3782 32.1802 30.2342 32.4352 30.0422 32.6572C29.8502 32.8792 29.6012 33.0532 29.2952 33.1792C28.9952 33.3052 28.6322 33.3682 28.2062 33.3682ZM28.2062 32.3332C28.5962 32.3332 28.8812 32.2072 29.0612 31.9552C29.2472 31.6972 29.3432 31.3492 29.3492 30.9112C29.3612 30.7372 29.3672 30.5632 29.3672 30.3892C29.3672 30.2092 29.3672 30.0292 29.3672 29.8492C29.3672 29.6692 29.3612 29.4982 29.3492 29.3362C29.3432 28.9102 29.2472 28.5682 29.0612 28.3102C28.8812 28.0462 28.5962 27.9142 28.2062 27.9142C27.8222 27.9142 27.5372 28.0462 27.3512 28.3102C27.1712 28.5682 27.0752 28.9102 27.0632 29.3362C27.0632 29.4982 27.0602 29.6692 27.0542 29.8492C27.0542 30.0292 27.0542 30.2092 27.0542 30.3892C27.0602 30.5632 27.0632 30.7372 27.0632 30.9112C27.0752 31.3492 27.1742 31.6972 27.3602 31.9552C27.5462 32.2072 27.8282 32.3332 28.2062 32.3332Z" fill="#F5F5F5"/>
<path d="M22.3927 33.3681C21.8767 33.3681 21.4327 33.2721 21.0607 33.0801C20.6887 32.8821 20.4007 32.6181 20.1967 32.2881C19.9927 31.9521 19.8907 31.5771 19.8907 31.1631C19.8907 30.9771 19.9147 30.7971 19.9627 30.6231C20.0107 30.4491 20.0737 30.2841 20.1517 30.1281C20.2297 29.9721 20.3047 29.8341 20.3767 29.7141C20.4547 29.5881 20.5237 29.4891 20.5837 29.4171L22.2307 27.1581C22.2547 27.1281 22.2907 27.0921 22.3387 27.0501C22.3867 27.0021 22.4527 26.9781 22.5367 26.9781H23.3737C23.4277 26.9781 23.4727 26.9991 23.5087 27.0411C23.5447 27.0771 23.5627 27.1221 23.5627 27.1761C23.5627 27.2001 23.5567 27.2241 23.5447 27.2481C23.5387 27.2661 23.5297 27.2811 23.5177 27.2931L22.2577 29.0391C22.3117 29.0211 22.3747 29.0091 22.4467 29.0031C22.5187 28.9971 22.5847 28.9941 22.6447 28.9941C22.9447 29.0001 23.2297 29.0601 23.4997 29.1741C23.7697 29.2821 24.0067 29.4321 24.2107 29.6241C24.4147 29.8161 24.5737 30.0411 24.6877 30.2991C24.8077 30.5571 24.8677 30.8391 24.8677 31.1451C24.8677 31.5411 24.7687 31.9101 24.5707 32.2521C24.3727 32.5881 24.0877 32.8581 23.7157 33.0622C23.3497 33.2662 22.9087 33.3681 22.3927 33.3681ZM22.3837 32.3331C22.5997 32.3331 22.7977 32.2881 22.9777 32.1981C23.1637 32.1081 23.3137 31.9761 23.4277 31.8021C23.5417 31.6281 23.5987 31.4121 23.5987 31.1541C23.5987 30.9021 23.5417 30.6891 23.4277 30.5151C23.3137 30.3411 23.1637 30.2091 22.9777 30.1191C22.7977 30.0291 22.5997 29.9841 22.3837 29.9841C22.1677 29.9841 21.9667 30.0291 21.7807 30.1191C21.6007 30.2091 21.4537 30.3411 21.3397 30.5151C21.2257 30.6891 21.1687 30.9021 21.1687 31.1541C21.1687 31.4121 21.2257 31.6281 21.3397 31.8021C21.4537 31.9761 21.6007 32.1081 21.7807 32.1981C21.9667 32.2881 22.1677 32.3331 22.3837 32.3331Z" fill="#F5F5F5"/>
<path d="M16.5617 33.3681C16.1417 33.3681 15.7787 33.3171 15.4727 33.2151C15.1667 33.1131 14.9117 32.9811 14.7077 32.8191C14.5097 32.6511 14.3597 32.4711 14.2577 32.2791C14.1557 32.0811 14.1017 31.8861 14.0957 31.6941C14.0957 31.6401 14.1137 31.5981 14.1497 31.5681C14.1917 31.5321 14.2397 31.5141 14.2937 31.5141H15.1037C15.1637 31.5141 15.2147 31.5261 15.2567 31.5501C15.2987 31.5741 15.3347 31.6221 15.3647 31.6941C15.4187 31.8561 15.5057 31.9852 15.6257 32.0812C15.7517 32.1772 15.8957 32.2461 16.0577 32.2881C16.2197 32.3241 16.3907 32.3421 16.5707 32.3421C16.9307 32.3421 17.2157 32.2581 17.4257 32.0901C17.6417 31.9161 17.7497 31.6701 17.7497 31.3521C17.7497 31.0341 17.6507 30.8061 17.4527 30.6681C17.2547 30.5241 16.9787 30.4521 16.6247 30.4521H15.6977C15.6317 30.4521 15.5777 30.4341 15.5357 30.3981C15.4937 30.3561 15.4727 30.3021 15.4727 30.2361V29.8581C15.4727 29.7981 15.4847 29.7471 15.5087 29.7051C15.5387 29.6571 15.5687 29.6181 15.5987 29.5881L17.2097 28.0131H14.6357C14.5697 28.0131 14.5157 27.9921 14.4737 27.9501C14.4377 27.9081 14.4197 27.8571 14.4197 27.7971V27.2031C14.4197 27.1371 14.4377 27.0831 14.4737 27.0411C14.5157 26.9991 14.5697 26.9781 14.6357 26.9781H18.4967C18.5627 26.9781 18.6167 26.9991 18.6587 27.0411C18.7007 27.0831 18.7217 27.1371 18.7217 27.2031V27.7431C18.7217 27.7971 18.7097 27.8451 18.6857 27.8871C18.6617 27.9291 18.6347 27.9651 18.6047 27.9951L17.0477 29.5971L17.1557 29.6061C17.5217 29.6361 17.8457 29.7201 18.1277 29.8581C18.4157 29.9901 18.6377 30.1851 18.7937 30.4431C18.9557 30.7011 19.0367 31.0251 19.0367 31.4151C19.0367 31.8231 18.9287 32.1742 18.7127 32.4682C18.5027 32.7562 18.2117 32.9782 17.8397 33.1342C17.4677 33.2902 17.0417 33.3681 16.5617 33.3681Z" fill="#F5F5F5"/>
<path fill-rule="evenodd" clip-rule="evenodd" d="M3.24582 6.37548C2.17809 7.19877 1.75 7.98063 1.75 8.66965C1.75 9.43109 2.27631 10.3064 3.58892 11.2141C4.8804 12.1071 6.79054 12.9256 9.19448 13.5944C9.51895 13.6846 9.74346 13.9801 9.74346 14.3169V18.5889C13.646 17.6136 18.5015 17.0398 23.7506 17.0398C29.4351 17.0398 34.6579 17.7127 38.7088 18.8397L38.3067 20.2848C34.4122 19.2013 29.3284 18.5398 23.7506 18.5398C18.4313 18.5398 13.5613 19.1414 9.74346 20.1369V30.8568C9.74346 31.0913 9.63384 31.3122 9.44718 31.454C9.26052 31.5958 9.01828 31.6422 8.79243 31.5794C6.30469 30.8873 4.21811 30.0127 2.73578 28.9877C1.27459 27.9773 0.25 26.7094 0.25 25.2096H1.75C1.75 25.971 2.27631 26.8463 3.58892 27.754C4.70515 28.5258 6.28354 29.242 8.24346 29.8539V14.8819C5.9973 14.2163 4.10773 13.3965 2.73578 12.4478C1.27459 11.4374 0.25 10.1695 0.25 8.66965C0.25 7.30975 1.09513 6.13968 2.32989 5.1876C3.57502 4.22751 5.32975 3.39532 7.43095 2.71004C11.6416 1.3368 17.4114 0.499878 23.7506 0.499878C30.0898 0.499878 35.8596 1.3368 40.0703 2.71004C42.1715 3.39532 43.9262 4.22751 45.1713 5.1876C46.4061 6.13968 47.2512 7.30975 47.2512 8.66965V25.2096C47.2512 26.6818 46.3326 27.95 44.9246 28.9768C43.5089 30.0093 41.4876 30.8863 38.9964 31.5794C38.5973 31.6904 38.1838 31.4569 38.0728 31.0579C37.9618 30.6588 38.1953 30.2453 38.5943 30.1343C40.9948 29.4664 42.8264 28.6505 44.0407 27.7649C45.2628 26.8736 45.7512 25.9986 45.7512 25.2096V11.7505C45.5005 11.9899 45.2236 12.2189 44.9246 12.4369C43.5089 13.4694 41.4876 14.3464 38.9964 15.0395C38.5973 15.1505 38.1838 14.917 38.0728 14.518C37.9618 14.1189 38.1953 13.7054 38.5943 13.5944C40.9948 12.9265 42.8264 12.1106 44.0407 11.225C45.2628 10.3337 45.7512 9.4587 45.7512 8.66965C45.7512 7.98063 45.3231 7.19877 44.2554 6.37548C43.198 5.56019 41.621 4.79355 39.6052 4.13612C35.5817 2.82392 29.9762 1.99988 23.7506 1.99988C17.525 1.99988 11.9195 2.82392 7.89605 4.13612C5.8802 4.79355 4.30318 5.56019 3.24582 6.37548Z" fill="#F5F5F5"/>
<path fill-rule="evenodd" clip-rule="evenodd" d="M1 7.97974C1.41421 7.97974 1.75 8.31552 1.75 8.72974V25.3252C1.75 25.7394 1.41421 26.0752 1 26.0752C0.585786 26.0752 0.25 25.7394 0.25 25.3252V8.72974C0.25 8.31552 0.585786 7.97974 1 7.97974ZM38.7099 13.7101C39.1241 13.7101 39.4599 14.0459 39.4599 14.4601V30.857C39.4599 31.2713 39.1241 31.607 38.7099 31.607C38.2957 31.607 37.9599 31.2713 37.9599 30.857V14.4601C37.9599 14.0459 38.2957 13.7101 38.7099 13.7101Z" fill="#F5F5F5"/>
<path d="M25.6209 9.50849L22.5823 11.2628L22.5823 7.75415L25.6209 9.50849Z" fill="#A5A5A5"/>
<path fill-rule="evenodd" clip-rule="evenodd" d="M26.3709 9.50849C26.3709 9.77644 26.2279 10.024 25.9959 10.158L22.9573 11.9124C22.7252 12.0463 22.4393 12.0463 22.2073 11.9124C21.9752 11.7784 21.8323 11.5308 21.8323 11.2628L21.8323 7.75415C21.8323 7.4862 21.9752 7.23861 22.2073 7.10463C22.4393 6.97066 22.7252 6.97066 22.9573 7.10463L25.9959 8.85897C26.2279 8.99295 26.3709 9.24054 26.3709 9.50849ZM23.3323 9.05319L23.3323 9.9638L24.1209 9.50849L23.3323 9.05319Z" fill="#F5F5F5"/>
<path fill-rule="evenodd" clip-rule="evenodd" d="M23.5949 13.1511C25.6065 13.1511 27.2372 11.5204 27.2372 9.50884C27.2372 7.49727 25.6065 5.86658 23.5949 5.86658C21.5833 5.86658 19.9527 7.49727 19.9527 9.50884C19.9527 11.5204 21.5833 13.1511 23.5949 13.1511ZM23.5949 14.6511C26.4349 14.6511 28.7372 12.3488 28.7372 9.50884C28.7372 6.66885 26.4349 4.36658 23.5949 4.36658C20.7549 4.36658 18.4527 6.66885 18.4527 9.50884C18.4527 12.3488 20.7549 14.6511 23.5949 14.6511Z" fill="#F5F5F5"/>
</svg>
