<svg width="44" height="36" viewBox="0 0 44 36" fill="none" xmlns="http://www.w3.org/2000/svg">
<path fill-rule="evenodd" clip-rule="evenodd" d="M0.25 1.5C0.25 1.08579 0.585786 0.75 1 0.75H43.1971C43.6113 0.75 43.9471 1.08579 43.9471 1.5V34.7774C43.9471 35.1916 43.6113 35.5274 43.1971 35.5274H1C0.585786 35.5274 0.25 35.1916 0.25 34.7774V1.5ZM1.75 2.25V34.0274H42.4471V2.25H1.75Z" fill="#F5F5F5"/>
<path fill-rule="evenodd" clip-rule="evenodd" d="M35.2427 15.9087C35.2427 15.4945 35.5785 15.1587 35.9927 15.1587H43.1971C43.6113 15.1587 43.9471 15.4945 43.9471 15.9087V18.9963C43.9471 19.4105 43.6113 19.7463 43.1971 19.7463H35.9927C35.5785 19.7463 35.2427 19.4105 35.2427 18.9963V15.9087ZM36.7427 16.6587V18.2463H42.4471V16.6587H36.7427Z" fill="#F5F5F5"/>
<path fill-rule="evenodd" clip-rule="evenodd" d="M25.9799 15.9087C25.9799 15.4945 26.3157 15.1587 26.7299 15.1587H33.5912C34.0054 15.1587 34.3412 15.4945 34.3412 15.9087V18.9963C34.3412 19.4105 34.0054 19.7463 33.5912 19.7463H26.7299C26.3157 19.7463 25.9799 19.4105 25.9799 18.9963V15.9087ZM27.4799 16.6587V18.2463H32.8412V16.6587H27.4799Z" fill="#F5F5F5"/>
<path fill-rule="evenodd" clip-rule="evenodd" d="M20.5547 27.166C20.969 27.166 21.3047 27.5018 21.3047 27.916L21.3047 34.7773C21.3047 35.1915 20.969 35.5273 20.5547 35.5273L17.4672 35.5273C17.0529 35.5273 16.7172 35.1915 16.7172 34.7773L16.7172 27.916C16.7172 27.5018 17.0529 27.166 17.4672 27.166L20.5547 27.166ZM19.8047 28.666L18.2172 28.666L18.2172 34.0273L19.8047 34.0273L19.8047 28.666Z" fill="#F5F5F5"/>
<path fill-rule="evenodd" clip-rule="evenodd" d="M8.8905 16.188C9.30472 16.188 9.6405 16.5238 9.6405 16.938L9.6405 23.7993C9.6405 24.2135 9.30472 24.5493 8.8905 24.5493L5.80291 24.5493C5.3887 24.5493 5.05291 24.2135 5.05291 23.7993L5.05291 16.938C5.05291 16.5238 5.3887 16.188 5.80291 16.188L8.8905 16.188ZM8.1405 17.688L6.55291 17.688L6.55291 23.0493L8.1405 23.0493L8.1405 17.688Z" fill="#F5F5F5"/>
<path fill-rule="evenodd" clip-rule="evenodd" d="M8.8905 6.23901C9.30472 6.23901 9.6405 6.5748 9.6405 6.98901L9.6405 13.8503C9.6405 14.2645 9.30472 14.6003 8.8905 14.6003L5.80291 14.6003C5.3887 14.6003 5.05291 14.2645 5.05291 13.8503L5.05291 6.98901C5.05291 6.5748 5.3887 6.23901 5.80291 6.23901L8.8905 6.23901ZM8.1405 7.73901L6.55291 7.73901L6.55291 13.1003L8.1405 13.1003L8.1405 7.73901Z" fill="#F5F5F5"/>
<path fill-rule="evenodd" clip-rule="evenodd" d="M8.8905 0.75C9.30472 0.75 9.6405 1.08579 9.6405 1.5L9.6405 6.98905C9.6405 7.40326 9.30472 7.73905 8.8905 7.73905L5.80291 7.73905C5.3887 7.73905 5.05291 7.40326 5.05291 6.98905L5.05291 1.5C5.05291 1.08579 5.3887 0.75 5.80291 0.75L8.8905 0.75ZM8.1405 2.25L6.55291 2.25L6.55291 6.23905L8.1405 6.23905L8.1405 2.25Z" fill="#F5F5F5"/>
<path fill-rule="evenodd" clip-rule="evenodd" d="M6.55292 23.7993C6.55292 24.2135 6.21713 24.5493 5.80292 24.5493L0.999998 24.5493C0.585784 24.5493 0.249998 24.2135 0.249998 23.7993L0.249998 20.7117C0.249998 20.2975 0.585784 19.9617 0.999998 19.9617L5.80292 19.9617C6.21713 19.9617 6.55292 20.2975 6.55292 20.7117L6.55292 23.7993ZM5.05292 23.0493L5.05292 21.4617L1.75 21.4617L1.75 23.0493L5.05292 23.0493Z" fill="#F5F5F5"/>
<path fill-rule="evenodd" clip-rule="evenodd" d="M40.1095 21.677C40.5237 21.677 40.8595 22.0128 40.8595 22.427L40.8595 26.5438C40.8595 26.958 40.5237 27.2938 40.1095 27.2938L35.9927 27.2938C35.5785 27.2938 35.2427 26.958 35.2427 26.5438L35.2427 22.427C35.2427 22.0128 35.5785 21.677 35.9927 21.677L40.1095 21.677ZM39.3595 23.177L36.7427 23.177L36.7427 25.7938L39.3595 25.7938L39.3595 23.177Z" fill="#F5F5F5"/>
<path fill-rule="evenodd" clip-rule="evenodd" d="M40.1095 28.5383C40.5237 28.5383 40.8595 28.8741 40.8595 29.2883L40.8595 34.7774C40.8595 35.1916 40.5237 35.5274 40.1095 35.5274L35.9927 35.5274C35.5785 35.5274 35.2427 35.1916 35.2427 34.7774L35.2427 29.2883C35.2427 28.8741 35.5785 28.5383 35.9927 28.5383L40.1095 28.5383ZM39.3595 30.0383L36.7427 30.0383L36.7427 34.0274L39.3595 34.0274L39.3595 30.0383Z" fill="#F5F5F5"/>
<path fill-rule="evenodd" clip-rule="evenodd" d="M11.635 0.75C12.0493 0.75 12.385 1.08579 12.385 1.5V21.5438C12.385 24.7194 9.81068 27.2938 6.63504 27.2938H1.17154C0.757326 27.2938 0.421539 26.958 0.421539 26.5438C0.421539 26.1296 0.757326 25.7938 1.17154 25.7938H6.63504C8.98225 25.7938 10.885 23.891 10.885 21.5438V1.5C10.885 1.08579 11.2208 0.75 11.635 0.75ZM15.0657 0.75C15.4799 0.75 15.8157 1.08579 15.8157 1.5V5.59124C15.8157 7.93845 17.7185 9.84124 20.0657 9.84124H43.1971C43.6113 9.84124 43.9471 10.177 43.9471 10.5912C43.9471 11.0055 43.6113 11.3412 43.1971 11.3412H20.0657C16.8901 11.3412 14.3157 8.76688 14.3157 5.59124V1.5C14.3157 1.08579 14.6515 0.75 15.0657 0.75ZM14.3157 18.6788C14.3157 15.5032 16.8901 12.9288 20.0657 12.9288H43.1971C43.6113 12.9288 43.9471 13.2646 43.9471 13.6788C43.9471 14.093 43.6113 14.4288 43.1971 14.4288H20.0657C17.7185 14.4288 15.8157 16.3316 15.8157 18.6788V34.7774C15.8157 35.1916 15.4799 35.5274 15.0657 35.5274C14.6515 35.5274 14.3157 35.1916 14.3157 34.7774V18.6788ZM0.421539 28.6022C0.421539 28.188 0.757326 27.8522 1.17154 27.8522H6.63504C9.81068 27.8522 12.385 30.4266 12.385 33.6022V34.7774C12.385 35.1916 12.0493 35.5274 11.635 35.5274C11.2208 35.5274 10.885 35.1916 10.885 34.7774V33.6022C10.885 31.255 8.98225 29.3522 6.63504 29.3522H1.17154C0.757326 29.3522 0.421539 29.0164 0.421539 28.6022Z" fill="#F5F5F5"/>
<path fill-rule="evenodd" clip-rule="evenodd" d="M22.0828 15.3784C22.2235 15.2377 22.4142 15.1587 22.6131 15.1587H26.7299C27.1441 15.1587 27.4799 15.4945 27.4799 15.9087V18.9963C27.4799 19.4105 27.1441 19.7463 26.7299 19.7463H24.1245L21.3047 22.5661V25.1715C21.3047 25.5857 20.969 25.9215 20.5547 25.9215H17.4671C17.0529 25.9215 16.7171 25.5857 16.7171 25.1715V21.0547C16.7171 20.8558 16.7962 20.665 16.9368 20.5243L22.0828 15.3784ZM22.9238 16.6587L18.2171 21.3653V24.4215H19.8047V22.2554C19.8047 22.0565 19.8838 21.8657 20.0244 21.7251L23.2835 18.466C23.4242 18.3253 23.615 18.2463 23.8139 18.2463H25.9799V16.6587H22.9238Z" fill="#F5F5F5"/>
</svg>
