<svg width="49" height="36" viewBox="0 0 49 36" fill="none" xmlns="http://www.w3.org/2000/svg">
<path fill-rule="evenodd" clip-rule="evenodd" d="M27.9307 9.57666H21.4124V8.07666H27.9307V9.57666ZM41.761 9.57666H36.8504V8.07666H42.511C42.9252 8.07666 43.261 8.41245 43.261 8.82666V34.8997C43.261 35.3139 42.9252 35.6497 42.511 35.6497H7.86133C7.44711 35.6497 7.11133 35.3139 7.11133 34.8997V25.6369H8.61133V34.1497H41.761V9.57666Z" fill="#F5F5F5"/>
<path fill-rule="evenodd" clip-rule="evenodd" d="M0.25 4.02368C0.25 3.60947 0.585786 3.27368 1 3.27368H21.5839C21.9982 3.27368 22.3339 3.60947 22.3339 4.02368V25.6368C22.3339 26.051 21.9982 26.3868 21.5839 26.3868H1C0.585786 26.3868 0.25 26.051 0.25 25.6368V4.02368ZM1.75 4.77368V24.8868H20.8339V4.77368H1.75Z" fill="#F5F5F5"/>
<path fill-rule="evenodd" clip-rule="evenodd" d="M47.25 23.6423H22.3961V22.1423H48C48.4142 22.1423 48.75 22.4781 48.75 22.8923V31.1259C48.75 31.5401 48.4142 31.8759 48 31.8759H11.635C11.2208 31.8759 10.885 31.5401 10.885 31.1259V25.6369H12.385V30.3759H47.25V23.6423Z" fill="#F5F5F5"/>
<path fill-rule="evenodd" clip-rule="evenodd" d="M21.853 22.1423C22.2672 22.1423 22.603 22.4781 22.603 22.8923V31.1259C22.603 31.5401 22.2672 31.8759 21.853 31.8759C21.4388 31.8759 21.103 31.5401 21.103 31.1259V22.8923C21.103 22.4781 21.4388 22.1423 21.853 22.1423ZM24.4585 22.1423C24.8727 22.1423 25.2085 22.4781 25.2085 22.8923V31.1259C25.2085 31.5401 24.8727 31.8759 24.4585 31.8759C24.0443 31.8759 23.7085 31.5401 23.7085 31.1259V22.8923C23.7085 22.4781 24.0443 22.1423 24.4585 22.1423ZM27.064 22.1423C27.4782 22.1423 27.814 22.4781 27.814 22.8923V31.1259C27.814 31.5401 27.4782 31.8759 27.064 31.8759C26.6498 31.8759 26.314 31.5401 26.314 31.1259V22.8923C26.314 22.4781 26.6498 22.1423 27.064 22.1423ZM29.4834 22.1423C29.8976 22.1423 30.2334 22.4781 30.2334 22.8923V31.1259C30.2334 31.5401 29.8976 31.8759 29.4834 31.8759C29.0692 31.8759 28.7334 31.5401 28.7334 31.1259V22.8923C28.7334 22.4781 29.0692 22.1423 29.4834 22.1423ZM32.0889 22.1423C32.5031 22.1423 32.8389 22.4781 32.8389 22.8923V31.1259C32.8389 31.5401 32.5031 31.8759 32.0889 31.8759C31.6747 31.8759 31.3389 31.5401 31.3389 31.1259V22.8923C31.3389 22.4781 31.6747 22.1423 32.0889 22.1423ZM34.6944 22.1423C35.1087 22.1423 35.4444 22.4781 35.4444 22.8923V31.1259C35.4444 31.5401 35.1087 31.8759 34.6944 31.8759C34.2802 31.8759 33.9444 31.5401 33.9444 31.1259V22.8923C33.9444 22.4781 34.2802 22.1423 34.6944 22.1423ZM37.2999 22.1423C37.7142 22.1423 38.0499 22.4781 38.0499 22.8923V31.1259C38.0499 31.5401 37.7142 31.8759 37.2999 31.8759C36.8857 31.8759 36.5499 31.5401 36.5499 31.1259V22.8923C36.5499 22.4781 36.8857 22.1423 37.2999 22.1423ZM39.9054 22.1423C40.3197 22.1423 40.6554 22.4781 40.6554 22.8923V31.1259C40.6554 31.5401 40.3197 31.8759 39.9054 31.8759C39.4912 31.8759 39.1554 31.5401 39.1554 31.1259V22.8923C39.1554 22.4781 39.4912 22.1423 39.9054 22.1423ZM42.511 22.1423C42.9252 22.1423 43.261 22.4781 43.261 22.8923V31.1259C43.261 31.5401 42.9252 31.8759 42.511 31.8759C42.0967 31.8759 41.761 31.5401 41.761 31.1259V22.8923C41.761 22.4781 42.0967 22.1423 42.511 22.1423ZM45.2555 22.1423C45.6697 22.1423 46.0055 22.4781 46.0055 22.8923V31.1259C46.0055 31.5401 45.6697 31.8759 45.2555 31.8759C44.8413 31.8759 44.5055 31.5401 44.5055 31.1259V22.8923C44.5055 22.4781 44.8413 22.1423 45.2555 22.1423ZM14.0365 25.1661C14.4507 25.1661 14.7865 25.5019 14.7865 25.9161V31.1259C14.7865 31.5401 14.4507 31.8759 14.0365 31.8759C13.6223 31.8759 13.2865 31.5401 13.2865 31.1259V25.9161C13.2865 25.5019 13.6223 25.1661 14.0365 25.1661ZM16.642 25.1661C17.0562 25.1661 17.392 25.5019 17.392 25.9161V31.1259C17.392 31.5401 17.0562 31.8759 16.642 31.8759C16.2278 31.8759 15.892 31.5401 15.892 31.1259V25.9161C15.892 25.5019 16.2278 25.1661 16.642 25.1661ZM19.2475 25.1661C19.6617 25.1661 19.9975 25.5019 19.9975 25.9161V31.1259C19.9975 31.5401 19.6617 31.8759 19.2475 31.8759C18.8333 31.8759 18.4975 31.5401 18.4975 31.1259V25.9161C18.4975 25.5019 18.8333 25.1661 19.2475 25.1661Z" fill="#F5F5F5"/>
<path fill-rule="evenodd" clip-rule="evenodd" d="M32.3905 10.4142C34.6464 10.4142 36.5511 8.5172 36.5511 6.08212C36.5511 3.64703 34.6464 1.75 32.3905 1.75C30.1346 1.75 28.2299 3.64703 28.2299 6.08212C28.2299 8.5172 30.1346 10.4142 32.3905 10.4142ZM32.3905 11.9142C35.5168 11.9142 38.0511 9.30311 38.0511 6.08212C38.0511 2.86113 35.5168 0.25 32.3905 0.25C29.2642 0.25 26.7299 2.86113 26.7299 6.08212C26.7299 9.30311 29.2642 11.9142 32.3905 11.9142Z" fill="#F5F5F5"/>
<path fill-rule="evenodd" clip-rule="evenodd" d="M7.86133 5.67529C8.27554 5.67529 8.61133 6.01108 8.61133 6.42529L8.61133 22.8924C8.61133 23.3067 8.27554 23.6424 7.86133 23.6424C7.44712 23.6424 7.11133 23.3067 7.11133 22.8924L7.11133 6.42529C7.11133 6.01108 7.44711 5.67529 7.86133 5.67529Z" fill="#F5F5F5"/>
<path fill-rule="evenodd" clip-rule="evenodd" d="M2.30838 11.228C2.30838 10.8138 2.64417 10.478 3.05838 10.478L19.5255 10.478C19.9397 10.478 20.2755 10.8138 20.2755 11.228C20.2755 11.6422 19.9397 11.978 19.5255 11.978L3.05838 11.978C2.64417 11.978 2.30838 11.6422 2.30838 11.228Z" fill="#F5F5F5"/>
</svg>
