<svg width="46" height="43" viewBox="0 0 46 43" fill="none" xmlns="http://www.w3.org/2000/svg">
<path fill-rule="evenodd" clip-rule="evenodd" d="M6.82781 0C7.24203 0 7.57781 0.335786 7.57781 0.75V4.892H45C45.4142 4.892 45.75 5.22779 45.75 5.642V41.5167C45.75 41.9309 45.4142 42.2667 45 42.2667H6.82781C6.4136 42.2667 6.07781 41.9309 6.07781 41.5167C6.07781 41.1025 6.4136 40.7667 6.82781 40.7667H44.25V6.392H7.57781V30.102C7.57781 30.5162 7.24203 30.852 6.82781 30.852C6.4136 30.852 6.07781 30.5162 6.07781 30.102V0.75C6.07781 0.335786 6.4136 0 6.82781 0ZM1 5.43556C1.41421 5.43556 1.75 5.77134 1.75 6.18556V35.8093C1.75 36.2236 1.41421 36.5593 1 36.5593C0.585786 36.5593 0.25 36.2236 0.25 35.8093V6.18556C0.25 5.77134 0.585786 5.43556 1 5.43556Z" fill="#F5F5F5"/>
<path fill-rule="evenodd" clip-rule="evenodd" d="M7.11921 30.8511C4.1038 30.8511 1.75 33.1189 1.75 35.8084C1.75 38.4979 4.1038 40.7657 7.11921 40.7657V42.2657C3.37553 42.2657 0.25 39.4231 0.25 35.8084C0.25 32.1938 3.37553 29.3511 7.11921 29.3511V30.8511Z" fill="#F5F5F5"/>
<path fill-rule="evenodd" clip-rule="evenodd" d="M7.11921 1.5C4.1038 1.5 1.75 3.76784 1.75 6.45734H0.25C0.25 2.84268 3.37553 0 7.11921 0V1.5Z" fill="#F5F5F5"/>
<path fill-rule="evenodd" clip-rule="evenodd" d="M11.906 11.0769C11.906 10.6627 12.2418 10.3269 12.656 10.3269H38.8811C39.2954 10.3269 39.6311 10.6627 39.6311 11.0769V36.0805C39.6311 36.4947 39.2954 36.8305 38.8811 36.8305H12.656C12.2418 36.8305 11.906 36.4947 11.906 36.0805V11.0769ZM13.406 11.8269V22.8287H21.9805C22.3947 22.8287 22.7305 23.1645 22.7305 23.5787V27.1118C22.7305 27.526 22.3947 27.8618 21.9805 27.8618C21.5663 27.8618 21.2305 27.526 21.2305 27.1118V24.3287H13.406V35.3305H21.2305V31.732C21.2305 31.3178 21.5663 30.982 21.9805 30.982C22.3947 30.982 22.7305 31.3178 22.7305 31.732V35.3305H30.8464V33.6345C30.8464 33.2203 31.1822 32.8845 31.5964 32.8845C32.0106 32.8845 32.3464 33.2203 32.3464 33.6345V35.3305H38.1311V25.6876H32.3464V29.286C32.3464 29.7002 32.0106 30.036 31.5964 30.036C31.1822 30.036 30.8464 29.7002 30.8464 29.286V24.9376C30.8464 24.5234 31.1822 24.1876 31.5964 24.1876H38.1311V11.8269H32.3464V20.0456C32.3464 20.4598 32.0106 20.7956 31.5964 20.7956C31.1822 20.7956 30.8464 20.4598 30.8464 20.0456V11.8269H22.7305V17.3931H26.3513C26.7656 17.3931 27.1013 17.7289 27.1013 18.1431C27.1013 18.5573 26.7656 18.8931 26.3513 18.8931H21.9805C21.5663 18.8931 21.2305 18.5573 21.2305 18.1431V11.8269H13.406Z" fill="#F5F5F5"/>
</svg>
