<svg xmlns="http://www.w3.org/2000/svg" width="306" height="51" fill="none"><path fill="#fff" d="M.938 1.002a1 1 0 0 0-.936 1.06l.561 8.983a1 1 0 1 0 1.996-.125L2.06 2.936l7.985-.5A1 1 0 1 0 9.92.442L.938 1Zm305.06 1.06a1 1 0 0 0-.936-1.06L296.08.44a1.001 1.001 0 0 0-.125 1.996l7.985.499-.499 7.984a1 1 0 1 0 1.996.125l.561-8.983ZM111.431 31.634a1 1 0 0 0 .138-1.995l-.138 1.995Zm83-1.995a1 1 0 0 0 .138 1.995l-.138-1.995ZM1 2c-.662.75-.661.75-.66.751l.002.002a1.696 1.696 0 0 0 .024.021l.067.057a27.106 27.106 0 0 0 1.253.968c.896.652 2.261 1.581 4.159 2.71 3.795 2.258 9.721 5.313 18.293 8.546 17.144 6.466 44.866 13.642 87.293 16.58l.138-1.996c-42.264-2.926-69.79-10.068-86.725-16.455-8.467-3.193-14.286-6.198-17.977-8.393C5.022 3.693 3.71 2.797 2.863 2.18a25.103 25.103 0 0 1-1.143-.88 5.387 5.387 0 0 1-.058-.05l-.001-.002L1 2Zm193.569 29.634c42.427-2.937 70.149-10.113 87.293-16.579 8.571-3.233 14.498-6.288 18.293-8.546 1.898-1.129 3.263-2.058 4.159-2.71a27.308 27.308 0 0 0 1.253-.968l.067-.057a.288.288 0 0 0 .026-.023c.001 0 .002-.001-.66-.751l-.661-.75h-.001l-.01.009-.048.041a25.594 25.594 0 0 1-1.143.881c-.846.616-2.159 1.512-4.004 2.61-3.691 2.195-9.51 5.2-17.977 8.393-16.934 6.387-44.462 13.53-86.725 16.455l.138 1.995Z"/><rect width="26" height="38" x="140" y="12" stroke="#fff" stroke-width="2" rx="11"/><path stroke="#fff" stroke-width="2" d="M140 26h14M153 26V12"/><path fill="#fff" d="M140 22c.5-2.5 1-5.001 4.5-8 2.8-2.4 6.833-2.334 8.5-2v14h-13.5c0-.5.1-2 .5-4Z"/></svg>