<svg width="49" height="36" viewBox="0 0 49 36" fill="none" xmlns="http://www.w3.org/2000/svg">
<path fill-rule="evenodd" clip-rule="evenodd" d="M3.33759 1.25C3.33759 0.835786 3.67338 0.5 4.08759 0.5H21.927C22.3412 0.5 22.677 0.835786 22.677 1.25V34.5274C22.677 34.9416 22.3412 35.2774 21.927 35.2774H1C0.585786 35.2774 0.25 34.9416 0.25 34.5274C0.25 34.1132 0.585786 33.7774 1 33.7774H3.33759V1.25ZM4.83759 33.7774H21.177V2H4.83759V33.7774Z" fill="#F5F5F5"/>
<path fill-rule="evenodd" clip-rule="evenodd" d="M5.73904 3.65137C5.73904 3.23715 6.07483 2.90137 6.48904 2.90137H9.57664C9.99085 2.90137 10.3266 3.23715 10.3266 3.65137V7.08202C10.3266 7.49624 9.99085 7.83202 9.57664 7.83202H6.48904C6.07483 7.83202 5.73904 7.49624 5.73904 7.08202V3.65137ZM7.23904 4.40137V6.33202H8.82664V4.40137H7.23904Z" fill="#F5F5F5"/>
<path fill-rule="evenodd" clip-rule="evenodd" d="M24.2646 15.3157C24.2646 14.9015 24.6004 14.5657 25.0146 14.5657H31.8759C32.2901 14.5657 32.6259 14.9015 32.6259 15.3157V18.7463C32.6259 19.1605 32.2901 19.4963 31.8759 19.4963H25.0146C24.6004 19.4963 24.2646 19.1605 24.2646 18.7463V15.3157ZM25.7646 16.0657V17.9963H31.1259V16.0657H25.7646Z" fill="#F5F5F5"/>
<path fill-rule="evenodd" clip-rule="evenodd" d="M34.5566 15.3157C34.5566 14.9015 34.8924 14.5657 35.3066 14.5657H42.1679C42.5821 14.5657 42.9179 14.9015 42.9179 15.3157V18.7463C42.9179 19.1605 42.5821 19.4963 42.1679 19.4963H35.3066C34.8924 19.4963 34.5566 19.1605 34.5566 18.7463V15.3157ZM36.0566 16.0657V17.9963H41.4179V16.0657H36.0566Z" fill="#F5F5F5"/>
<path fill-rule="evenodd" clip-rule="evenodd" d="M24.2646 21.1477C24.2646 20.7335 24.6004 20.3977 25.0146 20.3977H31.8759C32.2901 20.3977 32.6259 20.7335 32.6259 21.1477V24.5784C32.6259 24.9926 32.2901 25.3284 31.8759 25.3284H25.0146C24.6004 25.3284 24.2646 24.9926 24.2646 24.5784V21.1477ZM25.7646 21.8977V23.8284H31.1259V21.8977H25.7646Z" fill="#F5F5F5"/>
<path fill-rule="evenodd" clip-rule="evenodd" d="M34.5566 21.1477C34.5566 20.7335 34.8924 20.3977 35.3066 20.3977H42.1679C42.5821 20.3977 42.9179 20.7335 42.9179 21.1477V24.5784C42.9179 24.9926 42.5821 25.3284 42.1679 25.3284H35.3066C34.8924 25.3284 34.5566 24.9926 34.5566 24.5784V21.1477ZM36.0566 21.8977V23.8284H41.4179V21.8977H36.0566Z" fill="#F5F5F5"/>
<path fill-rule="evenodd" clip-rule="evenodd" d="M24.2646 26.98C24.2646 26.5658 24.6004 26.23 25.0146 26.23H31.8759C32.2901 26.23 32.6259 26.5658 32.6259 26.98V30.4106C32.6259 30.8249 32.2901 31.1606 31.8759 31.1606H25.0146C24.6004 31.1606 24.2646 30.8249 24.2646 30.4106V26.98ZM25.7646 27.73V29.6606H31.1259V27.73H25.7646Z" fill="#F5F5F5"/>
<path fill-rule="evenodd" clip-rule="evenodd" d="M34.5566 26.98C34.5566 26.5658 34.8924 26.23 35.3066 26.23H42.1679C42.5821 26.23 42.9179 26.5658 42.9179 26.98V30.4106C42.9179 30.8249 42.5821 31.1606 42.1679 31.1606H35.3066C34.8924 31.1606 34.5566 30.8249 34.5566 30.4106V26.98ZM36.0566 27.73V29.6606H41.4179V27.73H36.0566Z" fill="#F5F5F5"/>
<path fill-rule="evenodd" clip-rule="evenodd" d="M5.73904 9.48364C5.73904 9.06943 6.07483 8.73364 6.48904 8.73364H9.57664C9.99085 8.73364 10.3266 9.06943 10.3266 9.48364V12.9143C10.3266 13.3285 9.99085 13.6643 9.57664 13.6643H6.48904C6.07483 13.6643 5.73904 13.3285 5.73904 12.9143V9.48364ZM7.23904 10.2336V12.1643H8.82664V10.2336H7.23904Z" fill="#F5F5F5"/>
<path fill-rule="evenodd" clip-rule="evenodd" d="M5.73904 15.3157C5.73904 14.9015 6.07483 14.5657 6.48904 14.5657H9.57664C9.99085 14.5657 10.3266 14.9015 10.3266 15.3157V18.7463C10.3266 19.1605 9.99085 19.4963 9.57664 19.4963H6.48904C6.07483 19.4963 5.73904 19.1605 5.73904 18.7463V15.3157ZM7.23904 16.0657V17.9963H8.82664V16.0657H7.23904Z" fill="#F5F5F5"/>
<path fill-rule="evenodd" clip-rule="evenodd" d="M5.73904 21.1477C5.73904 20.7335 6.07483 20.3977 6.48904 20.3977H9.57664C9.99085 20.3977 10.3266 20.7335 10.3266 21.1477V24.5784C10.3266 24.9926 9.99085 25.3284 9.57664 25.3284H6.48904C6.07483 25.3284 5.73904 24.9926 5.73904 24.5784V21.1477ZM7.23904 21.8977V23.8284H8.82664V21.8977H7.23904Z" fill="#F5F5F5"/>
<path fill-rule="evenodd" clip-rule="evenodd" d="M15.688 3.65137C15.688 3.23715 16.0237 2.90137 16.438 2.90137H19.5255C19.9398 2.90137 20.2755 3.23715 20.2755 3.65137V7.08202C20.2755 7.49624 19.9398 7.83202 19.5255 7.83202H16.438C16.0237 7.83202 15.688 7.49624 15.688 7.08202V3.65137ZM17.188 4.40137V6.33202H18.7755V4.40137H17.188Z" fill="#F5F5F5"/>
<path fill-rule="evenodd" clip-rule="evenodd" d="M15.688 9.48364C15.688 9.06943 16.0237 8.73364 16.438 8.73364H19.5255C19.9398 8.73364 20.2755 9.06943 20.2755 9.48364V12.9143C20.2755 13.3285 19.9398 13.6643 19.5255 13.6643H16.438C16.0237 13.6643 15.688 13.3285 15.688 12.9143V9.48364ZM17.188 10.2336V12.1643H18.7755V10.2336H17.188Z" fill="#F5F5F5"/>
<path fill-rule="evenodd" clip-rule="evenodd" d="M15.688 15.3157C15.688 14.9015 16.0237 14.5657 16.438 14.5657H19.5255C19.9398 14.5657 20.2755 14.9015 20.2755 15.3157V18.7463C20.2755 19.1605 19.9398 19.4963 19.5255 19.4963H16.438C16.0237 19.4963 15.688 19.1605 15.688 18.7463V15.3157ZM17.188 16.0657V17.9963H18.7755V16.0657H17.188Z" fill="#F5F5F5"/>
<path fill-rule="evenodd" clip-rule="evenodd" d="M15.688 21.1477C15.688 20.7335 16.0237 20.3977 16.438 20.3977H19.5255C19.9398 20.3977 20.2755 20.7335 20.2755 21.1477V24.5784C20.2755 24.9926 19.9398 25.3284 19.5255 25.3284H16.438C16.0237 25.3284 15.688 24.9926 15.688 24.5784V21.1477ZM17.188 21.8977V23.8284H18.7755V21.8977H17.188Z" fill="#F5F5F5"/>
<path fill-rule="evenodd" clip-rule="evenodd" d="M10.885 3.65137C10.885 3.23715 11.2208 2.90137 11.635 2.90137H14.3796C14.7938 2.90137 15.1296 3.23715 15.1296 3.65137V7.08202C15.1296 7.49624 14.7938 7.83202 14.3796 7.83202H11.635C11.2208 7.83202 10.885 7.49624 10.885 7.08202V3.65137ZM12.385 4.40137V6.33202H13.6296V4.40137H12.385Z" fill="#F5F5F5"/>
<path fill-rule="evenodd" clip-rule="evenodd" d="M10.885 9.48364C10.885 9.06943 11.2208 8.73364 11.635 8.73364H14.3796C14.7938 8.73364 15.1296 9.06943 15.1296 9.48364V12.9143C15.1296 13.3285 14.7938 13.6643 14.3796 13.6643H11.635C11.2208 13.6643 10.885 13.3285 10.885 12.9143V9.48364ZM12.385 10.2336V12.1643H13.6296V10.2336H12.385Z" fill="#F5F5F5"/>
<path fill-rule="evenodd" clip-rule="evenodd" d="M10.885 15.3157C10.885 14.9015 11.2208 14.5657 11.635 14.5657H14.3796C14.7938 14.5657 15.1296 14.9015 15.1296 15.3157V18.7463C15.1296 19.1605 14.7938 19.4963 14.3796 19.4963H11.635C11.2208 19.4963 10.885 19.1605 10.885 18.7463V15.3157ZM12.385 16.0657V17.9963H13.6296V16.0657H12.385Z" fill="#F5F5F5"/>
<path fill-rule="evenodd" clip-rule="evenodd" d="M10.885 21.1477C10.885 20.7335 11.2208 20.3977 11.635 20.3977H14.3796C14.7938 20.3977 15.1296 20.7335 15.1296 21.1477V24.5784C15.1296 24.9926 14.7938 25.3284 14.3796 25.3284H11.635C11.2208 25.3284 10.885 24.9926 10.885 24.5784V21.1477ZM12.385 21.8977V23.8284H13.6296V21.8977H12.385Z" fill="#F5F5F5"/>
<path fill-rule="evenodd" clip-rule="evenodd" d="M21.177 12.9143C21.177 12.5001 21.5128 12.1643 21.927 12.1643H45.3634C45.7776 12.1643 46.1134 12.5001 46.1134 12.9143V33.7774H48C48.4142 33.7774 48.75 34.1132 48.75 34.5274C48.75 34.9417 48.4142 35.2774 48 35.2774H21.927C21.5128 35.2774 21.177 34.9417 21.177 34.5274V12.9143ZM44.6134 33.7774V13.6643H22.677V33.7774H44.6134Z" fill="#F5F5F5"/>
<path fill-rule="evenodd" clip-rule="evenodd" d="M21.927 25.2646H3.74454V23.7646H21.927V25.2646Z" fill="#F5F5F5"/>
<path fill-rule="evenodd" clip-rule="evenodd" d="M6.83212 26.6368L6.83212 34.8704L5.33212 34.8704L5.33212 26.6368L6.83212 26.6368Z" fill="#F5F5F5"/>
<path fill-rule="evenodd" clip-rule="evenodd" d="M10.9489 26.6368L10.9489 34.8704L9.44891 34.8704L9.44891 26.6368L10.9489 26.6368Z" fill="#F5F5F5"/>
<path fill-rule="evenodd" clip-rule="evenodd" d="M15.7518 26.6368L15.7518 34.8704L14.2518 34.8704L14.2518 26.6368L15.7518 26.6368Z" fill="#F5F5F5"/>
<path fill-rule="evenodd" clip-rule="evenodd" d="M20.2117 26.6368L20.2117 34.8704L18.7117 34.8704L18.7117 26.6368L20.2117 26.6368Z" fill="#F5F5F5"/>
<path fill-rule="evenodd" clip-rule="evenodd" d="M21.927 27.323H3.74454V25.823H21.927V27.323Z" fill="#F5F5F5"/>
</svg>
