<svg width="224" height="194" viewBox="0 0 224 194" fill="none" xmlns="http://www.w3.org/2000/svg">
<circle cx="118" cy="52" r="52" fill="white" fill-opacity="0.8"/>
<path d="M137.76 52.5195L105.78 70.9831L105.78 34.0558L137.76 52.5195Z" fill="#1C1C1C"/>
<g opacity="0.8">
<path d="M3 97.2254L18.0117 95L21.0413 108.336M63.8894 140C27.6597 134.326 10.518 122.83 10.518 108.336C10.518 103.624 13.1779 99.1237 18.0133 95.0006M171.386 140C204.447 133.945 221 122.037 221 108.336C221 103.624 218.34 99.1237 213.505 95.0006" stroke="#F5F5F5" stroke-width="5" stroke-linecap="round" stroke-linejoin="round"/>
<path d="M90.3742 156.35C88.7408 156.35 87.3292 156.152 86.1392 155.755C84.9492 155.358 83.9575 154.845 83.1642 154.215C82.3942 153.562 81.8108 152.862 81.4142 152.115C81.0175 151.345 80.8075 150.587 80.7842 149.84C80.7842 149.63 80.8542 149.467 80.9942 149.35C81.1575 149.21 81.3442 149.14 81.5542 149.14H84.7042C84.9375 149.14 85.1358 149.187 85.2992 149.28C85.4625 149.373 85.6025 149.56 85.7192 149.84C85.9292 150.47 86.2675 150.972 86.7342 151.345C87.2242 151.718 87.7842 151.987 88.4142 152.15C89.0442 152.29 89.7092 152.36 90.4092 152.36C91.8092 152.36 92.9175 152.033 93.7342 151.38C94.5742 150.703 94.9942 149.747 94.9942 148.51C94.9942 147.273 94.6092 146.387 93.8392 145.85C93.0692 145.29 91.9958 145.01 90.6192 145.01H87.0142C86.7575 145.01 86.5475 144.94 86.3842 144.8C86.2208 144.637 86.1392 144.427 86.1392 144.17V142.7C86.1392 142.467 86.1858 142.268 86.2792 142.105C86.3958 141.918 86.5125 141.767 86.6292 141.65L92.8942 135.525H82.8842C82.6275 135.525 82.4175 135.443 82.2542 135.28C82.1142 135.117 82.0442 134.918 82.0442 134.685V132.375C82.0442 132.118 82.1142 131.908 82.2542 131.745C82.4175 131.582 82.6275 131.5 82.8842 131.5H97.8992C98.1558 131.5 98.3658 131.582 98.5292 131.745C98.6925 131.908 98.7742 132.118 98.7742 132.375V134.475C98.7742 134.685 98.7275 134.872 98.6342 135.035C98.5408 135.198 98.4358 135.338 98.3192 135.455L92.2642 141.685L92.6842 141.72C94.1075 141.837 95.3675 142.163 96.4642 142.7C97.5842 143.213 98.4475 143.972 99.0542 144.975C99.6842 145.978 99.9992 147.238 99.9992 148.755C99.9992 150.342 99.5792 151.707 98.7392 152.85C97.9225 153.97 96.7908 154.833 95.3442 155.44C93.8975 156.047 92.2408 156.35 90.3742 156.35ZM113.05 156.35C111.043 156.35 109.317 155.977 107.87 155.23C106.423 154.46 105.303 153.433 104.51 152.15C103.717 150.843 103.32 149.385 103.32 147.775C103.32 147.052 103.413 146.352 103.6 145.675C103.787 144.998 104.032 144.357 104.335 143.75C104.638 143.143 104.93 142.607 105.21 142.14C105.513 141.65 105.782 141.265 106.015 140.985L112.42 132.2C112.513 132.083 112.653 131.943 112.84 131.78C113.027 131.593 113.283 131.5 113.61 131.5H116.865C117.075 131.5 117.25 131.582 117.39 131.745C117.53 131.885 117.6 132.06 117.6 132.27C117.6 132.363 117.577 132.457 117.53 132.55C117.507 132.62 117.472 132.678 117.425 132.725L112.525 139.515C112.735 139.445 112.98 139.398 113.26 139.375C113.54 139.352 113.797 139.34 114.03 139.34C115.197 139.363 116.305 139.597 117.355 140.04C118.405 140.46 119.327 141.043 120.12 141.79C120.913 142.537 121.532 143.412 121.975 144.415C122.442 145.418 122.675 146.515 122.675 147.705C122.675 149.245 122.29 150.68 121.52 152.01C120.75 153.317 119.642 154.367 118.195 155.16C116.772 155.953 115.057 156.35 113.05 156.35ZM113.015 152.325C113.855 152.325 114.625 152.15 115.325 151.8C116.048 151.45 116.632 150.937 117.075 150.26C117.518 149.583 117.74 148.743 117.74 147.74C117.74 146.76 117.518 145.932 117.075 145.255C116.632 144.578 116.048 144.065 115.325 143.715C114.625 143.365 113.855 143.19 113.015 143.19C112.175 143.19 111.393 143.365 110.67 143.715C109.97 144.065 109.398 144.578 108.955 145.255C108.512 145.932 108.29 146.76 108.29 147.74C108.29 148.743 108.512 149.583 108.955 150.26C109.398 150.937 109.97 151.45 110.67 151.8C111.393 152.15 112.175 152.325 113.015 152.325ZM135.658 156.35C134.002 156.35 132.59 156.105 131.423 155.615C130.257 155.125 129.3 154.448 128.553 153.585C127.807 152.722 127.247 151.73 126.873 150.61C126.5 149.467 126.278 148.253 126.208 146.97C126.185 146.34 126.162 145.652 126.138 144.905C126.138 144.135 126.138 143.365 126.138 142.595C126.162 141.825 126.185 141.113 126.208 140.46C126.255 139.177 126.477 137.975 126.873 136.855C127.27 135.712 127.842 134.72 128.588 133.88C129.358 133.04 130.327 132.375 131.493 131.885C132.66 131.395 134.048 131.15 135.658 131.15C137.292 131.15 138.692 131.395 139.858 131.885C141.025 132.375 141.982 133.04 142.728 133.88C143.498 134.72 144.07 135.712 144.443 136.855C144.84 137.975 145.062 139.177 145.108 140.46C145.155 141.113 145.178 141.825 145.178 142.595C145.178 143.365 145.178 144.135 145.178 144.905C145.178 145.652 145.155 146.34 145.108 146.97C145.062 148.253 144.852 149.467 144.478 150.61C144.105 151.73 143.545 152.722 142.798 153.585C142.052 154.448 141.083 155.125 139.893 155.615C138.727 156.105 137.315 156.35 135.658 156.35ZM135.658 152.325C137.175 152.325 138.283 151.835 138.983 150.855C139.707 149.852 140.08 148.498 140.103 146.795C140.15 146.118 140.173 145.442 140.173 144.765C140.173 144.065 140.173 143.365 140.173 142.665C140.173 141.965 140.15 141.3 140.103 140.67C140.08 139.013 139.707 137.683 138.983 136.68C138.283 135.653 137.175 135.14 135.658 135.14C134.165 135.14 133.057 135.653 132.333 136.68C131.633 137.683 131.26 139.013 131.213 140.67C131.213 141.3 131.202 141.965 131.178 142.665C131.178 143.365 131.178 144.065 131.178 144.765C131.202 145.442 131.213 146.118 131.213 146.795C131.26 148.498 131.645 149.852 132.368 150.855C133.092 151.835 134.188 152.325 135.658 152.325ZM154.531 142.035C153.505 142.035 152.56 141.802 151.696 141.335C150.856 140.845 150.18 140.192 149.666 139.375C149.153 138.535 148.896 137.602 148.896 136.575C148.896 135.548 149.153 134.627 149.666 133.81C150.18 132.993 150.856 132.352 151.696 131.885C152.56 131.395 153.505 131.15 154.531 131.15C155.558 131.15 156.491 131.395 157.331 131.885C158.171 132.352 158.848 132.993 159.361 133.81C159.875 134.627 160.131 135.548 160.131 136.575C160.131 137.602 159.875 138.535 159.361 139.375C158.848 140.192 158.171 140.845 157.331 141.335C156.491 141.802 155.558 142.035 154.531 142.035ZM154.531 139.235C155.325 139.235 155.966 138.99 156.456 138.5C156.946 138.01 157.191 137.368 157.191 136.575C157.191 135.782 156.946 135.14 156.456 134.65C155.966 134.16 155.325 133.915 154.531 133.915C153.738 133.915 153.096 134.16 152.606 134.65C152.116 135.14 151.871 135.782 151.871 136.575C151.871 137.368 152.116 138.01 152.606 138.5C153.096 138.99 153.738 139.235 154.531 139.235Z" fill="#F5F5F5"/>
</g>
</svg>
