<svg width="55" height="38" viewBox="0 0 55 38" fill="none" xmlns="http://www.w3.org/2000/svg">
<path fill-rule="evenodd" clip-rule="evenodd" d="M41.0701 5.3371H15.7057C12.6682 5.3371 10.2057 7.79953 10.2057 10.8371V16.1333C10.2057 19.1709 12.6682 21.6334 15.7057 21.6334H21.0027C22.0214 21.6334 22.9806 21.1537 23.5918 20.3388C26.0863 17.0128 31.0754 17.0128 33.57 20.3388C34.1812 21.1537 35.1404 21.6334 36.1591 21.6334H41.0701C44.1077 21.6334 46.5701 19.1709 46.5701 16.1334V10.8371C46.5701 7.79953 44.1077 5.3371 41.0701 5.3371ZM15.7057 3.8371C11.8398 3.8371 8.70575 6.9711 8.70575 10.8371V16.1333C8.70575 19.9993 11.8398 23.1334 15.7057 23.1334H21.0027C22.4935 23.1334 23.8973 22.4314 24.7918 21.2388C26.6863 18.7128 30.4754 18.7128 32.37 21.2388C33.2645 22.4314 34.6683 23.1334 36.1591 23.1334H41.0701C44.9361 23.1334 48.0701 19.9993 48.0701 16.1334V10.8371C48.0701 6.9711 44.9361 3.8371 41.0701 3.8371H15.7057Z" fill="#F5F5F5"/>
<path fill-rule="evenodd" clip-rule="evenodd" d="M9.50009 4.59027C9.50009 2.05513 11.5552 0 14.0904 0H42.6868C45.2219 0 47.277 2.05513 47.277 4.59027H45.777C45.777 2.88356 44.3935 1.5 42.6868 1.5H14.0904C12.3837 1.5 11.0001 2.88356 11.0001 4.59027H9.50009Z" fill="#F5F5F5"/>
<path fill-rule="evenodd" clip-rule="evenodd" d="M19.3177 15.8447C20.7273 15.8447 21.87 14.702 21.87 13.2924C21.87 11.8829 20.7273 10.7402 19.3177 10.7402C17.9082 10.7402 16.7655 11.8829 16.7655 13.2924C16.7655 14.702 17.9082 15.8447 19.3177 15.8447ZM19.3177 17.3447C21.5557 17.3447 23.37 15.5304 23.37 13.2924C23.37 11.0545 21.5557 9.24023 19.3177 9.24023C17.0798 9.24023 15.2655 11.0545 15.2655 13.2924C15.2655 15.5304 17.0798 17.3447 19.3177 17.3447Z" fill="#F5F5F5"/>
<path fill-rule="evenodd" clip-rule="evenodd" d="M37.4581 15.8447C38.8676 15.8447 40.0103 14.702 40.0103 13.2924C40.0103 11.8829 38.8676 10.7402 37.4581 10.7402C36.0485 10.7402 34.9059 11.8829 34.9059 13.2924C34.9059 14.702 36.0485 15.8447 37.4581 15.8447ZM37.4581 17.3447C39.6961 17.3447 41.5103 15.5304 41.5103 13.2924C41.5103 11.0545 39.6961 9.24023 37.4581 9.24023C35.2201 9.24023 33.4059 11.0545 33.4059 13.2924C33.4059 15.5304 35.2201 17.3447 37.4581 17.3447Z" fill="#F5F5F5"/>
<path fill-rule="evenodd" clip-rule="evenodd" d="M4.23918 24.6682L4.67149 26.5966C4.76209 27.0008 5.1632 27.255 5.56738 27.1644C5.97156 27.0738 6.22577 26.6727 6.13516 26.2685L5.40157 22.996C5.37805 22.8698 5.32179 22.748 5.23182 22.6438C5.14108 22.5388 5.02757 22.4651 4.90494 22.4237C4.79492 22.3863 4.67473 22.3739 4.55247 22.3923L0.88856 22.9427C0.478943 23.0043 0.196767 23.3862 0.258303 23.7958C0.319838 24.2054 0.701783 24.4876 1.1114 24.4261L2.76114 24.1783C2.33045 24.8761 2.0849 25.6298 2.0849 26.4326C2.0849 28.5712 3.35045 30.3855 5.63678 31.8037C7.90983 33.2136 11.2786 34.2961 15.7437 35.0048C16.1528 35.0697 16.5371 34.7907 16.602 34.3816C16.6669 33.9725 16.3879 33.5883 15.9788 33.5233C11.6013 32.8286 8.45692 31.7878 6.42744 30.529C4.41123 29.2784 3.5849 27.8787 3.5849 26.4326C3.5849 25.8659 3.79066 25.274 4.23918 24.6682ZM51.8104 22.6438C52.0812 22.3304 52.5548 22.2958 52.8683 22.5666C54.1383 23.6641 54.9573 24.9664 54.9573 26.4326C54.9573 28.4666 53.735 30.2531 51.5949 31.6813C49.4587 33.1068 46.3211 34.2431 42.2347 35.0015C41.8275 35.0771 41.436 34.8082 41.3605 34.4009C41.2849 33.9937 41.5537 33.6023 41.961 33.5267C45.944 32.7874 48.8611 31.7023 50.7623 30.4336C52.6595 29.1675 53.4573 27.787 53.4573 26.4326C53.4573 25.5676 52.9779 24.6438 51.8875 23.7016C51.5741 23.4308 51.5396 22.9572 51.8104 22.6438Z" fill="#F5F5F5"/>
<path d="M38.1888 34.2893C37.9248 34.2893 37.6818 34.2293 37.4598 34.1093C37.2438 33.9833 37.0698 33.8153 36.9378 33.6053C36.8058 33.3893 36.7398 33.1493 36.7398 32.8853C36.7398 32.6213 36.8058 32.3843 36.9378 32.1743C37.0698 31.9643 37.2438 31.7993 37.4598 31.6793C37.6818 31.5533 37.9248 31.4903 38.1888 31.4903C38.4528 31.4903 38.6928 31.5533 38.9088 31.6793C39.1248 31.7993 39.2988 31.9643 39.4308 32.1743C39.5628 32.3843 39.6288 32.6213 39.6288 32.8853C39.6288 33.1493 39.5628 33.3893 39.4308 33.6053C39.2988 33.8153 39.1248 33.9833 38.9088 34.1093C38.6928 34.2293 38.4528 34.2893 38.1888 34.2893ZM38.1888 33.5693C38.3928 33.5693 38.5578 33.5063 38.6838 33.3803C38.8098 33.2543 38.8728 33.0893 38.8728 32.8853C38.8728 32.6813 38.8098 32.5163 38.6838 32.3903C38.5578 32.2643 38.3928 32.2013 38.1888 32.2013C37.9848 32.2013 37.8198 32.2643 37.6938 32.3903C37.5678 32.5163 37.5048 32.6813 37.5048 32.8853C37.5048 33.0893 37.5678 33.2543 37.6938 33.3803C37.8198 33.5063 37.9848 33.5693 38.1888 33.5693Z" fill="#F5F5F5"/>
<path d="M33.3358 37.9703C32.9098 37.9703 32.5468 37.9073 32.2468 37.7813C31.9468 37.6553 31.7008 37.4813 31.5088 37.2593C31.3168 37.0373 31.1728 36.7823 31.0768 36.4943C30.9808 36.2003 30.9238 35.8883 30.9058 35.5583C30.8998 35.3963 30.8938 35.2193 30.8878 35.0273C30.8878 34.8293 30.8878 34.6313 30.8878 34.4333C30.8938 34.2353 30.8998 34.0523 30.9058 33.8843C30.9178 33.5543 30.9748 33.2453 31.0768 32.9573C31.1788 32.6633 31.3258 32.4083 31.5178 32.1923C31.7158 31.9763 31.9648 31.8053 32.2648 31.6793C32.5648 31.5533 32.9218 31.4903 33.3358 31.4903C33.7558 31.4903 34.1158 31.5533 34.4158 31.6793C34.7158 31.8053 34.9618 31.9763 35.1538 32.1923C35.3518 32.4083 35.4988 32.6633 35.5948 32.9573C35.6968 33.2453 35.7538 33.5543 35.7658 33.8843C35.7778 34.0523 35.7838 34.2353 35.7838 34.4333C35.7838 34.6313 35.7838 34.8293 35.7838 35.0273C35.7838 35.2193 35.7778 35.3963 35.7658 35.5583C35.7538 35.8883 35.6998 36.2003 35.6038 36.4943C35.5078 36.7823 35.3638 37.0373 35.1718 37.2593C34.9798 37.4813 34.7308 37.6553 34.4248 37.7813C34.1248 37.9073 33.7618 37.9703 33.3358 37.9703ZM33.3358 36.9353C33.7258 36.9353 34.0108 36.8093 34.1908 36.5573C34.3768 36.2993 34.4728 35.9513 34.4788 35.5133C34.4908 35.3393 34.4968 35.1653 34.4968 34.9913C34.4968 34.8113 34.4968 34.6313 34.4968 34.4513C34.4968 34.2713 34.4908 34.1003 34.4788 33.9383C34.4728 33.5123 34.3768 33.1703 34.1908 32.9123C34.0108 32.6483 33.7258 32.5163 33.3358 32.5163C32.9518 32.5163 32.6668 32.6483 32.4808 32.9123C32.3008 33.1703 32.2048 33.5123 32.1928 33.9383C32.1928 34.1003 32.1898 34.2713 32.1838 34.4513C32.1838 34.6313 32.1838 34.8113 32.1838 34.9913C32.1898 35.1653 32.1928 35.3393 32.1928 35.5133C32.2048 35.9513 32.3038 36.2993 32.4898 36.5573C32.6758 36.8093 32.9578 36.9353 33.3358 36.9353Z" fill="#F5F5F5"/>
<path d="M27.5222 37.9703C27.0062 37.9703 26.5622 37.8743 26.1902 37.6823C25.8182 37.4843 25.5302 37.2203 25.3262 36.8903C25.1222 36.5543 25.0202 36.1793 25.0202 35.7653C25.0202 35.5793 25.0442 35.3993 25.0922 35.2253C25.1402 35.0513 25.2032 34.8863 25.2812 34.7303C25.3592 34.5743 25.4342 34.4363 25.5062 34.3163C25.5842 34.1903 25.6532 34.0913 25.7132 34.0193L27.3602 31.7603C27.3842 31.7303 27.4202 31.6943 27.4682 31.6523C27.5162 31.6043 27.5822 31.5803 27.6662 31.5803H28.5032C28.5572 31.5803 28.6022 31.6013 28.6382 31.6433C28.6742 31.6793 28.6922 31.7243 28.6922 31.7783C28.6922 31.8023 28.6862 31.8263 28.6742 31.8503C28.6682 31.8683 28.6592 31.8833 28.6472 31.8953L27.3872 33.6413C27.4412 33.6233 27.5042 33.6113 27.5762 33.6053C27.6482 33.5993 27.7142 33.5963 27.7742 33.5963C28.0742 33.6023 28.3592 33.6623 28.6292 33.7763C28.8992 33.8843 29.1362 34.0343 29.3402 34.2263C29.5442 34.4183 29.7032 34.6433 29.8172 34.9013C29.9372 35.1593 29.9972 35.4413 29.9972 35.7473C29.9972 36.1433 29.8982 36.5123 29.7002 36.8543C29.5022 37.1903 29.2172 37.4603 28.8452 37.6643C28.4792 37.8683 28.0382 37.9703 27.5222 37.9703ZM27.5132 36.9353C27.7292 36.9353 27.9272 36.8903 28.1072 36.8003C28.2932 36.7103 28.4432 36.5783 28.5572 36.4043C28.6712 36.2303 28.7282 36.0143 28.7282 35.7563C28.7282 35.5043 28.6712 35.2913 28.5572 35.1173C28.4432 34.9433 28.2932 34.8113 28.1072 34.7213C27.9272 34.6313 27.7292 34.5863 27.5132 34.5863C27.2972 34.5863 27.0962 34.6313 26.9102 34.7213C26.7302 34.8113 26.5832 34.9433 26.4692 35.1173C26.3552 35.2913 26.2982 35.5043 26.2982 35.7563C26.2982 36.0143 26.3552 36.2303 26.4692 36.4043C26.5832 36.5783 26.7302 36.7103 26.9102 36.8003C27.0962 36.8903 27.2972 36.9353 27.5132 36.9353Z" fill="#F5F5F5"/>
<path d="M21.6913 37.9703C21.2713 37.9703 20.9083 37.9193 20.6023 37.8173C20.2963 37.7153 20.0413 37.5833 19.8373 37.4213C19.6393 37.2533 19.4893 37.0733 19.3873 36.8813C19.2853 36.6833 19.2313 36.4883 19.2253 36.2963C19.2253 36.2423 19.2433 36.2003 19.2793 36.1703C19.3213 36.1343 19.3693 36.1163 19.4233 36.1163H20.2333C20.2933 36.1163 20.3443 36.1283 20.3863 36.1523C20.4283 36.1763 20.4643 36.2243 20.4943 36.2963C20.5483 36.4583 20.6353 36.5873 20.7553 36.6833C20.8813 36.7793 21.0253 36.8483 21.1873 36.8903C21.3493 36.9263 21.5203 36.9443 21.7003 36.9443C22.0603 36.9443 22.3453 36.8603 22.5553 36.6923C22.7713 36.5183 22.8793 36.2723 22.8793 35.9543C22.8793 35.6363 22.7803 35.4083 22.5823 35.2703C22.3843 35.1263 22.1083 35.0543 21.7543 35.0543H20.8273C20.7613 35.0543 20.7073 35.0363 20.6653 35.0003C20.6233 34.9583 20.6023 34.9043 20.6023 34.8383V34.4603C20.6023 34.4003 20.6143 34.3493 20.6383 34.3073C20.6683 34.2593 20.6983 34.2203 20.7283 34.1903L22.3393 32.6153H19.7653C19.6993 32.6153 19.6453 32.5943 19.6033 32.5523C19.5673 32.5103 19.5493 32.4593 19.5493 32.3993V31.8053C19.5493 31.7393 19.5673 31.6853 19.6033 31.6433C19.6453 31.6013 19.6993 31.5803 19.7653 31.5803H23.6263C23.6923 31.5803 23.7463 31.6013 23.7883 31.6433C23.8303 31.6853 23.8513 31.7393 23.8513 31.8053V32.3453C23.8513 32.3993 23.8393 32.4473 23.8153 32.4893C23.7913 32.5313 23.7643 32.5673 23.7343 32.5973L22.1773 34.1993L22.2853 34.2083C22.6513 34.2383 22.9753 34.3223 23.2573 34.4603C23.5453 34.5923 23.7673 34.7873 23.9233 35.0453C24.0853 35.3033 24.1663 35.6273 24.1663 36.0173C24.1663 36.4253 24.0583 36.7763 23.8423 37.0703C23.6323 37.3583 23.3413 37.5803 22.9693 37.7363C22.5973 37.8923 22.1713 37.9703 21.6913 37.9703Z" fill="#F5F5F5"/>
</svg>
