<svg width="55" height="45" viewBox="0 0 55 45" fill="none" xmlns="http://www.w3.org/2000/svg">
<path fill-rule="evenodd" clip-rule="evenodd" d="M4.23918 31.6558L4.67149 33.5843C4.76209 33.9885 5.1632 34.2427 5.56738 34.1521C5.97156 34.0615 6.22577 33.6604 6.13516 33.2562L5.40157 29.9837C5.37805 29.8575 5.32179 29.7357 5.23182 29.6315C5.14108 29.5265 5.02757 29.4528 4.90494 29.4113C4.79492 29.3739 4.67473 29.3616 4.55247 29.38L0.88856 29.9304C0.478943 29.9919 0.196767 30.3739 0.258303 30.7835C0.319838 31.1931 0.701783 31.4753 1.1114 31.4138L2.76114 31.1659C2.33045 31.8637 2.0849 32.6174 2.0849 33.4202C2.0849 35.5589 3.35045 37.3732 5.63678 38.7913C7.90983 40.2012 11.2786 41.2838 15.7437 41.9925C16.1528 42.0574 16.5371 41.7784 16.602 41.3693C16.6669 40.9602 16.3879 40.5759 15.9788 40.511C11.6013 39.8163 8.45692 38.7755 6.42744 37.5166C4.41123 36.266 3.5849 34.8663 3.5849 33.4202C3.5849 32.8536 3.79066 32.2616 4.23918 31.6558ZM51.8104 29.6314C52.0812 29.318 52.5548 29.2835 52.8683 29.5543C54.1383 30.6517 54.9573 31.9541 54.9573 33.4202C54.9573 35.4543 53.735 37.2408 51.5949 38.6689C49.4587 40.0944 46.3211 41.2308 42.2347 41.9892C41.8275 42.0647 41.436 41.7959 41.3605 41.3886C41.2849 40.9813 41.5537 40.5899 41.961 40.5143C45.944 39.7751 48.8611 38.6899 50.7623 37.4212C52.6595 36.1551 53.4573 34.7747 53.4573 33.4202C53.4573 32.5553 52.9779 31.6315 51.8875 30.6893C51.5741 30.4185 51.5396 29.9449 51.8104 29.6314Z" fill="#F5F5F5"/>
<path d="M38.1888 41.277C37.9248 41.277 37.6818 41.217 37.4598 41.097C37.2438 40.971 37.0698 40.803 36.9378 40.593C36.8058 40.377 36.7398 40.137 36.7398 39.873C36.7398 39.609 36.8058 39.372 36.9378 39.162C37.0698 38.952 37.2438 38.787 37.4598 38.667C37.6818 38.541 37.9248 38.478 38.1888 38.478C38.4528 38.478 38.6928 38.541 38.9088 38.667C39.1248 38.787 39.2988 38.952 39.4308 39.162C39.5628 39.372 39.6288 39.609 39.6288 39.873C39.6288 40.137 39.5628 40.377 39.4308 40.593C39.2988 40.803 39.1248 40.971 38.9088 41.097C38.6928 41.217 38.4528 41.277 38.1888 41.277ZM38.1888 40.557C38.3928 40.557 38.5578 40.494 38.6838 40.368C38.8098 40.242 38.8728 40.077 38.8728 39.873C38.8728 39.669 38.8098 39.504 38.6838 39.378C38.5578 39.252 38.3928 39.189 38.1888 39.189C37.9848 39.189 37.8198 39.252 37.6938 39.378C37.5678 39.504 37.5048 39.669 37.5048 39.873C37.5048 40.077 37.5678 40.242 37.6938 40.368C37.8198 40.494 37.9848 40.557 38.1888 40.557Z" fill="#F5F5F5"/>
<path d="M33.3358 44.958C32.9098 44.958 32.5468 44.895 32.2468 44.769C31.9468 44.643 31.7008 44.469 31.5088 44.247C31.3168 44.025 31.1728 43.77 31.0768 43.482C30.9808 43.188 30.9238 42.876 30.9058 42.546C30.8998 42.384 30.8938 42.207 30.8878 42.015C30.8878 41.817 30.8878 41.619 30.8878 41.421C30.8938 41.223 30.8998 41.04 30.9058 40.872C30.9178 40.542 30.9748 40.233 31.0768 39.945C31.1788 39.651 31.3258 39.396 31.5178 39.18C31.7158 38.964 31.9648 38.793 32.2648 38.667C32.5648 38.541 32.9218 38.478 33.3358 38.478C33.7558 38.478 34.1158 38.541 34.4158 38.667C34.7158 38.793 34.9618 38.964 35.1538 39.18C35.3518 39.396 35.4988 39.651 35.5948 39.945C35.6968 40.233 35.7538 40.542 35.7658 40.872C35.7778 41.04 35.7838 41.223 35.7838 41.421C35.7838 41.619 35.7838 41.817 35.7838 42.015C35.7838 42.207 35.7778 42.384 35.7658 42.546C35.7538 42.876 35.6998 43.188 35.6038 43.482C35.5078 43.77 35.3638 44.025 35.1718 44.247C34.9798 44.469 34.7308 44.643 34.4248 44.769C34.1248 44.895 33.7618 44.958 33.3358 44.958ZM33.3358 43.923C33.7258 43.923 34.0108 43.797 34.1908 43.545C34.3768 43.287 34.4728 42.939 34.4788 42.501C34.4908 42.327 34.4968 42.153 34.4968 41.979C34.4968 41.799 34.4968 41.619 34.4968 41.439C34.4968 41.259 34.4908 41.088 34.4788 40.926C34.4728 40.5 34.3768 40.158 34.1908 39.9C34.0108 39.636 33.7258 39.504 33.3358 39.504C32.9518 39.504 32.6668 39.636 32.4808 39.9C32.3008 40.158 32.2048 40.5 32.1928 40.926C32.1928 41.088 32.1898 41.259 32.1838 41.439C32.1838 41.619 32.1838 41.799 32.1838 41.979C32.1898 42.153 32.1928 42.327 32.1928 42.501C32.2048 42.939 32.3038 43.287 32.4898 43.545C32.6758 43.797 32.9578 43.923 33.3358 43.923Z" fill="#F5F5F5"/>
<path d="M27.5222 44.958C27.0062 44.958 26.5622 44.862 26.1902 44.67C25.8182 44.472 25.5302 44.208 25.3262 43.878C25.1222 43.542 25.0202 43.167 25.0202 42.753C25.0202 42.567 25.0442 42.387 25.0922 42.213C25.1402 42.039 25.2032 41.874 25.2812 41.718C25.3592 41.562 25.4342 41.424 25.5062 41.304C25.5842 41.178 25.6532 41.079 25.7132 41.007L27.3602 38.748C27.3842 38.718 27.4202 38.682 27.4682 38.64C27.5162 38.592 27.5822 38.568 27.6662 38.568H28.5032C28.5572 38.568 28.6022 38.589 28.6382 38.631C28.6742 38.667 28.6922 38.712 28.6922 38.766C28.6922 38.79 28.6862 38.814 28.6742 38.838C28.6682 38.856 28.6592 38.871 28.6472 38.883L27.3872 40.629C27.4412 40.611 27.5042 40.599 27.5762 40.593C27.6482 40.587 27.7142 40.584 27.7742 40.584C28.0742 40.59 28.3592 40.65 28.6292 40.764C28.8992 40.872 29.1362 41.022 29.3402 41.214C29.5442 41.406 29.7032 41.631 29.8172 41.889C29.9372 42.147 29.9972 42.429 29.9972 42.735C29.9972 43.131 29.8982 43.5 29.7002 43.842C29.5022 44.178 29.2172 44.448 28.8452 44.652C28.4792 44.856 28.0382 44.958 27.5222 44.958ZM27.5132 43.923C27.7292 43.923 27.9272 43.878 28.1072 43.788C28.2932 43.698 28.4432 43.566 28.5572 43.392C28.6712 43.218 28.7282 43.002 28.7282 42.744C28.7282 42.492 28.6712 42.279 28.5572 42.105C28.4432 41.931 28.2932 41.799 28.1072 41.709C27.9272 41.619 27.7292 41.574 27.5132 41.574C27.2972 41.574 27.0962 41.619 26.9102 41.709C26.7302 41.799 26.5832 41.931 26.4692 42.105C26.3552 42.279 26.2982 42.492 26.2982 42.744C26.2982 43.002 26.3552 43.218 26.4692 43.392C26.5832 43.566 26.7302 43.698 26.9102 43.788C27.0962 43.878 27.2972 43.923 27.5132 43.923Z" fill="#F5F5F5"/>
<path d="M21.6913 44.958C21.2713 44.958 20.9083 44.907 20.6023 44.805C20.2963 44.703 20.0413 44.571 19.8373 44.409C19.6393 44.241 19.4893 44.061 19.3873 43.869C19.2853 43.671 19.2313 43.476 19.2253 43.284C19.2253 43.23 19.2433 43.188 19.2793 43.158C19.3213 43.122 19.3693 43.104 19.4233 43.104H20.2333C20.2933 43.104 20.3443 43.116 20.3863 43.14C20.4283 43.164 20.4643 43.212 20.4943 43.284C20.5483 43.446 20.6353 43.575 20.7553 43.671C20.8813 43.767 21.0253 43.836 21.1873 43.878C21.3493 43.914 21.5203 43.932 21.7003 43.932C22.0603 43.932 22.3453 43.848 22.5553 43.68C22.7713 43.506 22.8793 43.26 22.8793 42.942C22.8793 42.624 22.7803 42.396 22.5823 42.258C22.3843 42.114 22.1083 42.042 21.7543 42.042H20.8273C20.7613 42.042 20.7073 42.024 20.6653 41.988C20.6233 41.946 20.6023 41.892 20.6023 41.826V41.448C20.6023 41.388 20.6143 41.337 20.6383 41.295C20.6683 41.247 20.6983 41.208 20.7283 41.178L22.3393 39.603H19.7653C19.6993 39.603 19.6453 39.582 19.6033 39.54C19.5673 39.498 19.5493 39.447 19.5493 39.387V38.793C19.5493 38.727 19.5673 38.673 19.6033 38.631C19.6453 38.589 19.6993 38.568 19.7653 38.568H23.6263C23.6923 38.568 23.7463 38.589 23.7883 38.631C23.8303 38.673 23.8513 38.727 23.8513 38.793V39.333C23.8513 39.387 23.8393 39.435 23.8153 39.477C23.7913 39.519 23.7643 39.555 23.7343 39.585L22.1773 41.187L22.2853 41.196C22.6513 41.226 22.9753 41.31 23.2573 41.448C23.5453 41.58 23.7673 41.775 23.9233 42.033C24.0853 42.291 24.1663 42.615 24.1663 43.005C24.1663 43.413 24.0583 43.764 23.8423 44.058C23.6323 44.346 23.3413 44.568 22.9693 44.724C22.5973 44.88 22.1713 44.958 21.6913 44.958Z" fill="#F5F5F5"/>
<path fill-rule="evenodd" clip-rule="evenodd" d="M12.3589 5.53662C12.3589 5.12241 12.6947 4.78662 13.1089 4.78662H29.2545C29.6688 4.78662 30.0045 5.12241 30.0045 5.53662V31.2228C30.0045 31.637 29.6688 31.9728 29.2545 31.9728H13.1089C12.6947 31.9728 12.3589 31.637 12.3589 31.2228V5.53662ZM13.8589 6.28662V30.4728H28.5045V6.28662H13.8589Z" fill="#F5F5F5"/>
<path fill-rule="evenodd" clip-rule="evenodd" d="M28.8715 23.5164C28.8715 23.1021 29.2073 22.7664 29.6215 22.7664H35.8595C36.2738 22.7664 36.6095 23.1021 36.6095 23.5164C36.6095 23.9306 36.2738 24.2664 35.8595 24.2664H29.6215C29.2073 24.2664 28.8715 23.9306 28.8715 23.5164Z" fill="#F5F5F5"/>
<path fill-rule="evenodd" clip-rule="evenodd" d="M28.5049 1.49988C28.5049 1.08566 28.8407 0.749878 29.2549 0.749878H41.3641C41.7783 0.749878 42.1141 1.08566 42.1141 1.49988V16.5446H40.6141V2.24988H30.0049V5.90322H28.5049V1.49988ZM40.6141 27.1861V23.8835H42.1141V27.1861H40.6141Z" fill="#F5F5F5"/>
<path fill-rule="evenodd" clip-rule="evenodd" d="M14.5603 9.20581C14.5603 8.7916 14.8961 8.45581 15.3103 8.45581H27.0526C27.4668 8.45581 27.8026 8.7916 27.8026 9.20581V12.8753C27.8026 13.2895 27.4668 13.6253 27.0526 13.6253H15.3103C14.8961 13.6253 14.5603 13.2895 14.5603 12.8753V9.20581ZM16.0603 9.95581V12.1253H26.3026V9.95581H16.0603Z" fill="#F5F5F5"/>
<path fill-rule="evenodd" clip-rule="evenodd" d="M14.5603 15.4439C14.5603 15.0297 14.8961 14.6939 15.3103 14.6939H27.0526C27.4668 14.6939 27.8026 15.0297 27.8026 15.4439V19.1134C27.8026 19.5276 27.4668 19.8634 27.0526 19.8634H15.3103C14.8961 19.8634 14.5603 19.5276 14.5603 19.1134V15.4439ZM16.0603 16.1939V18.3634H26.3026V16.1939H16.0603Z" fill="#F5F5F5"/>
<path fill-rule="evenodd" clip-rule="evenodd" d="M31.8894 4.06885C31.8894 3.65463 32.2252 3.31885 32.6394 3.31885H37.7175C38.1317 3.31885 38.4675 3.65463 38.4675 4.06885V7.58442C38.4675 7.99863 38.1317 8.33442 37.7175 8.33442H32.6394C32.2252 8.33442 31.8894 7.99863 31.8894 7.58442V4.06885ZM33.3894 4.81885V6.83442H36.9675V4.81885H33.3894Z" fill="#F5F5F5"/>
<path fill-rule="evenodd" clip-rule="evenodd" d="M31.8894 9.8808C31.8894 9.46658 32.2252 9.1308 32.6394 9.1308H37.7175C38.1317 9.1308 38.4675 9.46658 38.4675 9.8808V13.787C38.4675 14.2012 38.1317 14.537 37.7175 14.537H32.6394C32.2252 14.537 31.8894 14.2012 31.8894 13.787V9.8808ZM33.3894 10.6308V13.037H36.9675V10.6308H33.3894Z" fill="#F5F5F5"/>
<path fill-rule="evenodd" clip-rule="evenodd" d="M31.8894 16.2488C31.8894 15.8346 32.2252 15.4988 32.6394 15.4988H37.5104C37.9246 15.4988 38.2604 15.8346 38.2604 16.2488C38.2604 16.6631 37.9246 16.9988 37.5104 16.9988H33.3894V19.0144H34.5748C34.989 19.0144 35.3248 19.3502 35.3248 19.7644C35.3248 20.1786 34.989 20.5144 34.5748 20.5144H32.6394C32.2252 20.5144 31.8894 20.1786 31.8894 19.7644V16.2488Z" fill="#F5F5F5"/>
<path fill-rule="evenodd" clip-rule="evenodd" d="M12.3589 31.2223C12.3589 30.8081 12.6947 30.4723 13.1089 30.4723L45.0332 30.4723C45.4474 30.4723 45.7832 30.8081 45.7832 31.2223C45.7832 31.6365 45.4474 31.9723 45.0332 31.9723L13.1089 31.9723C12.6947 31.9723 12.3589 31.6365 12.3589 31.2223Z" fill="#F5F5F5"/>
<path fill-rule="evenodd" clip-rule="evenodd" d="M38.8909 23.7333C40.5942 23.7333 42.0783 22.2771 42.0783 20.3506C42.0783 18.424 40.5942 16.9678 38.8909 16.9678C37.1877 16.9678 35.7035 18.424 35.7035 20.3506C35.7035 22.2771 37.1877 23.7333 38.8909 23.7333ZM38.8909 25.2333C41.4797 25.2333 43.5783 23.0472 43.5783 20.3506C43.5783 17.6539 41.4797 15.4678 38.8909 15.4678C36.3021 15.4678 34.2035 17.6539 34.2035 20.3506C34.2035 23.0472 36.3021 25.2333 38.8909 25.2333Z" fill="#F5F5F5"/>
<path fill-rule="evenodd" clip-rule="evenodd" d="M38.9398 18.331C39.354 18.331 39.6898 18.6668 39.6898 19.081V20.6394L40.4602 19.869C40.7531 19.5761 41.228 19.5761 41.5208 19.869C41.8137 20.1619 41.8137 20.6368 41.5208 20.9297L39.6898 22.7607V27.7368C39.6898 28.151 39.354 28.4868 38.9398 28.4868C38.5256 28.4868 38.1898 28.151 38.1898 27.7368V22.7446L36.4859 20.9097C36.204 20.6061 36.2216 20.1316 36.5252 19.8497C36.8287 19.5679 37.3032 19.5855 37.5851 19.889L38.1898 20.5402V19.081C38.1898 18.6668 38.5256 18.331 38.9398 18.331Z" fill="#F5F5F5"/>
<path fill-rule="evenodd" clip-rule="evenodd" d="M42.97 27.7925C43.0274 27.753 43.087 27.7158 43.1488 27.6811C43.4856 27.4926 43.8951 27.3809 44.3538 27.4377C44.8076 27.4938 45.2437 27.7066 45.6547 28.0533C46.4531 28.7265 46.776 29.5027 46.5982 30.2709C46.4401 30.9534 45.9296 31.4135 45.5582 31.6371C45.4414 31.7075 45.3076 31.7447 45.1713 31.7447H38.5163C37.9784 31.7447 37.1455 31.6635 36.5012 31.3557C36.1767 31.2007 35.8 30.9404 35.603 30.504C35.39 30.032 35.4627 29.529 35.7006 29.0706C35.9145 28.6582 36.2019 28.3307 36.5768 28.1404C36.9591 27.9463 37.3508 27.9363 37.6889 28.0141C37.7191 28.0211 37.749 28.0288 37.7787 28.0371C37.7905 28.0085 37.803 27.9799 37.8164 27.9514C38.1489 27.2399 38.8814 26.7359 40.0068 26.5099C40.6062 26.3896 41.1471 26.4172 41.6208 26.5871C42.0963 26.7576 42.4554 27.054 42.7155 27.3934C42.8134 27.5212 42.8977 27.6553 42.97 27.7925ZM41.1146 27.9991C40.9432 27.9376 40.6856 27.9036 40.3021 27.9806C39.4617 28.1493 39.2386 28.4511 39.1753 28.5866C39.0979 28.752 39.1245 28.9522 39.1902 29.0869C39.3564 29.4271 39.2429 29.8378 38.9257 30.0444C38.6084 30.2511 38.1869 30.1889 37.9429 29.8994C37.8674 29.8098 37.763 29.7085 37.6469 29.6249C37.528 29.5392 37.4257 29.4928 37.3524 29.4759C37.2904 29.4617 37.2687 29.4714 37.2558 29.4779C37.2355 29.4882 37.1457 29.5423 37.032 29.7614C36.9972 29.8285 36.984 29.8711 36.9794 29.8947C36.9985 29.9139 37.0455 29.9534 37.1477 30.0022C37.4948 30.168 38.0645 30.2447 38.5163 30.2447H44.9285C45.0344 30.1487 45.1134 30.0335 45.1368 29.9326C45.1494 29.8784 45.152 29.8085 45.1093 29.7067C45.0628 29.5959 44.9507 29.4217 44.6878 29.2C44.4436 28.9941 44.2705 28.9388 44.1695 28.9263C44.0734 28.9144 43.9825 28.9335 43.8816 28.99C43.6447 29.1226 43.421 29.4287 43.302 29.709C43.1627 30.0373 42.8115 30.222 42.4621 30.1509C42.1127 30.0798 41.8617 29.7726 41.8617 29.416C41.8617 29.0735 41.7604 28.6132 41.5249 28.3058C41.4164 28.1642 41.2841 28.0598 41.1146 27.9991ZM36.9778 29.9185C36.9774 29.9187 36.9768 29.9155 36.9774 29.9084C36.9786 29.9147 36.9783 29.9183 36.9778 29.9185Z" fill="#F5F5F5"/>
<path fill-rule="evenodd" clip-rule="evenodd" d="M12.3589 22.4157C12.3589 22.0015 12.6947 21.6657 13.1089 21.6657H29.2545C29.6688 21.6657 30.0045 22.0015 30.0045 22.4157C30.0045 22.8299 29.6688 23.1657 29.2545 23.1657H25.9681V30.8555C25.9681 31.2697 25.6324 31.6055 25.2181 31.6055C24.8039 31.6055 24.4681 31.2697 24.4681 30.8555V23.1657H18.3942V30.8555C18.3942 31.2697 18.0584 31.6055 17.6442 31.6055C17.23 31.6055 16.8942 31.2697 16.8942 30.8555V23.1657H13.1089C12.6947 23.1657 12.3589 22.8299 12.3589 22.4157Z" fill="#F5F5F5"/>
</svg>
