<svg width="49" height="36" viewBox="0 0 49 36" fill="none" xmlns="http://www.w3.org/2000/svg">
<path d="M4.08759 34.7774H21.927V1.5H4.08759V34.7774ZM4.08759 34.7774H1" stroke="#F5F5F5" stroke-width="1.5" stroke-linecap="round" stroke-linejoin="round"/>
<rect x="6.48904" y="3.90137" width="3.08759" height="3.43066" stroke="#F5F5F5" stroke-width="1.5" stroke-linejoin="round"/>
<rect x="25.0146" y="15.5657" width="6.86131" height="3.43066" stroke="#F5F5F5" stroke-width="1.5" stroke-linejoin="round"/>
<rect x="35.3066" y="15.5657" width="6.86131" height="3.43066" stroke="#F5F5F5" stroke-width="1.5" stroke-linejoin="round"/>
<rect x="25.0146" y="21.3977" width="6.86131" height="3.43066" stroke="#F5F5F5" stroke-width="1.5" stroke-linejoin="round"/>
<rect x="35.3066" y="21.3977" width="6.86131" height="3.43066" stroke="#F5F5F5" stroke-width="1.5" stroke-linejoin="round"/>
<rect x="25.0146" y="27.23" width="6.86131" height="3.43066" stroke="#F5F5F5" stroke-width="1.5" stroke-linejoin="round"/>
<rect x="35.3066" y="27.23" width="6.86131" height="3.43066" stroke="#F5F5F5" stroke-width="1.5" stroke-linejoin="round"/>
<rect x="6.48904" y="9.73364" width="3.08759" height="3.43066" stroke="#F5F5F5" stroke-width="1.5" stroke-linejoin="round"/>
<rect x="6.48904" y="15.5657" width="3.08759" height="3.43066" stroke="#F5F5F5" stroke-width="1.5" stroke-linejoin="round"/>
<rect x="6.48904" y="21.3977" width="3.08759" height="3.43066" stroke="#F5F5F5" stroke-width="1.5" stroke-linejoin="round"/>
<rect x="16.438" y="3.90137" width="3.08759" height="3.43066" stroke="#F5F5F5" stroke-width="1.5" stroke-linejoin="round"/>
<rect x="16.438" y="9.73364" width="3.08759" height="3.43066" stroke="#F5F5F5" stroke-width="1.5" stroke-linejoin="round"/>
<rect x="16.438" y="15.5657" width="3.08759" height="3.43066" stroke="#F5F5F5" stroke-width="1.5" stroke-linejoin="round"/>
<rect x="16.438" y="21.3977" width="3.08759" height="3.43066" stroke="#F5F5F5" stroke-width="1.5" stroke-linejoin="round"/>
<rect x="11.635" y="3.90137" width="2.74453" height="3.43066" stroke="#F5F5F5" stroke-width="1.5" stroke-linejoin="round"/>
<rect x="11.635" y="9.73364" width="2.74453" height="3.43066" stroke="#F5F5F5" stroke-width="1.5" stroke-linejoin="round"/>
<rect x="11.635" y="15.5657" width="2.74453" height="3.43066" stroke="#F5F5F5" stroke-width="1.5" stroke-linejoin="round"/>
<rect x="11.635" y="21.3977" width="2.74453" height="3.43066" stroke="#F5F5F5" stroke-width="1.5" stroke-linejoin="round"/>
<path d="M45.3634 34.7774V13.1643H21.927V34.7774H45.3634ZM45.3634 34.7774H48" stroke="#F5F5F5" stroke-width="1.5" stroke-linecap="round" stroke-linejoin="round"/>
<line x1="3.74454" y1="24.7646" x2="21.927" y2="24.7646" stroke="#F5F5F5" stroke-width="1.5"/>
<line x1="6.08212" y1="35.1204" x2="6.08212" y2="26.8868" stroke="#F5F5F5" stroke-width="1.5"/>
<line x1="10.1989" y1="35.1204" x2="10.1989" y2="26.8868" stroke="#F5F5F5" stroke-width="1.5"/>
<line x1="15.0018" y1="35.1204" x2="15.0018" y2="26.8868" stroke="#F5F5F5" stroke-width="1.5"/>
<line x1="19.4617" y1="35.1204" x2="19.4617" y2="26.8868" stroke="#F5F5F5" stroke-width="1.5"/>
<line x1="3.74454" y1="26.823" x2="21.927" y2="26.823" stroke="#F5F5F5" stroke-width="1.5"/>
</svg>
