<svg width="49" height="36" viewBox="0 0 49 36" fill="none" xmlns="http://www.w3.org/2000/svg">
<path fill-rule="evenodd" clip-rule="evenodd" d="M27.9307 9.82666H21.4124V8.32666H27.9307V9.82666ZM41.761 9.82666H36.8504V8.32666H42.511C42.9252 8.32666 43.261 8.66245 43.261 9.07666V35.1497C43.261 35.5639 42.9252 35.8997 42.511 35.8997H7.86133C7.44711 35.8997 7.11133 35.5639 7.11133 35.1497V25.8869H8.61133V34.3997H41.761V9.82666Z" fill="#F5F5F5"/>
<path fill-rule="evenodd" clip-rule="evenodd" d="M0.25 4.27368C0.25 3.85947 0.585786 3.52368 1 3.52368H21.5839C21.9982 3.52368 22.3339 3.85947 22.3339 4.27368V25.8868C22.3339 26.301 21.9982 26.6368 21.5839 26.6368H1C0.585786 26.6368 0.25 26.301 0.25 25.8868V4.27368ZM1.75 5.02368V25.1368H20.8339V5.02368H1.75Z" fill="#F5F5F5"/>
<path fill-rule="evenodd" clip-rule="evenodd" d="M47.25 23.8923H22.3961V22.3923H48C48.4142 22.3923 48.75 22.7281 48.75 23.1423V31.3759C48.75 31.7901 48.4142 32.1259 48 32.1259H11.635C11.2208 32.1259 10.885 31.7901 10.885 31.3759V25.8869H12.385V30.6259H47.25V23.8923Z" fill="#F5F5F5"/>
<path fill-rule="evenodd" clip-rule="evenodd" d="M21.853 22.3923C22.2672 22.3923 22.603 22.7281 22.603 23.1423V31.3759C22.603 31.7901 22.2672 32.1259 21.853 32.1259C21.4388 32.1259 21.103 31.7901 21.103 31.3759V23.1423C21.103 22.7281 21.4388 22.3923 21.853 22.3923ZM24.4585 22.3923C24.8727 22.3923 25.2085 22.7281 25.2085 23.1423V31.3759C25.2085 31.7901 24.8727 32.1259 24.4585 32.1259C24.0443 32.1259 23.7085 31.7901 23.7085 31.3759V23.1423C23.7085 22.7281 24.0443 22.3923 24.4585 22.3923ZM27.064 22.3923C27.4782 22.3923 27.814 22.7281 27.814 23.1423V31.3759C27.814 31.7901 27.4782 32.1259 27.064 32.1259C26.6498 32.1259 26.314 31.7901 26.314 31.3759V23.1423C26.314 22.7281 26.6498 22.3923 27.064 22.3923ZM29.4834 22.3923C29.8976 22.3923 30.2334 22.7281 30.2334 23.1423V31.3759C30.2334 31.7901 29.8976 32.1259 29.4834 32.1259C29.0692 32.1259 28.7334 31.7901 28.7334 31.3759V23.1423C28.7334 22.7281 29.0692 22.3923 29.4834 22.3923ZM32.0889 22.3923C32.5031 22.3923 32.8389 22.7281 32.8389 23.1423V31.3759C32.8389 31.7901 32.5031 32.1259 32.0889 32.1259C31.6747 32.1259 31.3389 31.7901 31.3389 31.3759V23.1423C31.3389 22.7281 31.6747 22.3923 32.0889 22.3923ZM34.6944 22.3923C35.1087 22.3923 35.4444 22.7281 35.4444 23.1423V31.3759C35.4444 31.7901 35.1087 32.1259 34.6944 32.1259C34.2802 32.1259 33.9444 31.7901 33.9444 31.3759V23.1423C33.9444 22.7281 34.2802 22.3923 34.6944 22.3923ZM37.2999 22.3923C37.7142 22.3923 38.0499 22.7281 38.0499 23.1423V31.3759C38.0499 31.7901 37.7142 32.1259 37.2999 32.1259C36.8857 32.1259 36.5499 31.7901 36.5499 31.3759V23.1423C36.5499 22.7281 36.8857 22.3923 37.2999 22.3923ZM39.9054 22.3923C40.3197 22.3923 40.6554 22.7281 40.6554 23.1423V31.3759C40.6554 31.7901 40.3197 32.1259 39.9054 32.1259C39.4912 32.1259 39.1554 31.7901 39.1554 31.3759V23.1423C39.1554 22.7281 39.4912 22.3923 39.9054 22.3923ZM42.511 22.3923C42.9252 22.3923 43.261 22.7281 43.261 23.1423V31.3759C43.261 31.7901 42.9252 32.1259 42.511 32.1259C42.0967 32.1259 41.761 31.7901 41.761 31.3759V23.1423C41.761 22.7281 42.0967 22.3923 42.511 22.3923ZM45.2555 22.3923C45.6697 22.3923 46.0055 22.7281 46.0055 23.1423V31.3759C46.0055 31.7901 45.6697 32.1259 45.2555 32.1259C44.8413 32.1259 44.5055 31.7901 44.5055 31.3759V23.1423C44.5055 22.7281 44.8413 22.3923 45.2555 22.3923ZM14.0365 25.4161C14.4507 25.4161 14.7865 25.7519 14.7865 26.1661V31.3759C14.7865 31.7901 14.4507 32.1259 14.0365 32.1259C13.6223 32.1259 13.2865 31.7901 13.2865 31.3759V26.1661C13.2865 25.7519 13.6223 25.4161 14.0365 25.4161ZM16.642 25.4161C17.0562 25.4161 17.392 25.7519 17.392 26.1661V31.3759C17.392 31.7901 17.0562 32.1259 16.642 32.1259C16.2278 32.1259 15.892 31.7901 15.892 31.3759V26.1661C15.892 25.7519 16.2278 25.4161 16.642 25.4161ZM19.2475 25.4161C19.6617 25.4161 19.9975 25.7519 19.9975 26.1661V31.3759C19.9975 31.7901 19.6617 32.1259 19.2475 32.1259C18.8333 32.1259 18.4975 31.7901 18.4975 31.3759V26.1661C18.4975 25.7519 18.8333 25.4161 19.2475 25.4161Z" fill="#F5F5F5"/>
<path fill-rule="evenodd" clip-rule="evenodd" d="M32.3905 10.6642C34.6464 10.6642 36.5511 8.7672 36.5511 6.33212C36.5511 3.89703 34.6464 2 32.3905 2C30.1346 2 28.2299 3.89703 28.2299 6.33212C28.2299 8.7672 30.1346 10.6642 32.3905 10.6642ZM32.3905 12.1642C35.5168 12.1642 38.0511 9.55311 38.0511 6.33212C38.0511 3.11113 35.5168 0.5 32.3905 0.5C29.2642 0.5 26.7299 3.11113 26.7299 6.33212C26.7299 9.55311 29.2642 12.1642 32.3905 12.1642Z" fill="#F5F5F5"/>
<path fill-rule="evenodd" clip-rule="evenodd" d="M7.86133 5.92529C8.27554 5.92529 8.61133 6.26108 8.61133 6.67529L8.61133 23.1424C8.61133 23.5567 8.27554 23.8924 7.86133 23.8924C7.44712 23.8924 7.11133 23.5567 7.11133 23.1424L7.11133 6.67529C7.11133 6.26108 7.44711 5.92529 7.86133 5.92529Z" fill="#F5F5F5"/>
<path fill-rule="evenodd" clip-rule="evenodd" d="M2.30838 11.478C2.30838 11.0638 2.64417 10.728 3.05838 10.728L19.5255 10.728C19.9397 10.728 20.2755 11.0638 20.2755 11.478C20.2755 11.8922 19.9397 12.228 19.5255 12.228L3.05838 12.228C2.64417 12.228 2.30838 11.8922 2.30838 11.478Z" fill="#F5F5F5"/>
</svg>
