<svg xmlns="http://www.w3.org/2000/svg" width="48" height="34" fill="none"><path fill="#F5F5F5" d="M16.562 33.118c-.42 0-.783-.05-1.09-.153a2.48 2.48 0 0 1-.764-.396 1.861 1.861 0 0 1-.45-.54 1.366 1.366 0 0 1-.162-.585c0-.054.018-.096.054-.126a.215.215 0 0 1 .144-.054h.81c.06 0 .11.012.153.036.042.024.078.072.108.144a.81.81 0 0 0 .26.387c.127.096.27.165.433.207.162.036.333.054.513.054.36 0 .645-.084.855-.252.216-.174.324-.42.324-.738s-.1-.546-.297-.684c-.198-.144-.474-.216-.828-.216h-.927a.24.24 0 0 1-.162-.054.22.22 0 0 1-.063-.162v-.378c0-.06.012-.11.036-.153a.66.66 0 0 1 .09-.117l1.61-1.575h-2.573a.22.22 0 0 1-.162-.063.227.227 0 0 1-.054-.153v-.594a.24.24 0 0 1 .054-.162.22.22 0 0 1 .162-.063h3.86a.22.22 0 0 1 .163.063.22.22 0 0 1 .063.162v.54a.285.285 0 0 1-.036.144.508.508 0 0 1-.081.108l-1.557 1.602.108.01c.366.03.69.113.972.251.288.132.51.327.666.585.162.258.243.582.243.972 0 .408-.108.76-.324 1.053-.21.288-.501.51-.873.666a3.28 3.28 0 0 1-1.278.234Zm5.83 0c-.515 0-.96-.096-1.331-.288a2.21 2.21 0 0 1-.864-.792 2.125 2.125 0 0 1-.306-1.125c0-.186.024-.366.072-.54.048-.174.11-.339.189-.495.078-.156.153-.294.225-.414a2.68 2.68 0 0 1 .207-.297l1.647-2.259a.904.904 0 0 1 .108-.108.268.268 0 0 1 .198-.072h.837a.17.17 0 0 1 .135.063.183.183 0 0 1 .054.135.16.16 0 0 1-.018.072.113.113 0 0 1-.027.045l-1.26 1.746a.814.814 0 0 1 .189-.036 2.4 2.4 0 0 1 .198-.009c.3.006.585.066.855.18.27.108.507.258.71.45.205.192.364.417.478.675.12.258.18.54.18.846 0 .396-.1.765-.297 1.107a2.185 2.185 0 0 1-.855.81c-.366.204-.807.306-1.323.306Zm-.008-1.035c.216 0 .414-.045.594-.135.186-.09.336-.222.45-.396.114-.174.17-.39.17-.648a1.14 1.14 0 0 0-.17-.639 1.103 1.103 0 0 0-.45-.396 1.31 1.31 0 0 0-.594-.135c-.216 0-.417.045-.603.135-.18.09-.327.222-.441.396a1.141 1.141 0 0 0-.171.64c0 .257.057.473.17.647.115.174.262.306.442.396.186.09.387.135.603.135Zm5.822 1.035c-.426 0-.789-.063-1.089-.189a1.96 1.96 0 0 1-.738-.522 2.239 2.239 0 0 1-.432-.765 3.642 3.642 0 0 1-.17-.936 92.414 92.414 0 0 1-.019-.53v-.595l.018-.549c.012-.33.07-.639.171-.927a2.26 2.26 0 0 1 .441-.765c.198-.216.447-.387.747-.513s.657-.189 1.071-.189c.42 0 .78.063 1.08.19.3.125.546.296.738.512.198.216.345.471.441.765.102.288.16.597.171.927.012.168.018.351.018.55v.593c0 .192-.006.37-.018.531-.012.33-.066.642-.162.936-.096.288-.24.543-.432.765a1.948 1.948 0 0 1-.747.522c-.3.126-.663.19-1.089.19Zm0-1.035c.39 0 .675-.126.855-.378.186-.258.282-.606.288-1.044.012-.174.018-.348.018-.522v-.54c0-.18-.006-.35-.018-.513-.006-.426-.102-.768-.288-1.026-.18-.264-.465-.396-.855-.396-.384 0-.669.132-.855.396-.18.258-.276.6-.288 1.026 0 .162-.003.333-.009.513v.54c.006.174.01.348.01.522.011.438.11.786.296 1.044.186.252.468.378.846.378Zm4.853-2.646c-.264 0-.507-.06-.729-.18a1.5 1.5 0 0 1-.522-.504 1.354 1.354 0 0 1-.198-.72c0-.264.066-.5.198-.71.132-.21.306-.376.522-.496.222-.126.465-.189.73-.189.263 0 .503.063.72.19.215.12.39.284.521.494.132.21.198.447.198.711 0 .264-.066.504-.198.72a1.5 1.5 0 0 1-.522.504c-.216.12-.456.18-.72.18Zm0-.72a.67.67 0 0 0 .495-.189.67.67 0 0 0 .19-.495.67.67 0 0 0-.19-.495.67.67 0 0 0-.495-.189.67.67 0 0 0-.495.19.67.67 0 0 0-.189.494.67.67 0 0 0 .19.495.67.67 0 0 0 .494.19ZM8.993 14.067h.75a.75.75 0 0 0-.549-.723l-.2.723Zm29.601-.723a.75.75 0 0 0 .402 1.446l-.402-1.445Zm-29.6 17.263-.202.723a.75.75 0 0 0 .951-.723h-.75Zm29.6-.723a.75.75 0 0 0 .402 1.445l-.402-1.445ZM1.75 8.42c0-.69.428-1.471 1.496-2.294 1.057-.816 2.634-1.582 4.65-2.24 4.023-1.312 9.629-2.136 15.855-2.136V.25c-6.34 0-12.11.837-16.32 2.21-2.101.685-3.856 1.518-5.101 2.478C1.095 5.89.25 7.06.25 8.42h1.5Zm22-6.67c6.226 0 11.832.824 15.855 2.136 2.016.658 3.593 1.424 4.65 2.24 1.068.823 1.496 1.605 1.496 2.294h1.5c0-1.36-.845-2.53-2.08-3.482-1.245-.96-3-1.793-5.1-2.478C35.86 1.087 30.09.25 23.75.25v1.5ZM9.195 13.345c-2.403-.67-4.314-1.488-5.605-2.38-1.314-.91-1.84-1.785-1.84-2.545H.25c0 1.5 1.025 2.768 2.486 3.778 1.482 1.025 3.569 1.9 6.056 2.592l.402-1.445ZM45.751 8.42c0 .789-.488 1.664-1.71 2.555-1.215.886-3.046 1.702-5.447 2.37l.402 1.445c2.492-.693 4.513-1.57 5.929-2.603 1.408-1.027 2.326-2.295 2.326-3.767h-1.5ZM9.194 29.884c-2.403-.668-4.314-1.487-5.605-2.38-1.313-.908-1.839-1.783-1.839-2.544H.25c0 1.5 1.025 2.767 2.486 3.778 1.482 1.025 3.569 1.9 6.056 2.591l.402-1.445Zm36.557-4.924c0 .789-.488 1.664-1.71 2.555-1.215.886-3.046 1.702-5.447 2.37l.402 1.444c2.492-.693 4.513-1.57 5.929-2.602 1.408-1.027 2.326-2.295 2.326-3.767h-1.5ZM9.194 20.035c3.895-1.084 8.979-1.745 14.557-1.745v-1.5c-5.685 0-10.908.673-14.959 1.8l.402 1.445Zm14.557-1.745c5.577 0 10.661.661 14.556 1.745l.402-1.445c-4.051-1.127-9.274-1.8-14.958-1.8v1.5ZM8.243 14.067v5.245h1.5v-5.245h-1.5Zm0 5.245v11.295h1.5V19.312h-1.5ZM45.751 8.42v16.54h1.5V8.42h-1.5Z"/><path stroke="#F5F5F5" stroke-linecap="round" stroke-linejoin="round" stroke-width="1.5" d="M38.71 14.21v16.397M1 8.48v16.595"/><path fill="#A5A5A5" stroke="#F5F5F5" stroke-linejoin="round" stroke-width="1.5" d="m25.621 9.259-3.038 1.754V7.504L25.62 9.26Z"/><circle cx="23.595" cy="9.259" r="4.392" stroke="#F5F5F5" stroke-width="1.5"/></svg>