<svg xmlns="http://www.w3.org/2000/svg" width="55" height="39" fill="none"><path stroke="#fff" stroke-width="1.5" d="M9.456 11.087a6.25 6.25 0 0 1 6.25-6.25H41.07a6.25 6.25 0 0 1 6.25 6.25v5.297a6.25 6.25 0 0 1-6.25 6.25h-4.91a3.986 3.986 0 0 1-3.19-1.595c-2.194-2.926-6.583-2.926-8.778 0a3.986 3.986 0 0 1-3.189 1.595h-5.297a6.25 6.25 0 0 1-6.25-6.25v-5.297Z"/><path stroke="#fff" stroke-width="1.5" d="M10.25 4.84A3.84 3.84 0 0 1 14.09 1h28.597a3.84 3.84 0 0 1 3.84 3.84"/><circle cx="19.318" cy="13.543" r="3.302" stroke="#fff" stroke-width="1.5"/><circle cx="37.459" cy="13.543" r="3.302" stroke="#fff" stroke-width="1.5"/><path stroke="#fff" stroke-linecap="round" stroke-linejoin="round" stroke-width="1.5" d="m1 23.934 3.664-.55.74 3.299m10.457 7.831C7.02 33.111 2.835 30.267 2.835 26.683c0-1.166.65-2.279 1.83-3.299m37.433 11.13c8.07-1.497 12.11-4.443 12.11-7.831 0-1.166-.65-2.279-1.83-3.299"/><path fill="#fff" d="M21.691 38.22c-.42 0-.783-.05-1.089-.153a2.48 2.48 0 0 1-.765-.396 1.861 1.861 0 0 1-.45-.54 1.366 1.366 0 0 1-.162-.585c0-.054.018-.096.054-.126a.215.215 0 0 1 .144-.054h.81c.06 0 .111.012.153.036.042.024.078.072.108.144a.81.81 0 0 0 .261.387c.126.096.27.165.432.207.162.036.333.054.513.054.36 0 .645-.084.855-.252.216-.174.324-.42.324-.738s-.099-.546-.297-.684c-.198-.144-.474-.216-.828-.216h-.927a.24.24 0 0 1-.162-.054.22.22 0 0 1-.063-.162v-.378c0-.06.012-.11.036-.153a.66.66 0 0 1 .09-.117l1.611-1.575h-2.574a.22.22 0 0 1-.162-.063.227.227 0 0 1-.054-.153v-.594a.24.24 0 0 1 .054-.162.22.22 0 0 1 .162-.063h3.861a.22.22 0 0 1 .162.063.22.22 0 0 1 .063.162v.54a.285.285 0 0 1-.036.144.508.508 0 0 1-.08.108l-1.558 1.602.108.01c.366.03.69.113.972.251.288.132.51.327.666.585.162.258.243.582.243.972 0 .408-.108.76-.324 1.053-.21.288-.5.51-.873.666a3.28 3.28 0 0 1-1.278.234Zm5.831 0c-.516 0-.96-.096-1.332-.288a2.21 2.21 0 0 1-.864-.792 2.125 2.125 0 0 1-.306-1.125c0-.186.024-.366.072-.54.048-.174.111-.339.19-.495.077-.156.152-.294.224-.414a2.68 2.68 0 0 1 .207-.297l1.647-2.259a.904.904 0 0 1 .108-.108.268.268 0 0 1 .198-.072h.837a.17.17 0 0 1 .135.063.183.183 0 0 1 .054.135.16.16 0 0 1-.018.072.113.113 0 0 1-.027.045l-1.26 1.746a.814.814 0 0 1 .19-.036 2.4 2.4 0 0 1 .197-.009c.3.006.585.066.855.18.27.108.507.258.711.45.204.192.363.417.477.675.12.258.18.54.18.846 0 .396-.099.765-.297 1.107a2.185 2.185 0 0 1-.855.81c-.366.204-.807.306-1.323.306Zm-.009-1.035c.216 0 .414-.045.594-.135.186-.09.336-.222.45-.396.114-.174.171-.39.171-.648 0-.252-.057-.465-.17-.639a1.103 1.103 0 0 0-.45-.396 1.31 1.31 0 0 0-.595-.135c-.216 0-.417.045-.603.135-.18.09-.327.222-.44.396a1.141 1.141 0 0 0-.172.64c0 .257.057.473.171.647.114.174.261.306.441.396.186.09.387.135.603.135Zm5.823 1.035c-.426 0-.79-.063-1.09-.189a1.96 1.96 0 0 1-.737-.522 2.239 2.239 0 0 1-.432-.765 3.642 3.642 0 0 1-.171-.936 92.414 92.414 0 0 1-.018-.53v-.595l.018-.549c.012-.33.069-.639.17-.927.103-.294.25-.549.442-.765.198-.216.447-.387.747-.513s.657-.189 1.07-.189c.42 0 .78.063 1.08.19.3.125.547.296.739.512.198.216.345.471.44.765.103.288.16.597.172.927.012.168.018.351.018.55v.593c0 .192-.006.37-.018.531-.012.33-.066.642-.162.936-.096.288-.24.543-.432.765a1.948 1.948 0 0 1-.747.522c-.3.126-.663.19-1.09.19Zm0-1.035c.39 0 .675-.126.855-.378.186-.258.282-.606.288-1.044.012-.174.018-.348.018-.522v-.54c0-.18-.006-.35-.018-.513-.006-.426-.102-.768-.288-1.026-.18-.264-.465-.396-.855-.396-.384 0-.67.132-.855.396-.18.258-.276.6-.288 1.026 0 .162-.003.333-.01.513v.54c.007.174.01.348.01.522.012.438.11.786.297 1.044.186.252.468.378.846.378Zm4.853-2.646c-.264 0-.507-.06-.73-.18a1.5 1.5 0 0 1-.521-.504 1.354 1.354 0 0 1-.198-.72c0-.264.066-.5.198-.71.132-.21.306-.376.522-.496.222-.126.465-.189.729-.189.264 0 .504.063.72.19.216.12.39.284.522.494.132.21.198.447.198.711 0 .264-.066.504-.198.72a1.5 1.5 0 0 1-.522.504c-.216.12-.456.18-.72.18Zm0-.72a.67.67 0 0 0 .495-.189.67.67 0 0 0 .189-.495.67.67 0 0 0-.19-.495.67.67 0 0 0-.494-.189.67.67 0 0 0-.495.19.67.67 0 0 0-.19.494.67.67 0 0 0 .19.495.67.67 0 0 0 .495.19Z"/></svg>